G04 #@! TF.FileFunction,Copper,L2,Bot,Signal*
%FSLAX46Y46*%
G04 Gerber Fmt 4.6, Leading zero omitted, Abs format (unit mm)*
G04 Created by KiCad (PCBNEW 4.0.5) date 2017 April 15, Saturday 18:49:04*
%MOMM*%
%LPD*%
G01*
G04 APERTURE LIST*
%ADD10C,0.100000*%
%ADD11R,1.727200X2.032000*%
%ADD12O,1.727200X2.032000*%
%ADD13C,1.727200*%
%ADD14O,1.727200X1.727200*%
%ADD15R,1.727200X1.727200*%
%ADD16O,0.899160X1.501140*%
%ADD17C,1.998980*%
%ADD18C,2.499360*%
%ADD19C,7.000240*%
%ADD20R,2.032000X2.032000*%
%ADD21O,2.032000X2.032000*%
%ADD22C,2.000000*%
%ADD23C,2.500000*%
%ADD24R,2.500000X2.500000*%
%ADD25R,2.000000X2.600000*%
%ADD26O,2.000000X2.600000*%
%ADD27C,1.501140*%
%ADD28C,2.999740*%
%ADD29C,0.250000*%
%ADD30C,0.254000*%
G04 APERTURE END LIST*
D10*
D11*
X165100000Y-63500000D03*
D12*
X162560000Y-63500000D03*
X160020000Y-63500000D03*
D13*
X137414000Y-49022000D03*
D14*
X137414000Y-46482000D03*
D13*
X139954000Y-49022000D03*
D14*
X139954000Y-46482000D03*
X142494000Y-49022000D03*
X142494000Y-46482000D03*
X145034000Y-49022000D03*
X145034000Y-46482000D03*
X147574000Y-49022000D03*
X147574000Y-46482000D03*
X150114000Y-49022000D03*
X150114000Y-46482000D03*
X152654000Y-49022000D03*
X152654000Y-46482000D03*
X155194000Y-49022000D03*
X155194000Y-46482000D03*
X157734000Y-49022000D03*
X157734000Y-46482000D03*
X160274000Y-49022000D03*
X160274000Y-46482000D03*
X162814000Y-49022000D03*
X162814000Y-46482000D03*
X165354000Y-49022000D03*
X165354000Y-46482000D03*
X167894000Y-49022000D03*
X167894000Y-46482000D03*
X170434000Y-49022000D03*
X170434000Y-46482000D03*
X172974000Y-49022000D03*
X172974000Y-46482000D03*
X175514000Y-49022000D03*
X175514000Y-46482000D03*
X178054000Y-49022000D03*
X178054000Y-46482000D03*
X180594000Y-49022000D03*
X180594000Y-46482000D03*
X183134000Y-49022000D03*
X183134000Y-46482000D03*
X185674000Y-49022000D03*
X185674000Y-46482000D03*
D15*
X143764000Y-57404000D03*
D14*
X143764000Y-54864000D03*
X146304000Y-57404000D03*
X146304000Y-54864000D03*
X148844000Y-57404000D03*
X148844000Y-54864000D03*
X151384000Y-57404000D03*
X151384000Y-54864000D03*
X153924000Y-57404000D03*
X153924000Y-54864000D03*
X156464000Y-57404000D03*
X156464000Y-54864000D03*
X159004000Y-57404000D03*
X159004000Y-54864000D03*
X161544000Y-57404000D03*
X161544000Y-54864000D03*
D16*
X142748000Y-64770000D03*
X141478000Y-64770000D03*
X144018000Y-64770000D03*
D17*
X169418000Y-54610000D03*
X169418000Y-62230000D03*
X147574000Y-64770000D03*
X155194000Y-64770000D03*
X172720000Y-54610000D03*
X172720000Y-62230000D03*
D18*
X177744120Y-59611260D03*
X190246000Y-54610000D03*
X190246000Y-64612520D03*
D19*
X182745380Y-59611260D03*
D20*
X165100000Y-67056000D03*
D21*
X162560000Y-67056000D03*
D22*
X140000000Y-88000000D03*
X135000000Y-88000000D03*
X150000000Y-88000000D03*
X145000000Y-88000000D03*
D23*
X138244000Y-77186000D03*
X142444000Y-77186000D03*
X146644000Y-77186000D03*
X150844000Y-77186000D03*
X155044000Y-77186000D03*
X159244000Y-77186000D03*
X163444000Y-77186000D03*
X167644000Y-77186000D03*
X171844000Y-77186000D03*
X176044000Y-77186000D03*
X180244000Y-77186000D03*
X184444000Y-77186000D03*
D24*
X138244000Y-71386000D03*
D23*
X142444000Y-71386000D03*
X146644000Y-71386000D03*
X150844000Y-71386000D03*
X155044000Y-71386000D03*
X159244000Y-71386000D03*
X163444000Y-71386000D03*
X167644000Y-71386000D03*
X171844000Y-71386000D03*
X176044000Y-71386000D03*
X180244000Y-71386000D03*
X184444000Y-71386000D03*
D25*
X177292000Y-86614000D03*
D26*
X179832000Y-86614000D03*
X182372000Y-86614000D03*
D25*
X186436000Y-86614000D03*
D26*
X188976000Y-86614000D03*
X191516000Y-86614000D03*
D27*
X166878860Y-87119880D03*
X164338860Y-87119880D03*
X162306860Y-87119880D03*
X159766860Y-87119880D03*
D28*
X169926860Y-89786880D03*
X156210860Y-89786880D03*
D29*
X162560000Y-60452000D02*
X162560000Y-63500000D01*
X161290000Y-59182000D02*
X162560000Y-60452000D01*
X153670000Y-59182000D02*
X161290000Y-59182000D01*
X152654000Y-58166000D02*
X153670000Y-59182000D01*
X152654000Y-53086000D02*
X152654000Y-58166000D01*
X151384000Y-51816000D02*
X152654000Y-53086000D01*
X151384000Y-47752000D02*
X151384000Y-51816000D01*
X150114000Y-46482000D02*
X151384000Y-47752000D01*
D30*
G36*
X188706439Y-44950687D02*
X187797877Y-45857664D01*
X187305561Y-47043294D01*
X187304441Y-48327074D01*
X187794687Y-49513561D01*
X188701664Y-50422123D01*
X189887294Y-50914439D01*
X191171074Y-50915559D01*
X192357561Y-50425313D01*
X193266123Y-49518336D01*
X193655000Y-48581815D01*
X193655000Y-95795874D01*
X193269313Y-94862439D01*
X192362336Y-93953877D01*
X191176706Y-93461561D01*
X189892926Y-93460441D01*
X188706439Y-93950687D01*
X187797877Y-94857664D01*
X187305561Y-96043294D01*
X187304441Y-97327074D01*
X187794687Y-98513561D01*
X188701664Y-99422123D01*
X189638185Y-99811000D01*
X133424126Y-99811000D01*
X134357561Y-99425313D01*
X135266123Y-98518336D01*
X135758439Y-97332706D01*
X135759559Y-96048926D01*
X135269313Y-94862439D01*
X134362336Y-93953877D01*
X133176706Y-93461561D01*
X131892926Y-93460441D01*
X130706439Y-93950687D01*
X129797877Y-94857664D01*
X129409000Y-95794185D01*
X129409000Y-91300757D01*
X154876588Y-91300757D01*
X155036355Y-91619512D01*
X155827077Y-91929475D01*
X156676226Y-91913247D01*
X157385365Y-91619512D01*
X157545132Y-91300757D01*
X168592588Y-91300757D01*
X168752355Y-91619512D01*
X169543077Y-91929475D01*
X170392226Y-91913247D01*
X171101365Y-91619512D01*
X171261132Y-91300757D01*
X169926860Y-89966485D01*
X168592588Y-91300757D01*
X157545132Y-91300757D01*
X156210860Y-89966485D01*
X154876588Y-91300757D01*
X129409000Y-91300757D01*
X129409000Y-89152532D01*
X134027073Y-89152532D01*
X134125736Y-89419387D01*
X134735461Y-89645908D01*
X135385460Y-89621856D01*
X135874264Y-89419387D01*
X135880286Y-89403097D01*
X154068265Y-89403097D01*
X154084493Y-90252246D01*
X154378228Y-90961385D01*
X154696983Y-91121152D01*
X156031255Y-89786880D01*
X156390465Y-89786880D01*
X157724737Y-91121152D01*
X158043492Y-90961385D01*
X158353455Y-90170663D01*
X158338787Y-89403097D01*
X167784265Y-89403097D01*
X167800493Y-90252246D01*
X168094228Y-90961385D01*
X168412983Y-91121152D01*
X169747255Y-89786880D01*
X170106465Y-89786880D01*
X171440737Y-91121152D01*
X171759492Y-90961385D01*
X172069455Y-90170663D01*
X172053227Y-89321514D01*
X171759492Y-88612375D01*
X171440737Y-88452608D01*
X170106465Y-89786880D01*
X169747255Y-89786880D01*
X168412983Y-88452608D01*
X168094228Y-88612375D01*
X167784265Y-89403097D01*
X158338787Y-89403097D01*
X158337227Y-89321514D01*
X158043492Y-88612375D01*
X157724737Y-88452608D01*
X156390465Y-89786880D01*
X156031255Y-89786880D01*
X154696983Y-88452608D01*
X154378228Y-88612375D01*
X154068265Y-89403097D01*
X135880286Y-89403097D01*
X135972927Y-89152532D01*
X135000000Y-88179605D01*
X134027073Y-89152532D01*
X129409000Y-89152532D01*
X129409000Y-87735461D01*
X133354092Y-87735461D01*
X133378144Y-88385460D01*
X133580613Y-88874264D01*
X133847468Y-88972927D01*
X134820395Y-88000000D01*
X135179605Y-88000000D01*
X136152532Y-88972927D01*
X136419387Y-88874264D01*
X136645908Y-88264539D01*
X136645844Y-88262798D01*
X138672771Y-88262798D01*
X138874369Y-88750703D01*
X139247334Y-89124319D01*
X139734885Y-89326769D01*
X140262798Y-89327229D01*
X140750703Y-89125631D01*
X141124319Y-88752666D01*
X141326769Y-88265115D01*
X141326771Y-88262798D01*
X143672771Y-88262798D01*
X143874369Y-88750703D01*
X144247334Y-89124319D01*
X144734885Y-89326769D01*
X145262798Y-89327229D01*
X145750703Y-89125631D01*
X146124319Y-88752666D01*
X146326769Y-88265115D01*
X146326771Y-88262798D01*
X148672771Y-88262798D01*
X148874369Y-88750703D01*
X149247334Y-89124319D01*
X149734885Y-89326769D01*
X150262798Y-89327229D01*
X150750703Y-89125631D01*
X151124319Y-88752666D01*
X151323493Y-88273003D01*
X154876588Y-88273003D01*
X156210860Y-89607275D01*
X157545132Y-88273003D01*
X157385365Y-87954248D01*
X156594643Y-87644285D01*
X155745494Y-87660513D01*
X155036355Y-87954248D01*
X154876588Y-88273003D01*
X151323493Y-88273003D01*
X151326769Y-88265115D01*
X151327229Y-87737202D01*
X151160333Y-87333282D01*
X158689103Y-87333282D01*
X158852808Y-87729477D01*
X159155669Y-88032867D01*
X159551578Y-88197263D01*
X159980262Y-88197637D01*
X160376457Y-88033932D01*
X160679847Y-87731071D01*
X160844243Y-87335162D01*
X160844244Y-87333282D01*
X161229103Y-87333282D01*
X161392808Y-87729477D01*
X161695669Y-88032867D01*
X162091578Y-88197263D01*
X162520262Y-88197637D01*
X162916457Y-88033932D01*
X163219847Y-87731071D01*
X163322910Y-87482867D01*
X163424808Y-87729477D01*
X163727669Y-88032867D01*
X164123578Y-88197263D01*
X164552262Y-88197637D01*
X164808382Y-88091810D01*
X166086535Y-88091810D01*
X166154595Y-88332811D01*
X166673894Y-88517647D01*
X167224398Y-88489685D01*
X167603125Y-88332811D01*
X167620015Y-88273003D01*
X168592588Y-88273003D01*
X169926860Y-89607275D01*
X171261132Y-88273003D01*
X171101365Y-87954248D01*
X170310643Y-87644285D01*
X169461494Y-87660513D01*
X168752355Y-87954248D01*
X168592588Y-88273003D01*
X167620015Y-88273003D01*
X167671185Y-88091810D01*
X166878860Y-87299485D01*
X166086535Y-88091810D01*
X164808382Y-88091810D01*
X164948457Y-88033932D01*
X165251847Y-87731071D01*
X165416243Y-87335162D01*
X165416609Y-86914914D01*
X165481093Y-86914914D01*
X165509055Y-87465418D01*
X165665929Y-87844145D01*
X165906930Y-87912205D01*
X166699255Y-87119880D01*
X167058465Y-87119880D01*
X167850790Y-87912205D01*
X168091791Y-87844145D01*
X168276627Y-87324846D01*
X168248665Y-86774342D01*
X168091791Y-86395615D01*
X167850790Y-86327555D01*
X167058465Y-87119880D01*
X166699255Y-87119880D01*
X165906930Y-86327555D01*
X165665929Y-86395615D01*
X165481093Y-86914914D01*
X165416609Y-86914914D01*
X165416617Y-86906478D01*
X165252912Y-86510283D01*
X164950051Y-86206893D01*
X164808101Y-86147950D01*
X166086535Y-86147950D01*
X166878860Y-86940275D01*
X167671185Y-86147950D01*
X167603125Y-85906949D01*
X167083826Y-85722113D01*
X166533322Y-85750075D01*
X166154595Y-85906949D01*
X166086535Y-86147950D01*
X164808101Y-86147950D01*
X164554142Y-86042497D01*
X164125458Y-86042123D01*
X163729263Y-86205828D01*
X163425873Y-86508689D01*
X163322810Y-86756893D01*
X163220912Y-86510283D01*
X162918051Y-86206893D01*
X162522142Y-86042497D01*
X162093458Y-86042123D01*
X161697263Y-86205828D01*
X161393873Y-86508689D01*
X161229477Y-86904598D01*
X161229103Y-87333282D01*
X160844244Y-87333282D01*
X160844617Y-86906478D01*
X160680912Y-86510283D01*
X160378051Y-86206893D01*
X159982142Y-86042497D01*
X159553458Y-86042123D01*
X159157263Y-86205828D01*
X158853873Y-86508689D01*
X158689477Y-86904598D01*
X158689103Y-87333282D01*
X151160333Y-87333282D01*
X151125631Y-87249297D01*
X150752666Y-86875681D01*
X150265115Y-86673231D01*
X149737202Y-86672771D01*
X149249297Y-86874369D01*
X148875681Y-87247334D01*
X148673231Y-87734885D01*
X148672771Y-88262798D01*
X146326771Y-88262798D01*
X146327229Y-87737202D01*
X146125631Y-87249297D01*
X145752666Y-86875681D01*
X145265115Y-86673231D01*
X144737202Y-86672771D01*
X144249297Y-86874369D01*
X143875681Y-87247334D01*
X143673231Y-87734885D01*
X143672771Y-88262798D01*
X141326771Y-88262798D01*
X141327229Y-87737202D01*
X141125631Y-87249297D01*
X140752666Y-86875681D01*
X140265115Y-86673231D01*
X139737202Y-86672771D01*
X139249297Y-86874369D01*
X138875681Y-87247334D01*
X138673231Y-87734885D01*
X138672771Y-88262798D01*
X136645844Y-88262798D01*
X136621856Y-87614540D01*
X136419387Y-87125736D01*
X136152532Y-87027073D01*
X135179605Y-88000000D01*
X134820395Y-88000000D01*
X133847468Y-87027073D01*
X133580613Y-87125736D01*
X133354092Y-87735461D01*
X129409000Y-87735461D01*
X129409000Y-86847468D01*
X134027073Y-86847468D01*
X135000000Y-87820395D01*
X135972927Y-86847468D01*
X135874264Y-86580613D01*
X135264539Y-86354092D01*
X134614540Y-86378144D01*
X134125736Y-86580613D01*
X134027073Y-86847468D01*
X129409000Y-86847468D01*
X129409000Y-81725131D01*
X129463246Y-81452415D01*
X129596695Y-81252695D01*
X129693517Y-81188000D01*
X172655000Y-81188000D01*
X172655000Y-96188000D01*
X172662244Y-96224419D01*
X172662244Y-96261549D01*
X172738363Y-96644227D01*
X172738363Y-96644232D01*
X172755522Y-96685657D01*
X172794655Y-96780133D01*
X172794658Y-96780136D01*
X173011429Y-97104557D01*
X173115443Y-97208571D01*
X173439864Y-97425342D01*
X173439867Y-97425345D01*
X173575768Y-97481636D01*
X173958449Y-97557756D01*
X174105551Y-97557756D01*
X174488227Y-97481637D01*
X174488232Y-97481637D01*
X174556182Y-97453491D01*
X174624133Y-97425345D01*
X174624136Y-97425342D01*
X174948557Y-97208571D01*
X175052571Y-97104557D01*
X175269342Y-96780136D01*
X175269345Y-96780133D01*
X175325636Y-96644232D01*
X175401756Y-96261549D01*
X175401756Y-96224419D01*
X175409000Y-96188000D01*
X175409000Y-86899750D01*
X175657000Y-86899750D01*
X175657000Y-88040310D01*
X175753673Y-88273699D01*
X175932302Y-88452327D01*
X176165691Y-88549000D01*
X177006250Y-88549000D01*
X177165000Y-88390250D01*
X177165000Y-86741000D01*
X175815750Y-86741000D01*
X175657000Y-86899750D01*
X175409000Y-86899750D01*
X175409000Y-85187690D01*
X175657000Y-85187690D01*
X175657000Y-86328250D01*
X175815750Y-86487000D01*
X177165000Y-86487000D01*
X177165000Y-84837750D01*
X177419000Y-84837750D01*
X177419000Y-86487000D01*
X177439000Y-86487000D01*
X177439000Y-86741000D01*
X177419000Y-86741000D01*
X177419000Y-88390250D01*
X177577750Y-88549000D01*
X178418309Y-88549000D01*
X178651698Y-88452327D01*
X178830327Y-88273699D01*
X178927000Y-88040310D01*
X178927000Y-87906477D01*
X179324179Y-88171863D01*
X179832000Y-88272875D01*
X180339821Y-88171863D01*
X180770331Y-87884206D01*
X181057988Y-87453696D01*
X181102000Y-87232433D01*
X181146012Y-87453696D01*
X181433669Y-87884206D01*
X181864179Y-88171863D01*
X182372000Y-88272875D01*
X182879821Y-88171863D01*
X183310331Y-87884206D01*
X183597988Y-87453696D01*
X183699000Y-86945875D01*
X183699000Y-86899750D01*
X184801000Y-86899750D01*
X184801000Y-88040310D01*
X184897673Y-88273699D01*
X185076302Y-88452327D01*
X185309691Y-88549000D01*
X186150250Y-88549000D01*
X186309000Y-88390250D01*
X186309000Y-86741000D01*
X184959750Y-86741000D01*
X184801000Y-86899750D01*
X183699000Y-86899750D01*
X183699000Y-86282125D01*
X183597988Y-85774304D01*
X183310331Y-85343794D01*
X183076705Y-85187690D01*
X184801000Y-85187690D01*
X184801000Y-86328250D01*
X184959750Y-86487000D01*
X186309000Y-86487000D01*
X186309000Y-84837750D01*
X186563000Y-84837750D01*
X186563000Y-86487000D01*
X186583000Y-86487000D01*
X186583000Y-86741000D01*
X186563000Y-86741000D01*
X186563000Y-88390250D01*
X186721750Y-88549000D01*
X187562309Y-88549000D01*
X187795698Y-88452327D01*
X187974327Y-88273699D01*
X188071000Y-88040310D01*
X188071000Y-87906477D01*
X188468179Y-88171863D01*
X188976000Y-88272875D01*
X189483821Y-88171863D01*
X189914331Y-87884206D01*
X190201988Y-87453696D01*
X190246000Y-87232433D01*
X190290012Y-87453696D01*
X190577669Y-87884206D01*
X191008179Y-88171863D01*
X191516000Y-88272875D01*
X192023821Y-88171863D01*
X192454331Y-87884206D01*
X192741988Y-87453696D01*
X192843000Y-86945875D01*
X192843000Y-86282125D01*
X192741988Y-85774304D01*
X192454331Y-85343794D01*
X192023821Y-85056137D01*
X191516000Y-84955125D01*
X191008179Y-85056137D01*
X190577669Y-85343794D01*
X190290012Y-85774304D01*
X190246000Y-85995567D01*
X190201988Y-85774304D01*
X189914331Y-85343794D01*
X189483821Y-85056137D01*
X188976000Y-84955125D01*
X188468179Y-85056137D01*
X188071000Y-85321523D01*
X188071000Y-85187690D01*
X187974327Y-84954301D01*
X187795698Y-84775673D01*
X187562309Y-84679000D01*
X186721750Y-84679000D01*
X186563000Y-84837750D01*
X186309000Y-84837750D01*
X186150250Y-84679000D01*
X185309691Y-84679000D01*
X185076302Y-84775673D01*
X184897673Y-84954301D01*
X184801000Y-85187690D01*
X183076705Y-85187690D01*
X182879821Y-85056137D01*
X182372000Y-84955125D01*
X181864179Y-85056137D01*
X181433669Y-85343794D01*
X181146012Y-85774304D01*
X181102000Y-85995567D01*
X181057988Y-85774304D01*
X180770331Y-85343794D01*
X180339821Y-85056137D01*
X179832000Y-84955125D01*
X179324179Y-85056137D01*
X178927000Y-85321523D01*
X178927000Y-85187690D01*
X178830327Y-84954301D01*
X178651698Y-84775673D01*
X178418309Y-84679000D01*
X177577750Y-84679000D01*
X177419000Y-84837750D01*
X177165000Y-84837750D01*
X177006250Y-84679000D01*
X176165691Y-84679000D01*
X175932302Y-84775673D01*
X175753673Y-84954301D01*
X175657000Y-85187690D01*
X175409000Y-85187690D01*
X175409000Y-81188000D01*
X175401756Y-81151581D01*
X175401756Y-81114451D01*
X175325636Y-80731768D01*
X175269345Y-80595867D01*
X175269342Y-80595864D01*
X175052571Y-80271443D01*
X174948557Y-80167429D01*
X174624136Y-79950658D01*
X174624133Y-79950655D01*
X174556183Y-79922510D01*
X174488232Y-79894363D01*
X174488227Y-79894363D01*
X174105551Y-79818244D01*
X173958449Y-79818244D01*
X173575768Y-79894364D01*
X173439867Y-79950655D01*
X173439864Y-79950658D01*
X173115443Y-80167429D01*
X173011429Y-80271443D01*
X172794658Y-80595864D01*
X172794655Y-80595867D01*
X172766510Y-80663817D01*
X172738363Y-80731768D01*
X172738363Y-80731773D01*
X172662244Y-81114451D01*
X172662244Y-81151581D01*
X172655000Y-81188000D01*
X129693517Y-81188000D01*
X129796415Y-81119246D01*
X130069131Y-81065000D01*
X133032000Y-81065000D01*
X133068419Y-81057756D01*
X133105549Y-81057756D01*
X133488227Y-80981637D01*
X133488232Y-80981637D01*
X133556183Y-80953490D01*
X133624133Y-80925345D01*
X133624136Y-80925342D01*
X133948557Y-80708571D01*
X134052571Y-80604557D01*
X134269342Y-80280136D01*
X134269345Y-80280133D01*
X134325636Y-80144232D01*
X134401756Y-79761549D01*
X134401756Y-79724419D01*
X134409000Y-79688000D01*
X134409000Y-77498308D01*
X136666727Y-77498308D01*
X136906305Y-78078132D01*
X137349535Y-78522136D01*
X137928939Y-78762725D01*
X138556308Y-78763273D01*
X139136132Y-78523695D01*
X139580136Y-78080465D01*
X139820725Y-77501061D01*
X139820727Y-77498308D01*
X140866727Y-77498308D01*
X141106305Y-78078132D01*
X141549535Y-78522136D01*
X142128939Y-78762725D01*
X142756308Y-78763273D01*
X143336132Y-78523695D01*
X143340514Y-78519320D01*
X145490285Y-78519320D01*
X145619533Y-78812123D01*
X146319806Y-79080388D01*
X147069435Y-79060250D01*
X147668467Y-78812123D01*
X147797715Y-78519320D01*
X146644000Y-77365605D01*
X145490285Y-78519320D01*
X143340514Y-78519320D01*
X143780136Y-78080465D01*
X144020725Y-77501061D01*
X144021273Y-76873692D01*
X144016362Y-76861806D01*
X144749612Y-76861806D01*
X144769750Y-77611435D01*
X145017877Y-78210467D01*
X145310680Y-78339715D01*
X146464395Y-77186000D01*
X146823605Y-77186000D01*
X147977320Y-78339715D01*
X148270123Y-78210467D01*
X148538388Y-77510194D01*
X148538069Y-77498308D01*
X149266727Y-77498308D01*
X149506305Y-78078132D01*
X149949535Y-78522136D01*
X150528939Y-78762725D01*
X151156308Y-78763273D01*
X151736132Y-78523695D01*
X151740514Y-78519320D01*
X153890285Y-78519320D01*
X154019533Y-78812123D01*
X154719806Y-79080388D01*
X155469435Y-79060250D01*
X156068467Y-78812123D01*
X156197715Y-78519320D01*
X158090285Y-78519320D01*
X158219533Y-78812123D01*
X158919806Y-79080388D01*
X159669435Y-79060250D01*
X160268467Y-78812123D01*
X160397715Y-78519320D01*
X162290285Y-78519320D01*
X162419533Y-78812123D01*
X163119806Y-79080388D01*
X163869435Y-79060250D01*
X164468467Y-78812123D01*
X164597715Y-78519320D01*
X163444000Y-77365605D01*
X162290285Y-78519320D01*
X160397715Y-78519320D01*
X159244000Y-77365605D01*
X158090285Y-78519320D01*
X156197715Y-78519320D01*
X155044000Y-77365605D01*
X153890285Y-78519320D01*
X151740514Y-78519320D01*
X152180136Y-78080465D01*
X152420725Y-77501061D01*
X152421273Y-76873692D01*
X152416362Y-76861806D01*
X153149612Y-76861806D01*
X153169750Y-77611435D01*
X153417877Y-78210467D01*
X153710680Y-78339715D01*
X154864395Y-77186000D01*
X155223605Y-77186000D01*
X156377320Y-78339715D01*
X156670123Y-78210467D01*
X156938388Y-77510194D01*
X156920970Y-76861806D01*
X157349612Y-76861806D01*
X157369750Y-77611435D01*
X157617877Y-78210467D01*
X157910680Y-78339715D01*
X159064395Y-77186000D01*
X159423605Y-77186000D01*
X160577320Y-78339715D01*
X160870123Y-78210467D01*
X161138388Y-77510194D01*
X161120970Y-76861806D01*
X161549612Y-76861806D01*
X161569750Y-77611435D01*
X161817877Y-78210467D01*
X162110680Y-78339715D01*
X163264395Y-77186000D01*
X163623605Y-77186000D01*
X164777320Y-78339715D01*
X165070123Y-78210467D01*
X165338388Y-77510194D01*
X165338069Y-77498308D01*
X166066727Y-77498308D01*
X166306305Y-78078132D01*
X166749535Y-78522136D01*
X167328939Y-78762725D01*
X167956308Y-78763273D01*
X168536132Y-78523695D01*
X168980136Y-78080465D01*
X169220725Y-77501061D01*
X169220727Y-77498308D01*
X170266727Y-77498308D01*
X170506305Y-78078132D01*
X170949535Y-78522136D01*
X171528939Y-78762725D01*
X172156308Y-78763273D01*
X172736132Y-78523695D01*
X173180136Y-78080465D01*
X173420725Y-77501061D01*
X173420727Y-77498308D01*
X174466727Y-77498308D01*
X174706305Y-78078132D01*
X175149535Y-78522136D01*
X175728939Y-78762725D01*
X176356308Y-78763273D01*
X176936132Y-78523695D01*
X177380136Y-78080465D01*
X177620725Y-77501061D01*
X177620727Y-77498308D01*
X178666727Y-77498308D01*
X178906305Y-78078132D01*
X179349535Y-78522136D01*
X179928939Y-78762725D01*
X180556308Y-78763273D01*
X181136132Y-78523695D01*
X181140514Y-78519320D01*
X183290285Y-78519320D01*
X183419533Y-78812123D01*
X184119806Y-79080388D01*
X184869435Y-79060250D01*
X185468467Y-78812123D01*
X185597715Y-78519320D01*
X184444000Y-77365605D01*
X183290285Y-78519320D01*
X181140514Y-78519320D01*
X181580136Y-78080465D01*
X181820725Y-77501061D01*
X181821273Y-76873692D01*
X181816362Y-76861806D01*
X182549612Y-76861806D01*
X182569750Y-77611435D01*
X182817877Y-78210467D01*
X183110680Y-78339715D01*
X184264395Y-77186000D01*
X184623605Y-77186000D01*
X185777320Y-78339715D01*
X186070123Y-78210467D01*
X186338388Y-77510194D01*
X186318250Y-76760565D01*
X186070123Y-76161533D01*
X185777320Y-76032285D01*
X184623605Y-77186000D01*
X184264395Y-77186000D01*
X183110680Y-76032285D01*
X182817877Y-76161533D01*
X182549612Y-76861806D01*
X181816362Y-76861806D01*
X181581695Y-76293868D01*
X181141277Y-75852680D01*
X183290285Y-75852680D01*
X184444000Y-77006395D01*
X185597715Y-75852680D01*
X185468467Y-75559877D01*
X184768194Y-75291612D01*
X184018565Y-75311750D01*
X183419533Y-75559877D01*
X183290285Y-75852680D01*
X181141277Y-75852680D01*
X181138465Y-75849864D01*
X180559061Y-75609275D01*
X179931692Y-75608727D01*
X179351868Y-75848305D01*
X178907864Y-76291535D01*
X178667275Y-76870939D01*
X178666727Y-77498308D01*
X177620727Y-77498308D01*
X177621273Y-76873692D01*
X177381695Y-76293868D01*
X176938465Y-75849864D01*
X176359061Y-75609275D01*
X175731692Y-75608727D01*
X175151868Y-75848305D01*
X174707864Y-76291535D01*
X174467275Y-76870939D01*
X174466727Y-77498308D01*
X173420727Y-77498308D01*
X173421273Y-76873692D01*
X173181695Y-76293868D01*
X172738465Y-75849864D01*
X172159061Y-75609275D01*
X171531692Y-75608727D01*
X170951868Y-75848305D01*
X170507864Y-76291535D01*
X170267275Y-76870939D01*
X170266727Y-77498308D01*
X169220727Y-77498308D01*
X169221273Y-76873692D01*
X168981695Y-76293868D01*
X168538465Y-75849864D01*
X167959061Y-75609275D01*
X167331692Y-75608727D01*
X166751868Y-75848305D01*
X166307864Y-76291535D01*
X166067275Y-76870939D01*
X166066727Y-77498308D01*
X165338069Y-77498308D01*
X165318250Y-76760565D01*
X165070123Y-76161533D01*
X164777320Y-76032285D01*
X163623605Y-77186000D01*
X163264395Y-77186000D01*
X162110680Y-76032285D01*
X161817877Y-76161533D01*
X161549612Y-76861806D01*
X161120970Y-76861806D01*
X161118250Y-76760565D01*
X160870123Y-76161533D01*
X160577320Y-76032285D01*
X159423605Y-77186000D01*
X159064395Y-77186000D01*
X157910680Y-76032285D01*
X157617877Y-76161533D01*
X157349612Y-76861806D01*
X156920970Y-76861806D01*
X156918250Y-76760565D01*
X156670123Y-76161533D01*
X156377320Y-76032285D01*
X155223605Y-77186000D01*
X154864395Y-77186000D01*
X153710680Y-76032285D01*
X153417877Y-76161533D01*
X153149612Y-76861806D01*
X152416362Y-76861806D01*
X152181695Y-76293868D01*
X151741277Y-75852680D01*
X153890285Y-75852680D01*
X155044000Y-77006395D01*
X156197715Y-75852680D01*
X158090285Y-75852680D01*
X159244000Y-77006395D01*
X160397715Y-75852680D01*
X162290285Y-75852680D01*
X163444000Y-77006395D01*
X164597715Y-75852680D01*
X164468467Y-75559877D01*
X163768194Y-75291612D01*
X163018565Y-75311750D01*
X162419533Y-75559877D01*
X162290285Y-75852680D01*
X160397715Y-75852680D01*
X160268467Y-75559877D01*
X159568194Y-75291612D01*
X158818565Y-75311750D01*
X158219533Y-75559877D01*
X158090285Y-75852680D01*
X156197715Y-75852680D01*
X156068467Y-75559877D01*
X155368194Y-75291612D01*
X154618565Y-75311750D01*
X154019533Y-75559877D01*
X153890285Y-75852680D01*
X151741277Y-75852680D01*
X151738465Y-75849864D01*
X151159061Y-75609275D01*
X150531692Y-75608727D01*
X149951868Y-75848305D01*
X149507864Y-76291535D01*
X149267275Y-76870939D01*
X149266727Y-77498308D01*
X148538069Y-77498308D01*
X148518250Y-76760565D01*
X148270123Y-76161533D01*
X147977320Y-76032285D01*
X146823605Y-77186000D01*
X146464395Y-77186000D01*
X145310680Y-76032285D01*
X145017877Y-76161533D01*
X144749612Y-76861806D01*
X144016362Y-76861806D01*
X143781695Y-76293868D01*
X143341277Y-75852680D01*
X145490285Y-75852680D01*
X146644000Y-77006395D01*
X147797715Y-75852680D01*
X147668467Y-75559877D01*
X146968194Y-75291612D01*
X146218565Y-75311750D01*
X145619533Y-75559877D01*
X145490285Y-75852680D01*
X143341277Y-75852680D01*
X143338465Y-75849864D01*
X142759061Y-75609275D01*
X142131692Y-75608727D01*
X141551868Y-75848305D01*
X141107864Y-76291535D01*
X140867275Y-76870939D01*
X140866727Y-77498308D01*
X139820727Y-77498308D01*
X139821273Y-76873692D01*
X139581695Y-76293868D01*
X139138465Y-75849864D01*
X138559061Y-75609275D01*
X137931692Y-75608727D01*
X137351868Y-75848305D01*
X136907864Y-76291535D01*
X136667275Y-76870939D01*
X136666727Y-77498308D01*
X134409000Y-77498308D01*
X134409000Y-70136000D01*
X136660594Y-70136000D01*
X136660594Y-72636000D01*
X136683395Y-72757179D01*
X136755012Y-72868474D01*
X136864286Y-72943138D01*
X136994000Y-72969406D01*
X139494000Y-72969406D01*
X139615179Y-72946605D01*
X139726474Y-72874988D01*
X139801138Y-72765714D01*
X139827406Y-72636000D01*
X139827406Y-71698308D01*
X140866727Y-71698308D01*
X141106305Y-72278132D01*
X141549535Y-72722136D01*
X142128939Y-72962725D01*
X142756308Y-72963273D01*
X143336132Y-72723695D01*
X143340514Y-72719320D01*
X145490285Y-72719320D01*
X145619533Y-73012123D01*
X146319806Y-73280388D01*
X147069435Y-73260250D01*
X147668467Y-73012123D01*
X147797715Y-72719320D01*
X146644000Y-71565605D01*
X145490285Y-72719320D01*
X143340514Y-72719320D01*
X143780136Y-72280465D01*
X144020725Y-71701061D01*
X144021273Y-71073692D01*
X144016362Y-71061806D01*
X144749612Y-71061806D01*
X144769750Y-71811435D01*
X145017877Y-72410467D01*
X145310680Y-72539715D01*
X146464395Y-71386000D01*
X146823605Y-71386000D01*
X147977320Y-72539715D01*
X148270123Y-72410467D01*
X148538388Y-71710194D01*
X148538069Y-71698308D01*
X149266727Y-71698308D01*
X149506305Y-72278132D01*
X149949535Y-72722136D01*
X150528939Y-72962725D01*
X151156308Y-72963273D01*
X151736132Y-72723695D01*
X151740514Y-72719320D01*
X153890285Y-72719320D01*
X154019533Y-73012123D01*
X154719806Y-73280388D01*
X155469435Y-73260250D01*
X156068467Y-73012123D01*
X156197715Y-72719320D01*
X155044000Y-71565605D01*
X153890285Y-72719320D01*
X151740514Y-72719320D01*
X152180136Y-72280465D01*
X152420725Y-71701061D01*
X152421273Y-71073692D01*
X152416362Y-71061806D01*
X153149612Y-71061806D01*
X153169750Y-71811435D01*
X153417877Y-72410467D01*
X153710680Y-72539715D01*
X154864395Y-71386000D01*
X155223605Y-71386000D01*
X156377320Y-72539715D01*
X156670123Y-72410467D01*
X156938388Y-71710194D01*
X156938069Y-71698308D01*
X157666727Y-71698308D01*
X157906305Y-72278132D01*
X158349535Y-72722136D01*
X158928939Y-72962725D01*
X159556308Y-72963273D01*
X160136132Y-72723695D01*
X160140514Y-72719320D01*
X162290285Y-72719320D01*
X162419533Y-73012123D01*
X163119806Y-73280388D01*
X163869435Y-73260250D01*
X164468467Y-73012123D01*
X164597715Y-72719320D01*
X163444000Y-71565605D01*
X162290285Y-72719320D01*
X160140514Y-72719320D01*
X160580136Y-72280465D01*
X160820725Y-71701061D01*
X160821273Y-71073692D01*
X160816362Y-71061806D01*
X161549612Y-71061806D01*
X161569750Y-71811435D01*
X161817877Y-72410467D01*
X162110680Y-72539715D01*
X163264395Y-71386000D01*
X163623605Y-71386000D01*
X164777320Y-72539715D01*
X165070123Y-72410467D01*
X165338388Y-71710194D01*
X165338069Y-71698308D01*
X166066727Y-71698308D01*
X166306305Y-72278132D01*
X166749535Y-72722136D01*
X167328939Y-72962725D01*
X167956308Y-72963273D01*
X168536132Y-72723695D01*
X168980136Y-72280465D01*
X169220725Y-71701061D01*
X169220727Y-71698308D01*
X170266727Y-71698308D01*
X170506305Y-72278132D01*
X170949535Y-72722136D01*
X171528939Y-72962725D01*
X172156308Y-72963273D01*
X172736132Y-72723695D01*
X173180136Y-72280465D01*
X173420725Y-71701061D01*
X173420727Y-71698308D01*
X174466727Y-71698308D01*
X174706305Y-72278132D01*
X175149535Y-72722136D01*
X175728939Y-72962725D01*
X176356308Y-72963273D01*
X176936132Y-72723695D01*
X177380136Y-72280465D01*
X177620725Y-71701061D01*
X177620727Y-71698308D01*
X178666727Y-71698308D01*
X178906305Y-72278132D01*
X179349535Y-72722136D01*
X179928939Y-72962725D01*
X180556308Y-72963273D01*
X181136132Y-72723695D01*
X181580136Y-72280465D01*
X181820725Y-71701061D01*
X181820727Y-71698308D01*
X182866727Y-71698308D01*
X183106305Y-72278132D01*
X183549535Y-72722136D01*
X184128939Y-72962725D01*
X184756308Y-72963273D01*
X185336132Y-72723695D01*
X185780136Y-72280465D01*
X186020725Y-71701061D01*
X186021273Y-71073692D01*
X185781695Y-70493868D01*
X185338465Y-70049864D01*
X184759061Y-69809275D01*
X184131692Y-69808727D01*
X183551868Y-70048305D01*
X183107864Y-70491535D01*
X182867275Y-71070939D01*
X182866727Y-71698308D01*
X181820727Y-71698308D01*
X181821273Y-71073692D01*
X181581695Y-70493868D01*
X181138465Y-70049864D01*
X180559061Y-69809275D01*
X179931692Y-69808727D01*
X179351868Y-70048305D01*
X178907864Y-70491535D01*
X178667275Y-71070939D01*
X178666727Y-71698308D01*
X177620727Y-71698308D01*
X177621273Y-71073692D01*
X177381695Y-70493868D01*
X176938465Y-70049864D01*
X176359061Y-69809275D01*
X175731692Y-69808727D01*
X175151868Y-70048305D01*
X174707864Y-70491535D01*
X174467275Y-71070939D01*
X174466727Y-71698308D01*
X173420727Y-71698308D01*
X173421273Y-71073692D01*
X173181695Y-70493868D01*
X172738465Y-70049864D01*
X172159061Y-69809275D01*
X171531692Y-69808727D01*
X170951868Y-70048305D01*
X170507864Y-70491535D01*
X170267275Y-71070939D01*
X170266727Y-71698308D01*
X169220727Y-71698308D01*
X169221273Y-71073692D01*
X168981695Y-70493868D01*
X168538465Y-70049864D01*
X167959061Y-69809275D01*
X167331692Y-69808727D01*
X166751868Y-70048305D01*
X166307864Y-70491535D01*
X166067275Y-71070939D01*
X166066727Y-71698308D01*
X165338069Y-71698308D01*
X165318250Y-70960565D01*
X165070123Y-70361533D01*
X164777320Y-70232285D01*
X163623605Y-71386000D01*
X163264395Y-71386000D01*
X162110680Y-70232285D01*
X161817877Y-70361533D01*
X161549612Y-71061806D01*
X160816362Y-71061806D01*
X160581695Y-70493868D01*
X160141277Y-70052680D01*
X162290285Y-70052680D01*
X163444000Y-71206395D01*
X164597715Y-70052680D01*
X164468467Y-69759877D01*
X163768194Y-69491612D01*
X163018565Y-69511750D01*
X162419533Y-69759877D01*
X162290285Y-70052680D01*
X160141277Y-70052680D01*
X160138465Y-70049864D01*
X159559061Y-69809275D01*
X158931692Y-69808727D01*
X158351868Y-70048305D01*
X157907864Y-70491535D01*
X157667275Y-71070939D01*
X157666727Y-71698308D01*
X156938069Y-71698308D01*
X156918250Y-70960565D01*
X156670123Y-70361533D01*
X156377320Y-70232285D01*
X155223605Y-71386000D01*
X154864395Y-71386000D01*
X153710680Y-70232285D01*
X153417877Y-70361533D01*
X153149612Y-71061806D01*
X152416362Y-71061806D01*
X152181695Y-70493868D01*
X151741277Y-70052680D01*
X153890285Y-70052680D01*
X155044000Y-71206395D01*
X156197715Y-70052680D01*
X156068467Y-69759877D01*
X155368194Y-69491612D01*
X154618565Y-69511750D01*
X154019533Y-69759877D01*
X153890285Y-70052680D01*
X151741277Y-70052680D01*
X151738465Y-70049864D01*
X151159061Y-69809275D01*
X150531692Y-69808727D01*
X149951868Y-70048305D01*
X149507864Y-70491535D01*
X149267275Y-71070939D01*
X149266727Y-71698308D01*
X148538069Y-71698308D01*
X148518250Y-70960565D01*
X148270123Y-70361533D01*
X147977320Y-70232285D01*
X146823605Y-71386000D01*
X146464395Y-71386000D01*
X145310680Y-70232285D01*
X145017877Y-70361533D01*
X144749612Y-71061806D01*
X144016362Y-71061806D01*
X143781695Y-70493868D01*
X143341277Y-70052680D01*
X145490285Y-70052680D01*
X146644000Y-71206395D01*
X147797715Y-70052680D01*
X147668467Y-69759877D01*
X146968194Y-69491612D01*
X146218565Y-69511750D01*
X145619533Y-69759877D01*
X145490285Y-70052680D01*
X143341277Y-70052680D01*
X143338465Y-70049864D01*
X142759061Y-69809275D01*
X142131692Y-69808727D01*
X141551868Y-70048305D01*
X141107864Y-70491535D01*
X140867275Y-71070939D01*
X140866727Y-71698308D01*
X139827406Y-71698308D01*
X139827406Y-70136000D01*
X139804605Y-70014821D01*
X139732988Y-69903526D01*
X139623714Y-69828862D01*
X139494000Y-69802594D01*
X136994000Y-69802594D01*
X136872821Y-69825395D01*
X136761526Y-69897012D01*
X136686862Y-70006286D01*
X136660594Y-70136000D01*
X134409000Y-70136000D01*
X134409000Y-67438946D01*
X160954017Y-67438946D01*
X161222812Y-68024379D01*
X161695182Y-68462385D01*
X162177056Y-68661975D01*
X162433000Y-68542836D01*
X162433000Y-67183000D01*
X161072633Y-67183000D01*
X160954017Y-67438946D01*
X134409000Y-67438946D01*
X134409000Y-66673054D01*
X160954017Y-66673054D01*
X161072633Y-66929000D01*
X162433000Y-66929000D01*
X162433000Y-65569164D01*
X162687000Y-65569164D01*
X162687000Y-66929000D01*
X162707000Y-66929000D01*
X162707000Y-67183000D01*
X162687000Y-67183000D01*
X162687000Y-68542836D01*
X162942944Y-68661975D01*
X163424818Y-68462385D01*
X163764742Y-68147190D01*
X163773395Y-68193179D01*
X163845012Y-68304474D01*
X163954286Y-68379138D01*
X164084000Y-68405406D01*
X166116000Y-68405406D01*
X166237179Y-68382605D01*
X166348474Y-68310988D01*
X166423138Y-68201714D01*
X166449406Y-68072000D01*
X166449406Y-66040000D01*
X166431646Y-65945609D01*
X189092517Y-65945609D01*
X189221725Y-66238379D01*
X189921883Y-66506591D01*
X190671384Y-66486448D01*
X191270275Y-66238379D01*
X191399483Y-65945609D01*
X190246000Y-64792125D01*
X189092517Y-65945609D01*
X166431646Y-65945609D01*
X166426605Y-65918821D01*
X166354988Y-65807526D01*
X166245714Y-65732862D01*
X166116000Y-65706594D01*
X164084000Y-65706594D01*
X163962821Y-65729395D01*
X163851526Y-65801012D01*
X163776862Y-65910286D01*
X163765650Y-65965652D01*
X163424818Y-65649615D01*
X162942944Y-65450025D01*
X162687000Y-65569164D01*
X162433000Y-65569164D01*
X162177056Y-65450025D01*
X161695182Y-65649615D01*
X161222812Y-66087621D01*
X160954017Y-66673054D01*
X134409000Y-66673054D01*
X134409000Y-64897000D01*
X140393420Y-64897000D01*
X140393420Y-65197990D01*
X140524580Y-65603373D01*
X140800889Y-65927706D01*
X141184065Y-66114981D01*
X141351000Y-65988068D01*
X141351000Y-64897000D01*
X140393420Y-64897000D01*
X134409000Y-64897000D01*
X134409000Y-64688000D01*
X134401756Y-64651581D01*
X134401756Y-64614451D01*
X134347565Y-64342010D01*
X140393420Y-64342010D01*
X140393420Y-64643000D01*
X141351000Y-64643000D01*
X141351000Y-63551932D01*
X141605000Y-63551932D01*
X141605000Y-64643000D01*
X141625000Y-64643000D01*
X141625000Y-64897000D01*
X141605000Y-64897000D01*
X141605000Y-65988068D01*
X141771935Y-66114981D01*
X142155111Y-65927706D01*
X142326514Y-65726512D01*
X142450816Y-65809567D01*
X142748000Y-65868681D01*
X143045184Y-65809567D01*
X143297125Y-65641226D01*
X143383000Y-65512705D01*
X143468875Y-65641226D01*
X143720816Y-65809567D01*
X144018000Y-65868681D01*
X144315184Y-65809567D01*
X144567125Y-65641226D01*
X144735466Y-65389285D01*
X144794580Y-65092101D01*
X144794580Y-65032697D01*
X146247281Y-65032697D01*
X146448801Y-65520414D01*
X146821623Y-65893887D01*
X147308987Y-66096259D01*
X147836697Y-66096719D01*
X148324414Y-65895199D01*
X148697887Y-65522377D01*
X148900259Y-65035013D01*
X148900261Y-65032697D01*
X153867281Y-65032697D01*
X154068801Y-65520414D01*
X154441623Y-65893887D01*
X154928987Y-66096259D01*
X155456697Y-66096719D01*
X155944414Y-65895199D01*
X156317887Y-65522377D01*
X156520259Y-65035013D01*
X156520719Y-64507303D01*
X156319199Y-64019586D01*
X155946377Y-63646113D01*
X155459013Y-63443741D01*
X154931303Y-63443281D01*
X154443586Y-63644801D01*
X154070113Y-64017623D01*
X153867741Y-64504987D01*
X153867281Y-65032697D01*
X148900261Y-65032697D01*
X148900719Y-64507303D01*
X148699199Y-64019586D01*
X148326377Y-63646113D01*
X147839013Y-63443741D01*
X147311303Y-63443281D01*
X146823586Y-63644801D01*
X146450113Y-64017623D01*
X146247741Y-64504987D01*
X146247281Y-65032697D01*
X144794580Y-65032697D01*
X144794580Y-64447899D01*
X144735466Y-64150715D01*
X144567125Y-63898774D01*
X144315184Y-63730433D01*
X144018000Y-63671319D01*
X143720816Y-63730433D01*
X143468875Y-63898774D01*
X143383000Y-64027295D01*
X143297125Y-63898774D01*
X143045184Y-63730433D01*
X142748000Y-63671319D01*
X142450816Y-63730433D01*
X142326514Y-63813488D01*
X142155111Y-63612294D01*
X141771935Y-63425019D01*
X141605000Y-63551932D01*
X141351000Y-63551932D01*
X141184065Y-63425019D01*
X140800889Y-63612294D01*
X140524580Y-63936627D01*
X140393420Y-64342010D01*
X134347565Y-64342010D01*
X134325636Y-64231768D01*
X134269345Y-64095867D01*
X134269342Y-64095864D01*
X134052571Y-63771443D01*
X133948557Y-63667429D01*
X133624136Y-63450658D01*
X133624133Y-63450655D01*
X133553555Y-63421421D01*
X133488232Y-63394363D01*
X133488227Y-63394363D01*
X133120858Y-63321289D01*
X158829400Y-63321289D01*
X158829400Y-63678711D01*
X158920029Y-64134334D01*
X159178119Y-64520592D01*
X159564377Y-64778682D01*
X160020000Y-64869311D01*
X160475623Y-64778682D01*
X160861881Y-64520592D01*
X161119971Y-64134334D01*
X161210600Y-63678711D01*
X161210600Y-63321289D01*
X161119971Y-62865666D01*
X160861881Y-62479408D01*
X160475623Y-62221318D01*
X160020000Y-62130689D01*
X159564377Y-62221318D01*
X159178119Y-62479408D01*
X158920029Y-62865666D01*
X158829400Y-63321289D01*
X133120858Y-63321289D01*
X133105549Y-63318244D01*
X133068419Y-63318244D01*
X133032000Y-63311000D01*
X130069131Y-63311000D01*
X129796415Y-63256754D01*
X129596695Y-63123305D01*
X129463246Y-62923585D01*
X129409000Y-62650869D01*
X129409000Y-57689750D01*
X142265400Y-57689750D01*
X142265400Y-58393910D01*
X142362073Y-58627299D01*
X142540702Y-58805927D01*
X142774091Y-58902600D01*
X143478250Y-58902600D01*
X143637000Y-58743850D01*
X143637000Y-57531000D01*
X142424150Y-57531000D01*
X142265400Y-57689750D01*
X129409000Y-57689750D01*
X129409000Y-56414090D01*
X142265400Y-56414090D01*
X142265400Y-57118250D01*
X142424150Y-57277000D01*
X143637000Y-57277000D01*
X143637000Y-57257000D01*
X143891000Y-57257000D01*
X143891000Y-57277000D01*
X143911000Y-57277000D01*
X143911000Y-57531000D01*
X143891000Y-57531000D01*
X143891000Y-58743850D01*
X144049750Y-58902600D01*
X144753909Y-58902600D01*
X144987298Y-58805927D01*
X145165927Y-58627299D01*
X145262600Y-58393910D01*
X145262600Y-57982189D01*
X145438794Y-58245881D01*
X145825052Y-58503971D01*
X146280675Y-58594600D01*
X146327325Y-58594600D01*
X146782948Y-58503971D01*
X147169206Y-58245881D01*
X147427296Y-57859623D01*
X147427866Y-57856760D01*
X147561312Y-58178947D01*
X147955510Y-58610821D01*
X148484973Y-58858968D01*
X148717000Y-58738469D01*
X148717000Y-57531000D01*
X148697000Y-57531000D01*
X148697000Y-57277000D01*
X148717000Y-57277000D01*
X148717000Y-57257000D01*
X148971000Y-57257000D01*
X148971000Y-57277000D01*
X148991000Y-57277000D01*
X148991000Y-57531000D01*
X148971000Y-57531000D01*
X148971000Y-58738469D01*
X149203027Y-58858968D01*
X149732490Y-58610821D01*
X150126688Y-58178947D01*
X150260134Y-57856760D01*
X150260704Y-57859623D01*
X150518794Y-58245881D01*
X150905052Y-58503971D01*
X151360675Y-58594600D01*
X151407325Y-58594600D01*
X151862948Y-58503971D01*
X152221563Y-58264351D01*
X152236406Y-58338973D01*
X152334388Y-58485612D01*
X153350388Y-59501612D01*
X153497027Y-59599594D01*
X153670000Y-59634000D01*
X161102776Y-59634000D01*
X162108000Y-60639224D01*
X162108000Y-62220597D01*
X162104377Y-62221318D01*
X161718119Y-62479408D01*
X161460029Y-62865666D01*
X161369400Y-63321289D01*
X161369400Y-63678711D01*
X161460029Y-64134334D01*
X161718119Y-64520592D01*
X162104377Y-64778682D01*
X162560000Y-64869311D01*
X163015623Y-64778682D01*
X163401881Y-64520592D01*
X163659971Y-64134334D01*
X163750600Y-63678711D01*
X163750600Y-63321289D01*
X163659971Y-62865666D01*
X163404950Y-62484000D01*
X163902994Y-62484000D01*
X163902994Y-64516000D01*
X163925795Y-64637179D01*
X163997412Y-64748474D01*
X164106686Y-64823138D01*
X164236400Y-64849406D01*
X165963600Y-64849406D01*
X166084779Y-64826605D01*
X166196074Y-64754988D01*
X166270738Y-64645714D01*
X166297006Y-64516000D01*
X166297006Y-64288403D01*
X188351929Y-64288403D01*
X188372072Y-65037904D01*
X188620141Y-65636795D01*
X188912911Y-65766003D01*
X190066395Y-64612520D01*
X190425605Y-64612520D01*
X191579089Y-65766003D01*
X191871859Y-65636795D01*
X192140071Y-64936637D01*
X192119928Y-64187136D01*
X191871859Y-63588245D01*
X191579089Y-63459037D01*
X190425605Y-64612520D01*
X190066395Y-64612520D01*
X188912911Y-63459037D01*
X188620141Y-63588245D01*
X188351929Y-64288403D01*
X166297006Y-64288403D01*
X166297006Y-62492697D01*
X168091281Y-62492697D01*
X168292801Y-62980414D01*
X168665623Y-63353887D01*
X169152987Y-63556259D01*
X169680697Y-63556719D01*
X170168414Y-63355199D01*
X170541887Y-62982377D01*
X170744259Y-62495013D01*
X170744261Y-62492697D01*
X171393281Y-62492697D01*
X171594801Y-62980414D01*
X171967623Y-63353887D01*
X172454987Y-63556259D01*
X172982697Y-63556719D01*
X173470414Y-63355199D01*
X173843887Y-62982377D01*
X174046259Y-62495013D01*
X174046719Y-61967303D01*
X173845199Y-61479586D01*
X173472377Y-61106113D01*
X172985013Y-60903741D01*
X172457303Y-60903281D01*
X171969586Y-61104801D01*
X171596113Y-61477623D01*
X171393741Y-61964987D01*
X171393281Y-62492697D01*
X170744261Y-62492697D01*
X170744719Y-61967303D01*
X170543199Y-61479586D01*
X170170377Y-61106113D01*
X169683013Y-60903741D01*
X169155303Y-60903281D01*
X168667586Y-61104801D01*
X168294113Y-61477623D01*
X168091741Y-61964987D01*
X168091281Y-62492697D01*
X166297006Y-62492697D01*
X166297006Y-62484000D01*
X166274205Y-62362821D01*
X166202588Y-62251526D01*
X166093314Y-62176862D01*
X165963600Y-62150594D01*
X164236400Y-62150594D01*
X164115221Y-62173395D01*
X164003926Y-62245012D01*
X163929262Y-62354286D01*
X163902994Y-62484000D01*
X163404950Y-62484000D01*
X163401881Y-62479408D01*
X163015623Y-62221318D01*
X163012000Y-62220597D01*
X163012000Y-60452000D01*
X162977594Y-60279027D01*
X162879612Y-60132388D01*
X162670729Y-59923505D01*
X176167167Y-59923505D01*
X176406696Y-60503211D01*
X176849836Y-60947125D01*
X177429123Y-61187666D01*
X178056365Y-61188213D01*
X178636071Y-60948684D01*
X179004908Y-60580490D01*
X179499013Y-61776317D01*
X180574660Y-62853843D01*
X181980779Y-63437714D01*
X183503301Y-63439043D01*
X183889592Y-63279431D01*
X189092517Y-63279431D01*
X190246000Y-64432915D01*
X191399483Y-63279431D01*
X191270275Y-62986661D01*
X190570117Y-62718449D01*
X189820616Y-62738592D01*
X189221725Y-62986661D01*
X189092517Y-63279431D01*
X183889592Y-63279431D01*
X184910437Y-62857627D01*
X185987963Y-61781980D01*
X186571834Y-60375861D01*
X186573163Y-58853339D01*
X185991747Y-57446203D01*
X184916100Y-56368677D01*
X183509981Y-55784806D01*
X181987459Y-55783477D01*
X180580323Y-56364893D01*
X179502797Y-57440540D01*
X179004043Y-58641673D01*
X178638404Y-58275395D01*
X178059117Y-58034854D01*
X177431875Y-58034307D01*
X176852169Y-58273836D01*
X176408255Y-58716976D01*
X176167714Y-59296263D01*
X176167167Y-59923505D01*
X162670729Y-59923505D01*
X161609612Y-58862388D01*
X161462973Y-58764406D01*
X161290000Y-58730000D01*
X153857224Y-58730000D01*
X153677415Y-58550191D01*
X153900675Y-58594600D01*
X153947325Y-58594600D01*
X154402948Y-58503971D01*
X154789206Y-58245881D01*
X155047296Y-57859623D01*
X155137925Y-57404000D01*
X155250075Y-57404000D01*
X155340704Y-57859623D01*
X155598794Y-58245881D01*
X155985052Y-58503971D01*
X156440675Y-58594600D01*
X156487325Y-58594600D01*
X156942948Y-58503971D01*
X157329206Y-58245881D01*
X157587296Y-57859623D01*
X157677925Y-57404000D01*
X157790075Y-57404000D01*
X157880704Y-57859623D01*
X158138794Y-58245881D01*
X158525052Y-58503971D01*
X158980675Y-58594600D01*
X159027325Y-58594600D01*
X159482948Y-58503971D01*
X159869206Y-58245881D01*
X160127296Y-57859623D01*
X160217925Y-57404000D01*
X160127296Y-56948377D01*
X159869206Y-56562119D01*
X159482948Y-56304029D01*
X159027325Y-56213400D01*
X158980675Y-56213400D01*
X158525052Y-56304029D01*
X158138794Y-56562119D01*
X157880704Y-56948377D01*
X157790075Y-57404000D01*
X157677925Y-57404000D01*
X157587296Y-56948377D01*
X157329206Y-56562119D01*
X156942948Y-56304029D01*
X156487325Y-56213400D01*
X156440675Y-56213400D01*
X155985052Y-56304029D01*
X155598794Y-56562119D01*
X155340704Y-56948377D01*
X155250075Y-57404000D01*
X155137925Y-57404000D01*
X155047296Y-56948377D01*
X154789206Y-56562119D01*
X154402948Y-56304029D01*
X153947325Y-56213400D01*
X153900675Y-56213400D01*
X153445052Y-56304029D01*
X153106000Y-56530577D01*
X153106000Y-55737423D01*
X153445052Y-55963971D01*
X153900675Y-56054600D01*
X153947325Y-56054600D01*
X154402948Y-55963971D01*
X154789206Y-55705881D01*
X155047296Y-55319623D01*
X155137925Y-54864000D01*
X155250075Y-54864000D01*
X155340704Y-55319623D01*
X155598794Y-55705881D01*
X155985052Y-55963971D01*
X156440675Y-56054600D01*
X156487325Y-56054600D01*
X156942948Y-55963971D01*
X157329206Y-55705881D01*
X157587296Y-55319623D01*
X157677925Y-54864000D01*
X157790075Y-54864000D01*
X157880704Y-55319623D01*
X158138794Y-55705881D01*
X158525052Y-55963971D01*
X158980675Y-56054600D01*
X159027325Y-56054600D01*
X159482948Y-55963971D01*
X159869206Y-55705881D01*
X160127296Y-55319623D01*
X160127866Y-55316760D01*
X160261312Y-55638947D01*
X160655510Y-56070821D01*
X161126864Y-56291734D01*
X161065052Y-56304029D01*
X160678794Y-56562119D01*
X160420704Y-56948377D01*
X160330075Y-57404000D01*
X160420704Y-57859623D01*
X160678794Y-58245881D01*
X161065052Y-58503971D01*
X161520675Y-58594600D01*
X161567325Y-58594600D01*
X162022948Y-58503971D01*
X162409206Y-58245881D01*
X162667296Y-57859623D01*
X162757925Y-57404000D01*
X162667296Y-56948377D01*
X162409206Y-56562119D01*
X162022948Y-56304029D01*
X161961136Y-56291734D01*
X162432490Y-56070821D01*
X162826688Y-55638947D01*
X162998958Y-55223026D01*
X162877817Y-54991000D01*
X161671000Y-54991000D01*
X161671000Y-55011000D01*
X161417000Y-55011000D01*
X161417000Y-54991000D01*
X161397000Y-54991000D01*
X161397000Y-54872697D01*
X168091281Y-54872697D01*
X168292801Y-55360414D01*
X168665623Y-55733887D01*
X169152987Y-55936259D01*
X169680697Y-55936719D01*
X170168414Y-55735199D01*
X170541887Y-55362377D01*
X170744259Y-54875013D01*
X170744261Y-54872697D01*
X171393281Y-54872697D01*
X171594801Y-55360414D01*
X171967623Y-55733887D01*
X172454987Y-55936259D01*
X172982697Y-55936719D01*
X173470414Y-55735199D01*
X173843887Y-55362377D01*
X174026646Y-54922245D01*
X188669047Y-54922245D01*
X188908576Y-55501951D01*
X189351716Y-55945865D01*
X189931003Y-56186406D01*
X190558245Y-56186953D01*
X191137951Y-55947424D01*
X191581865Y-55504284D01*
X191822406Y-54924997D01*
X191822953Y-54297755D01*
X191583424Y-53718049D01*
X191140284Y-53274135D01*
X190560997Y-53033594D01*
X189933755Y-53033047D01*
X189354049Y-53272576D01*
X188910135Y-53715716D01*
X188669594Y-54295003D01*
X188669047Y-54922245D01*
X174026646Y-54922245D01*
X174046259Y-54875013D01*
X174046719Y-54347303D01*
X173845199Y-53859586D01*
X173472377Y-53486113D01*
X172985013Y-53283741D01*
X172457303Y-53283281D01*
X171969586Y-53484801D01*
X171596113Y-53857623D01*
X171393741Y-54344987D01*
X171393281Y-54872697D01*
X170744261Y-54872697D01*
X170744719Y-54347303D01*
X170543199Y-53859586D01*
X170170377Y-53486113D01*
X169683013Y-53283741D01*
X169155303Y-53283281D01*
X168667586Y-53484801D01*
X168294113Y-53857623D01*
X168091741Y-54344987D01*
X168091281Y-54872697D01*
X161397000Y-54872697D01*
X161397000Y-54737000D01*
X161417000Y-54737000D01*
X161417000Y-53529531D01*
X161671000Y-53529531D01*
X161671000Y-54737000D01*
X162877817Y-54737000D01*
X162998958Y-54504974D01*
X162826688Y-54089053D01*
X162432490Y-53657179D01*
X161903027Y-53409032D01*
X161671000Y-53529531D01*
X161417000Y-53529531D01*
X161184973Y-53409032D01*
X160655510Y-53657179D01*
X160261312Y-54089053D01*
X160127866Y-54411240D01*
X160127296Y-54408377D01*
X159869206Y-54022119D01*
X159482948Y-53764029D01*
X159027325Y-53673400D01*
X158980675Y-53673400D01*
X158525052Y-53764029D01*
X158138794Y-54022119D01*
X157880704Y-54408377D01*
X157790075Y-54864000D01*
X157677925Y-54864000D01*
X157587296Y-54408377D01*
X157329206Y-54022119D01*
X156942948Y-53764029D01*
X156487325Y-53673400D01*
X156440675Y-53673400D01*
X155985052Y-53764029D01*
X155598794Y-54022119D01*
X155340704Y-54408377D01*
X155250075Y-54864000D01*
X155137925Y-54864000D01*
X155047296Y-54408377D01*
X154789206Y-54022119D01*
X154402948Y-53764029D01*
X153947325Y-53673400D01*
X153900675Y-53673400D01*
X153445052Y-53764029D01*
X153106000Y-53990577D01*
X153106000Y-53086000D01*
X153071594Y-52913027D01*
X152973612Y-52766388D01*
X151836000Y-51628776D01*
X151836000Y-49895423D01*
X152175052Y-50121971D01*
X152630675Y-50212600D01*
X152677325Y-50212600D01*
X153132948Y-50121971D01*
X153519206Y-49863881D01*
X153777296Y-49477623D01*
X153867925Y-49022000D01*
X153980075Y-49022000D01*
X154070704Y-49477623D01*
X154328794Y-49863881D01*
X154715052Y-50121971D01*
X155170675Y-50212600D01*
X155217325Y-50212600D01*
X155672948Y-50121971D01*
X156059206Y-49863881D01*
X156317296Y-49477623D01*
X156407925Y-49022000D01*
X156520075Y-49022000D01*
X156610704Y-49477623D01*
X156868794Y-49863881D01*
X157255052Y-50121971D01*
X157710675Y-50212600D01*
X157757325Y-50212600D01*
X158212948Y-50121971D01*
X158599206Y-49863881D01*
X158857296Y-49477623D01*
X158947925Y-49022000D01*
X158857296Y-48566377D01*
X158599206Y-48180119D01*
X158212948Y-47922029D01*
X157757325Y-47831400D01*
X157710675Y-47831400D01*
X157255052Y-47922029D01*
X156868794Y-48180119D01*
X156610704Y-48566377D01*
X156520075Y-49022000D01*
X156407925Y-49022000D01*
X156317296Y-48566377D01*
X156059206Y-48180119D01*
X155672948Y-47922029D01*
X155217325Y-47831400D01*
X155170675Y-47831400D01*
X154715052Y-47922029D01*
X154328794Y-48180119D01*
X154070704Y-48566377D01*
X153980075Y-49022000D01*
X153867925Y-49022000D01*
X153777296Y-48566377D01*
X153519206Y-48180119D01*
X153132948Y-47922029D01*
X152677325Y-47831400D01*
X152630675Y-47831400D01*
X152175052Y-47922029D01*
X151836000Y-48148577D01*
X151836000Y-47752000D01*
X151801594Y-47579027D01*
X151703612Y-47432388D01*
X151225901Y-46954677D01*
X151237296Y-46937623D01*
X151327925Y-46482000D01*
X151440075Y-46482000D01*
X151530704Y-46937623D01*
X151788794Y-47323881D01*
X152175052Y-47581971D01*
X152630675Y-47672600D01*
X152677325Y-47672600D01*
X153132948Y-47581971D01*
X153519206Y-47323881D01*
X153777296Y-46937623D01*
X153867925Y-46482000D01*
X153980075Y-46482000D01*
X154070704Y-46937623D01*
X154328794Y-47323881D01*
X154715052Y-47581971D01*
X155170675Y-47672600D01*
X155217325Y-47672600D01*
X155672948Y-47581971D01*
X156059206Y-47323881D01*
X156317296Y-46937623D01*
X156407925Y-46482000D01*
X156520075Y-46482000D01*
X156610704Y-46937623D01*
X156868794Y-47323881D01*
X157255052Y-47581971D01*
X157710675Y-47672600D01*
X157757325Y-47672600D01*
X158212948Y-47581971D01*
X158599206Y-47323881D01*
X158857296Y-46937623D01*
X158857866Y-46934760D01*
X158991312Y-47256947D01*
X159385510Y-47688821D01*
X159856864Y-47909734D01*
X159795052Y-47922029D01*
X159408794Y-48180119D01*
X159150704Y-48566377D01*
X159060075Y-49022000D01*
X159150704Y-49477623D01*
X159408794Y-49863881D01*
X159795052Y-50121971D01*
X160250675Y-50212600D01*
X160297325Y-50212600D01*
X160752948Y-50121971D01*
X161139206Y-49863881D01*
X161397296Y-49477623D01*
X161487925Y-49022000D01*
X161600075Y-49022000D01*
X161690704Y-49477623D01*
X161948794Y-49863881D01*
X162335052Y-50121971D01*
X162790675Y-50212600D01*
X162837325Y-50212600D01*
X163292948Y-50121971D01*
X163679206Y-49863881D01*
X163937296Y-49477623D01*
X164027925Y-49022000D01*
X164140075Y-49022000D01*
X164230704Y-49477623D01*
X164488794Y-49863881D01*
X164875052Y-50121971D01*
X165330675Y-50212600D01*
X165377325Y-50212600D01*
X165832948Y-50121971D01*
X166219206Y-49863881D01*
X166477296Y-49477623D01*
X166477866Y-49474760D01*
X166611312Y-49796947D01*
X167005510Y-50228821D01*
X167534973Y-50476968D01*
X167767000Y-50356469D01*
X167767000Y-49149000D01*
X167747000Y-49149000D01*
X167747000Y-48895000D01*
X167767000Y-48895000D01*
X167767000Y-48875000D01*
X168021000Y-48875000D01*
X168021000Y-48895000D01*
X168041000Y-48895000D01*
X168041000Y-49149000D01*
X168021000Y-49149000D01*
X168021000Y-50356469D01*
X168253027Y-50476968D01*
X168782490Y-50228821D01*
X169176688Y-49796947D01*
X169310134Y-49474760D01*
X169310704Y-49477623D01*
X169568794Y-49863881D01*
X169955052Y-50121971D01*
X170410675Y-50212600D01*
X170457325Y-50212600D01*
X170912948Y-50121971D01*
X171299206Y-49863881D01*
X171557296Y-49477623D01*
X171647925Y-49022000D01*
X171557296Y-48566377D01*
X171299206Y-48180119D01*
X170912948Y-47922029D01*
X170457325Y-47831400D01*
X170410675Y-47831400D01*
X169955052Y-47922029D01*
X169568794Y-48180119D01*
X169310704Y-48566377D01*
X169310134Y-48569240D01*
X169176688Y-48247053D01*
X168782490Y-47815179D01*
X168311136Y-47594266D01*
X168372948Y-47581971D01*
X168759206Y-47323881D01*
X169017296Y-46937623D01*
X169107925Y-46482000D01*
X169220075Y-46482000D01*
X169310704Y-46937623D01*
X169568794Y-47323881D01*
X169955052Y-47581971D01*
X170410675Y-47672600D01*
X170457325Y-47672600D01*
X170912948Y-47581971D01*
X171299206Y-47323881D01*
X171557296Y-46937623D01*
X171557866Y-46934760D01*
X171691312Y-47256947D01*
X172085510Y-47688821D01*
X172556864Y-47909734D01*
X172495052Y-47922029D01*
X172108794Y-48180119D01*
X171850704Y-48566377D01*
X171760075Y-49022000D01*
X171850704Y-49477623D01*
X172108794Y-49863881D01*
X172495052Y-50121971D01*
X172950675Y-50212600D01*
X172997325Y-50212600D01*
X173452948Y-50121971D01*
X173839206Y-49863881D01*
X174097296Y-49477623D01*
X174187925Y-49022000D01*
X174300075Y-49022000D01*
X174390704Y-49477623D01*
X174648794Y-49863881D01*
X175035052Y-50121971D01*
X175490675Y-50212600D01*
X175537325Y-50212600D01*
X175992948Y-50121971D01*
X176379206Y-49863881D01*
X176637296Y-49477623D01*
X176727925Y-49022000D01*
X176637296Y-48566377D01*
X176379206Y-48180119D01*
X175992948Y-47922029D01*
X175537325Y-47831400D01*
X175490675Y-47831400D01*
X175035052Y-47922029D01*
X174648794Y-48180119D01*
X174390704Y-48566377D01*
X174300075Y-49022000D01*
X174187925Y-49022000D01*
X174097296Y-48566377D01*
X173839206Y-48180119D01*
X173452948Y-47922029D01*
X173391136Y-47909734D01*
X173862490Y-47688821D01*
X174256688Y-47256947D01*
X174390134Y-46934760D01*
X174390704Y-46937623D01*
X174648794Y-47323881D01*
X175035052Y-47581971D01*
X175490675Y-47672600D01*
X175537325Y-47672600D01*
X175992948Y-47581971D01*
X176379206Y-47323881D01*
X176637296Y-46937623D01*
X176637866Y-46934760D01*
X176771312Y-47256947D01*
X177165510Y-47688821D01*
X177636864Y-47909734D01*
X177575052Y-47922029D01*
X177188794Y-48180119D01*
X176930704Y-48566377D01*
X176840075Y-49022000D01*
X176930704Y-49477623D01*
X177188794Y-49863881D01*
X177575052Y-50121971D01*
X178030675Y-50212600D01*
X178077325Y-50212600D01*
X178532948Y-50121971D01*
X178919206Y-49863881D01*
X179177296Y-49477623D01*
X179267925Y-49022000D01*
X179380075Y-49022000D01*
X179470704Y-49477623D01*
X179728794Y-49863881D01*
X180115052Y-50121971D01*
X180570675Y-50212600D01*
X180617325Y-50212600D01*
X181072948Y-50121971D01*
X181459206Y-49863881D01*
X181717296Y-49477623D01*
X181807925Y-49022000D01*
X181920075Y-49022000D01*
X182010704Y-49477623D01*
X182268794Y-49863881D01*
X182655052Y-50121971D01*
X183110675Y-50212600D01*
X183157325Y-50212600D01*
X183612948Y-50121971D01*
X183999206Y-49863881D01*
X184257296Y-49477623D01*
X184257866Y-49474760D01*
X184391312Y-49796947D01*
X184785510Y-50228821D01*
X185314973Y-50476968D01*
X185547000Y-50356469D01*
X185547000Y-49149000D01*
X185801000Y-49149000D01*
X185801000Y-50356469D01*
X186033027Y-50476968D01*
X186562490Y-50228821D01*
X186956688Y-49796947D01*
X187128958Y-49381026D01*
X187007817Y-49149000D01*
X185801000Y-49149000D01*
X185547000Y-49149000D01*
X185527000Y-49149000D01*
X185527000Y-48895000D01*
X185547000Y-48895000D01*
X185547000Y-48875000D01*
X185801000Y-48875000D01*
X185801000Y-48895000D01*
X187007817Y-48895000D01*
X187128958Y-48662974D01*
X186956688Y-48247053D01*
X186562490Y-47815179D01*
X186091136Y-47594266D01*
X186152948Y-47581971D01*
X186539206Y-47323881D01*
X186797296Y-46937623D01*
X186887925Y-46482000D01*
X186797296Y-46026377D01*
X186539206Y-45640119D01*
X186152948Y-45382029D01*
X185697325Y-45291400D01*
X185650675Y-45291400D01*
X185195052Y-45382029D01*
X184808794Y-45640119D01*
X184550704Y-46026377D01*
X184460075Y-46482000D01*
X184550704Y-46937623D01*
X184808794Y-47323881D01*
X185195052Y-47581971D01*
X185256864Y-47594266D01*
X184785510Y-47815179D01*
X184391312Y-48247053D01*
X184257866Y-48569240D01*
X184257296Y-48566377D01*
X183999206Y-48180119D01*
X183612948Y-47922029D01*
X183157325Y-47831400D01*
X183110675Y-47831400D01*
X182655052Y-47922029D01*
X182268794Y-48180119D01*
X182010704Y-48566377D01*
X181920075Y-49022000D01*
X181807925Y-49022000D01*
X181717296Y-48566377D01*
X181459206Y-48180119D01*
X181072948Y-47922029D01*
X180617325Y-47831400D01*
X180570675Y-47831400D01*
X180115052Y-47922029D01*
X179728794Y-48180119D01*
X179470704Y-48566377D01*
X179380075Y-49022000D01*
X179267925Y-49022000D01*
X179177296Y-48566377D01*
X178919206Y-48180119D01*
X178532948Y-47922029D01*
X178471136Y-47909734D01*
X178942490Y-47688821D01*
X179336688Y-47256947D01*
X179470134Y-46934760D01*
X179470704Y-46937623D01*
X179728794Y-47323881D01*
X180115052Y-47581971D01*
X180570675Y-47672600D01*
X180617325Y-47672600D01*
X181072948Y-47581971D01*
X181459206Y-47323881D01*
X181717296Y-46937623D01*
X181807925Y-46482000D01*
X181920075Y-46482000D01*
X182010704Y-46937623D01*
X182268794Y-47323881D01*
X182655052Y-47581971D01*
X183110675Y-47672600D01*
X183157325Y-47672600D01*
X183612948Y-47581971D01*
X183999206Y-47323881D01*
X184257296Y-46937623D01*
X184347925Y-46482000D01*
X184257296Y-46026377D01*
X183999206Y-45640119D01*
X183612948Y-45382029D01*
X183157325Y-45291400D01*
X183110675Y-45291400D01*
X182655052Y-45382029D01*
X182268794Y-45640119D01*
X182010704Y-46026377D01*
X181920075Y-46482000D01*
X181807925Y-46482000D01*
X181717296Y-46026377D01*
X181459206Y-45640119D01*
X181072948Y-45382029D01*
X180617325Y-45291400D01*
X180570675Y-45291400D01*
X180115052Y-45382029D01*
X179728794Y-45640119D01*
X179470704Y-46026377D01*
X179470134Y-46029240D01*
X179336688Y-45707053D01*
X178942490Y-45275179D01*
X178413027Y-45027032D01*
X178181000Y-45147531D01*
X178181000Y-46355000D01*
X178201000Y-46355000D01*
X178201000Y-46609000D01*
X178181000Y-46609000D01*
X178181000Y-46629000D01*
X177927000Y-46629000D01*
X177927000Y-46609000D01*
X177907000Y-46609000D01*
X177907000Y-46355000D01*
X177927000Y-46355000D01*
X177927000Y-45147531D01*
X177694973Y-45027032D01*
X177165510Y-45275179D01*
X176771312Y-45707053D01*
X176637866Y-46029240D01*
X176637296Y-46026377D01*
X176379206Y-45640119D01*
X175992948Y-45382029D01*
X175537325Y-45291400D01*
X175490675Y-45291400D01*
X175035052Y-45382029D01*
X174648794Y-45640119D01*
X174390704Y-46026377D01*
X174390134Y-46029240D01*
X174256688Y-45707053D01*
X173862490Y-45275179D01*
X173333027Y-45027032D01*
X173101000Y-45147531D01*
X173101000Y-46355000D01*
X173121000Y-46355000D01*
X173121000Y-46609000D01*
X173101000Y-46609000D01*
X173101000Y-46629000D01*
X172847000Y-46629000D01*
X172847000Y-46609000D01*
X172827000Y-46609000D01*
X172827000Y-46355000D01*
X172847000Y-46355000D01*
X172847000Y-45147531D01*
X172614973Y-45027032D01*
X172085510Y-45275179D01*
X171691312Y-45707053D01*
X171557866Y-46029240D01*
X171557296Y-46026377D01*
X171299206Y-45640119D01*
X170912948Y-45382029D01*
X170457325Y-45291400D01*
X170410675Y-45291400D01*
X169955052Y-45382029D01*
X169568794Y-45640119D01*
X169310704Y-46026377D01*
X169220075Y-46482000D01*
X169107925Y-46482000D01*
X169017296Y-46026377D01*
X168759206Y-45640119D01*
X168372948Y-45382029D01*
X167917325Y-45291400D01*
X167870675Y-45291400D01*
X167415052Y-45382029D01*
X167028794Y-45640119D01*
X166770704Y-46026377D01*
X166680075Y-46482000D01*
X166770704Y-46937623D01*
X167028794Y-47323881D01*
X167415052Y-47581971D01*
X167476864Y-47594266D01*
X167005510Y-47815179D01*
X166611312Y-48247053D01*
X166477866Y-48569240D01*
X166477296Y-48566377D01*
X166219206Y-48180119D01*
X165832948Y-47922029D01*
X165377325Y-47831400D01*
X165330675Y-47831400D01*
X164875052Y-47922029D01*
X164488794Y-48180119D01*
X164230704Y-48566377D01*
X164140075Y-49022000D01*
X164027925Y-49022000D01*
X163937296Y-48566377D01*
X163679206Y-48180119D01*
X163292948Y-47922029D01*
X162837325Y-47831400D01*
X162790675Y-47831400D01*
X162335052Y-47922029D01*
X161948794Y-48180119D01*
X161690704Y-48566377D01*
X161600075Y-49022000D01*
X161487925Y-49022000D01*
X161397296Y-48566377D01*
X161139206Y-48180119D01*
X160752948Y-47922029D01*
X160691136Y-47909734D01*
X161162490Y-47688821D01*
X161556688Y-47256947D01*
X161690134Y-46934760D01*
X161690704Y-46937623D01*
X161948794Y-47323881D01*
X162335052Y-47581971D01*
X162790675Y-47672600D01*
X162837325Y-47672600D01*
X163292948Y-47581971D01*
X163679206Y-47323881D01*
X163937296Y-46937623D01*
X164027925Y-46482000D01*
X164140075Y-46482000D01*
X164230704Y-46937623D01*
X164488794Y-47323881D01*
X164875052Y-47581971D01*
X165330675Y-47672600D01*
X165377325Y-47672600D01*
X165832948Y-47581971D01*
X166219206Y-47323881D01*
X166477296Y-46937623D01*
X166567925Y-46482000D01*
X166477296Y-46026377D01*
X166219206Y-45640119D01*
X165832948Y-45382029D01*
X165377325Y-45291400D01*
X165330675Y-45291400D01*
X164875052Y-45382029D01*
X164488794Y-45640119D01*
X164230704Y-46026377D01*
X164140075Y-46482000D01*
X164027925Y-46482000D01*
X163937296Y-46026377D01*
X163679206Y-45640119D01*
X163292948Y-45382029D01*
X162837325Y-45291400D01*
X162790675Y-45291400D01*
X162335052Y-45382029D01*
X161948794Y-45640119D01*
X161690704Y-46026377D01*
X161690134Y-46029240D01*
X161556688Y-45707053D01*
X161162490Y-45275179D01*
X160633027Y-45027032D01*
X160401000Y-45147531D01*
X160401000Y-46355000D01*
X160421000Y-46355000D01*
X160421000Y-46609000D01*
X160401000Y-46609000D01*
X160401000Y-46629000D01*
X160147000Y-46629000D01*
X160147000Y-46609000D01*
X160127000Y-46609000D01*
X160127000Y-46355000D01*
X160147000Y-46355000D01*
X160147000Y-45147531D01*
X159914973Y-45027032D01*
X159385510Y-45275179D01*
X158991312Y-45707053D01*
X158857866Y-46029240D01*
X158857296Y-46026377D01*
X158599206Y-45640119D01*
X158212948Y-45382029D01*
X157757325Y-45291400D01*
X157710675Y-45291400D01*
X157255052Y-45382029D01*
X156868794Y-45640119D01*
X156610704Y-46026377D01*
X156520075Y-46482000D01*
X156407925Y-46482000D01*
X156317296Y-46026377D01*
X156059206Y-45640119D01*
X155672948Y-45382029D01*
X155217325Y-45291400D01*
X155170675Y-45291400D01*
X154715052Y-45382029D01*
X154328794Y-45640119D01*
X154070704Y-46026377D01*
X153980075Y-46482000D01*
X153867925Y-46482000D01*
X153777296Y-46026377D01*
X153519206Y-45640119D01*
X153132948Y-45382029D01*
X152677325Y-45291400D01*
X152630675Y-45291400D01*
X152175052Y-45382029D01*
X151788794Y-45640119D01*
X151530704Y-46026377D01*
X151440075Y-46482000D01*
X151327925Y-46482000D01*
X151237296Y-46026377D01*
X150979206Y-45640119D01*
X150592948Y-45382029D01*
X150137325Y-45291400D01*
X150090675Y-45291400D01*
X149635052Y-45382029D01*
X149248794Y-45640119D01*
X148990704Y-46026377D01*
X148900075Y-46482000D01*
X148990704Y-46937623D01*
X149248794Y-47323881D01*
X149635052Y-47581971D01*
X150090675Y-47672600D01*
X150137325Y-47672600D01*
X150577767Y-47584991D01*
X150932000Y-47939224D01*
X150932000Y-48148577D01*
X150592948Y-47922029D01*
X150137325Y-47831400D01*
X150090675Y-47831400D01*
X149635052Y-47922029D01*
X149248794Y-48180119D01*
X148990704Y-48566377D01*
X148990134Y-48569240D01*
X148856688Y-48247053D01*
X148462490Y-47815179D01*
X147991136Y-47594266D01*
X148052948Y-47581971D01*
X148439206Y-47323881D01*
X148697296Y-46937623D01*
X148787925Y-46482000D01*
X148697296Y-46026377D01*
X148439206Y-45640119D01*
X148052948Y-45382029D01*
X147597325Y-45291400D01*
X147550675Y-45291400D01*
X147095052Y-45382029D01*
X146708794Y-45640119D01*
X146450704Y-46026377D01*
X146360075Y-46482000D01*
X146450704Y-46937623D01*
X146708794Y-47323881D01*
X147095052Y-47581971D01*
X147156864Y-47594266D01*
X146685510Y-47815179D01*
X146291312Y-48247053D01*
X146157866Y-48569240D01*
X146157296Y-48566377D01*
X145899206Y-48180119D01*
X145512948Y-47922029D01*
X145057325Y-47831400D01*
X145010675Y-47831400D01*
X144555052Y-47922029D01*
X144168794Y-48180119D01*
X143910704Y-48566377D01*
X143820075Y-49022000D01*
X143910704Y-49477623D01*
X144168794Y-49863881D01*
X144555052Y-50121971D01*
X145010675Y-50212600D01*
X145057325Y-50212600D01*
X145512948Y-50121971D01*
X145899206Y-49863881D01*
X146157296Y-49477623D01*
X146157866Y-49474760D01*
X146291312Y-49796947D01*
X146685510Y-50228821D01*
X147214973Y-50476968D01*
X147447000Y-50356469D01*
X147447000Y-49149000D01*
X147427000Y-49149000D01*
X147427000Y-48895000D01*
X147447000Y-48895000D01*
X147447000Y-48875000D01*
X147701000Y-48875000D01*
X147701000Y-48895000D01*
X147721000Y-48895000D01*
X147721000Y-49149000D01*
X147701000Y-49149000D01*
X147701000Y-50356469D01*
X147933027Y-50476968D01*
X148462490Y-50228821D01*
X148856688Y-49796947D01*
X148990134Y-49474760D01*
X148990704Y-49477623D01*
X149248794Y-49863881D01*
X149635052Y-50121971D01*
X150090675Y-50212600D01*
X150137325Y-50212600D01*
X150592948Y-50121971D01*
X150932000Y-49895423D01*
X150932000Y-51816000D01*
X150966406Y-51988973D01*
X151064388Y-52135612D01*
X152202000Y-53273224D01*
X152202000Y-53990577D01*
X151862948Y-53764029D01*
X151407325Y-53673400D01*
X151360675Y-53673400D01*
X150905052Y-53764029D01*
X150518794Y-54022119D01*
X150260704Y-54408377D01*
X150170075Y-54864000D01*
X150260704Y-55319623D01*
X150518794Y-55705881D01*
X150905052Y-55963971D01*
X151360675Y-56054600D01*
X151407325Y-56054600D01*
X151862948Y-55963971D01*
X152202000Y-55737423D01*
X152202000Y-56530577D01*
X151862948Y-56304029D01*
X151407325Y-56213400D01*
X151360675Y-56213400D01*
X150905052Y-56304029D01*
X150518794Y-56562119D01*
X150260704Y-56948377D01*
X150260134Y-56951240D01*
X150126688Y-56629053D01*
X149732490Y-56197179D01*
X149261136Y-55976266D01*
X149322948Y-55963971D01*
X149709206Y-55705881D01*
X149967296Y-55319623D01*
X150057925Y-54864000D01*
X149967296Y-54408377D01*
X149709206Y-54022119D01*
X149322948Y-53764029D01*
X148867325Y-53673400D01*
X148820675Y-53673400D01*
X148365052Y-53764029D01*
X147978794Y-54022119D01*
X147720704Y-54408377D01*
X147630075Y-54864000D01*
X147720704Y-55319623D01*
X147978794Y-55705881D01*
X148365052Y-55963971D01*
X148426864Y-55976266D01*
X147955510Y-56197179D01*
X147561312Y-56629053D01*
X147427866Y-56951240D01*
X147427296Y-56948377D01*
X147169206Y-56562119D01*
X146782948Y-56304029D01*
X146327325Y-56213400D01*
X146280675Y-56213400D01*
X145825052Y-56304029D01*
X145438794Y-56562119D01*
X145262600Y-56825811D01*
X145262600Y-56414090D01*
X145165927Y-56180701D01*
X144987298Y-56002073D01*
X144753909Y-55905400D01*
X144330605Y-55905400D01*
X144629206Y-55705881D01*
X144887296Y-55319623D01*
X144977925Y-54864000D01*
X145090075Y-54864000D01*
X145180704Y-55319623D01*
X145438794Y-55705881D01*
X145825052Y-55963971D01*
X146280675Y-56054600D01*
X146327325Y-56054600D01*
X146782948Y-55963971D01*
X147169206Y-55705881D01*
X147427296Y-55319623D01*
X147517925Y-54864000D01*
X147427296Y-54408377D01*
X147169206Y-54022119D01*
X146782948Y-53764029D01*
X146327325Y-53673400D01*
X146280675Y-53673400D01*
X145825052Y-53764029D01*
X145438794Y-54022119D01*
X145180704Y-54408377D01*
X145090075Y-54864000D01*
X144977925Y-54864000D01*
X144887296Y-54408377D01*
X144629206Y-54022119D01*
X144242948Y-53764029D01*
X143787325Y-53673400D01*
X143740675Y-53673400D01*
X143285052Y-53764029D01*
X142898794Y-54022119D01*
X142640704Y-54408377D01*
X142550075Y-54864000D01*
X142640704Y-55319623D01*
X142898794Y-55705881D01*
X143197395Y-55905400D01*
X142774091Y-55905400D01*
X142540702Y-56002073D01*
X142362073Y-56180701D01*
X142265400Y-56414090D01*
X129409000Y-56414090D01*
X129409000Y-48580126D01*
X129794687Y-49513561D01*
X130701664Y-50422123D01*
X131887294Y-50914439D01*
X133171074Y-50915559D01*
X134357561Y-50425313D01*
X135266123Y-49518336D01*
X135374312Y-49257786D01*
X136223194Y-49257786D01*
X136404070Y-49695540D01*
X136738699Y-50030753D01*
X137176136Y-50212393D01*
X137649786Y-50212806D01*
X138087540Y-50031930D01*
X138422753Y-49697301D01*
X138604393Y-49259864D01*
X138604394Y-49257786D01*
X138763194Y-49257786D01*
X138944070Y-49695540D01*
X139278699Y-50030753D01*
X139716136Y-50212393D01*
X140189786Y-50212806D01*
X140627540Y-50031930D01*
X140962753Y-49697301D01*
X141144393Y-49259864D01*
X141144806Y-48786214D01*
X140963930Y-48348460D01*
X140629301Y-48013247D01*
X140191864Y-47831607D01*
X139718214Y-47831194D01*
X139280460Y-48012070D01*
X138945247Y-48346699D01*
X138763607Y-48784136D01*
X138763194Y-49257786D01*
X138604394Y-49257786D01*
X138604806Y-48786214D01*
X138423930Y-48348460D01*
X138089301Y-48013247D01*
X137651864Y-47831607D01*
X137178214Y-47831194D01*
X136740460Y-48012070D01*
X136405247Y-48346699D01*
X136223607Y-48784136D01*
X136223194Y-49257786D01*
X135374312Y-49257786D01*
X135758439Y-48332706D01*
X135759559Y-47048926D01*
X135525311Y-46482000D01*
X136200075Y-46482000D01*
X136290704Y-46937623D01*
X136548794Y-47323881D01*
X136935052Y-47581971D01*
X137390675Y-47672600D01*
X137437325Y-47672600D01*
X137892948Y-47581971D01*
X138279206Y-47323881D01*
X138537296Y-46937623D01*
X138627925Y-46482000D01*
X138740075Y-46482000D01*
X138830704Y-46937623D01*
X139088794Y-47323881D01*
X139475052Y-47581971D01*
X139930675Y-47672600D01*
X139977325Y-47672600D01*
X140432948Y-47581971D01*
X140819206Y-47323881D01*
X141077296Y-46937623D01*
X141077866Y-46934760D01*
X141211312Y-47256947D01*
X141605510Y-47688821D01*
X142076864Y-47909734D01*
X142015052Y-47922029D01*
X141628794Y-48180119D01*
X141370704Y-48566377D01*
X141280075Y-49022000D01*
X141370704Y-49477623D01*
X141628794Y-49863881D01*
X142015052Y-50121971D01*
X142470675Y-50212600D01*
X142517325Y-50212600D01*
X142972948Y-50121971D01*
X143359206Y-49863881D01*
X143617296Y-49477623D01*
X143707925Y-49022000D01*
X143617296Y-48566377D01*
X143359206Y-48180119D01*
X142972948Y-47922029D01*
X142911136Y-47909734D01*
X143382490Y-47688821D01*
X143776688Y-47256947D01*
X143910134Y-46934760D01*
X143910704Y-46937623D01*
X144168794Y-47323881D01*
X144555052Y-47581971D01*
X145010675Y-47672600D01*
X145057325Y-47672600D01*
X145512948Y-47581971D01*
X145899206Y-47323881D01*
X146157296Y-46937623D01*
X146247925Y-46482000D01*
X146157296Y-46026377D01*
X145899206Y-45640119D01*
X145512948Y-45382029D01*
X145057325Y-45291400D01*
X145010675Y-45291400D01*
X144555052Y-45382029D01*
X144168794Y-45640119D01*
X143910704Y-46026377D01*
X143910134Y-46029240D01*
X143776688Y-45707053D01*
X143382490Y-45275179D01*
X142853027Y-45027032D01*
X142621000Y-45147531D01*
X142621000Y-46355000D01*
X142641000Y-46355000D01*
X142641000Y-46609000D01*
X142621000Y-46609000D01*
X142621000Y-46629000D01*
X142367000Y-46629000D01*
X142367000Y-46609000D01*
X142347000Y-46609000D01*
X142347000Y-46355000D01*
X142367000Y-46355000D01*
X142367000Y-45147531D01*
X142134973Y-45027032D01*
X141605510Y-45275179D01*
X141211312Y-45707053D01*
X141077866Y-46029240D01*
X141077296Y-46026377D01*
X140819206Y-45640119D01*
X140432948Y-45382029D01*
X139977325Y-45291400D01*
X139930675Y-45291400D01*
X139475052Y-45382029D01*
X139088794Y-45640119D01*
X138830704Y-46026377D01*
X138740075Y-46482000D01*
X138627925Y-46482000D01*
X138537296Y-46026377D01*
X138279206Y-45640119D01*
X137892948Y-45382029D01*
X137437325Y-45291400D01*
X137390675Y-45291400D01*
X136935052Y-45382029D01*
X136548794Y-45640119D01*
X136290704Y-46026377D01*
X136200075Y-46482000D01*
X135525311Y-46482000D01*
X135269313Y-45862439D01*
X134362336Y-44953877D01*
X133425815Y-44565000D01*
X189639874Y-44565000D01*
X188706439Y-44950687D01*
X188706439Y-44950687D01*
G37*
X188706439Y-44950687D02*
X187797877Y-45857664D01*
X187305561Y-47043294D01*
X187304441Y-48327074D01*
X187794687Y-49513561D01*
X188701664Y-50422123D01*
X189887294Y-50914439D01*
X191171074Y-50915559D01*
X192357561Y-50425313D01*
X193266123Y-49518336D01*
X193655000Y-48581815D01*
X193655000Y-95795874D01*
X193269313Y-94862439D01*
X192362336Y-93953877D01*
X191176706Y-93461561D01*
X189892926Y-93460441D01*
X188706439Y-93950687D01*
X187797877Y-94857664D01*
X187305561Y-96043294D01*
X187304441Y-97327074D01*
X187794687Y-98513561D01*
X188701664Y-99422123D01*
X189638185Y-99811000D01*
X133424126Y-99811000D01*
X134357561Y-99425313D01*
X135266123Y-98518336D01*
X135758439Y-97332706D01*
X135759559Y-96048926D01*
X135269313Y-94862439D01*
X134362336Y-93953877D01*
X133176706Y-93461561D01*
X131892926Y-93460441D01*
X130706439Y-93950687D01*
X129797877Y-94857664D01*
X129409000Y-95794185D01*
X129409000Y-91300757D01*
X154876588Y-91300757D01*
X155036355Y-91619512D01*
X155827077Y-91929475D01*
X156676226Y-91913247D01*
X157385365Y-91619512D01*
X157545132Y-91300757D01*
X168592588Y-91300757D01*
X168752355Y-91619512D01*
X169543077Y-91929475D01*
X170392226Y-91913247D01*
X171101365Y-91619512D01*
X171261132Y-91300757D01*
X169926860Y-89966485D01*
X168592588Y-91300757D01*
X157545132Y-91300757D01*
X156210860Y-89966485D01*
X154876588Y-91300757D01*
X129409000Y-91300757D01*
X129409000Y-89152532D01*
X134027073Y-89152532D01*
X134125736Y-89419387D01*
X134735461Y-89645908D01*
X135385460Y-89621856D01*
X135874264Y-89419387D01*
X135880286Y-89403097D01*
X154068265Y-89403097D01*
X154084493Y-90252246D01*
X154378228Y-90961385D01*
X154696983Y-91121152D01*
X156031255Y-89786880D01*
X156390465Y-89786880D01*
X157724737Y-91121152D01*
X158043492Y-90961385D01*
X158353455Y-90170663D01*
X158338787Y-89403097D01*
X167784265Y-89403097D01*
X167800493Y-90252246D01*
X168094228Y-90961385D01*
X168412983Y-91121152D01*
X169747255Y-89786880D01*
X170106465Y-89786880D01*
X171440737Y-91121152D01*
X171759492Y-90961385D01*
X172069455Y-90170663D01*
X172053227Y-89321514D01*
X171759492Y-88612375D01*
X171440737Y-88452608D01*
X170106465Y-89786880D01*
X169747255Y-89786880D01*
X168412983Y-88452608D01*
X168094228Y-88612375D01*
X167784265Y-89403097D01*
X158338787Y-89403097D01*
X158337227Y-89321514D01*
X158043492Y-88612375D01*
X157724737Y-88452608D01*
X156390465Y-89786880D01*
X156031255Y-89786880D01*
X154696983Y-88452608D01*
X154378228Y-88612375D01*
X154068265Y-89403097D01*
X135880286Y-89403097D01*
X135972927Y-89152532D01*
X135000000Y-88179605D01*
X134027073Y-89152532D01*
X129409000Y-89152532D01*
X129409000Y-87735461D01*
X133354092Y-87735461D01*
X133378144Y-88385460D01*
X133580613Y-88874264D01*
X133847468Y-88972927D01*
X134820395Y-88000000D01*
X135179605Y-88000000D01*
X136152532Y-88972927D01*
X136419387Y-88874264D01*
X136645908Y-88264539D01*
X136645844Y-88262798D01*
X138672771Y-88262798D01*
X138874369Y-88750703D01*
X139247334Y-89124319D01*
X139734885Y-89326769D01*
X140262798Y-89327229D01*
X140750703Y-89125631D01*
X141124319Y-88752666D01*
X141326769Y-88265115D01*
X141326771Y-88262798D01*
X143672771Y-88262798D01*
X143874369Y-88750703D01*
X144247334Y-89124319D01*
X144734885Y-89326769D01*
X145262798Y-89327229D01*
X145750703Y-89125631D01*
X146124319Y-88752666D01*
X146326769Y-88265115D01*
X146326771Y-88262798D01*
X148672771Y-88262798D01*
X148874369Y-88750703D01*
X149247334Y-89124319D01*
X149734885Y-89326769D01*
X150262798Y-89327229D01*
X150750703Y-89125631D01*
X151124319Y-88752666D01*
X151323493Y-88273003D01*
X154876588Y-88273003D01*
X156210860Y-89607275D01*
X157545132Y-88273003D01*
X157385365Y-87954248D01*
X156594643Y-87644285D01*
X155745494Y-87660513D01*
X155036355Y-87954248D01*
X154876588Y-88273003D01*
X151323493Y-88273003D01*
X151326769Y-88265115D01*
X151327229Y-87737202D01*
X151160333Y-87333282D01*
X158689103Y-87333282D01*
X158852808Y-87729477D01*
X159155669Y-88032867D01*
X159551578Y-88197263D01*
X159980262Y-88197637D01*
X160376457Y-88033932D01*
X160679847Y-87731071D01*
X160844243Y-87335162D01*
X160844244Y-87333282D01*
X161229103Y-87333282D01*
X161392808Y-87729477D01*
X161695669Y-88032867D01*
X162091578Y-88197263D01*
X162520262Y-88197637D01*
X162916457Y-88033932D01*
X163219847Y-87731071D01*
X163322910Y-87482867D01*
X163424808Y-87729477D01*
X163727669Y-88032867D01*
X164123578Y-88197263D01*
X164552262Y-88197637D01*
X164808382Y-88091810D01*
X166086535Y-88091810D01*
X166154595Y-88332811D01*
X166673894Y-88517647D01*
X167224398Y-88489685D01*
X167603125Y-88332811D01*
X167620015Y-88273003D01*
X168592588Y-88273003D01*
X169926860Y-89607275D01*
X171261132Y-88273003D01*
X171101365Y-87954248D01*
X170310643Y-87644285D01*
X169461494Y-87660513D01*
X168752355Y-87954248D01*
X168592588Y-88273003D01*
X167620015Y-88273003D01*
X167671185Y-88091810D01*
X166878860Y-87299485D01*
X166086535Y-88091810D01*
X164808382Y-88091810D01*
X164948457Y-88033932D01*
X165251847Y-87731071D01*
X165416243Y-87335162D01*
X165416609Y-86914914D01*
X165481093Y-86914914D01*
X165509055Y-87465418D01*
X165665929Y-87844145D01*
X165906930Y-87912205D01*
X166699255Y-87119880D01*
X167058465Y-87119880D01*
X167850790Y-87912205D01*
X168091791Y-87844145D01*
X168276627Y-87324846D01*
X168248665Y-86774342D01*
X168091791Y-86395615D01*
X167850790Y-86327555D01*
X167058465Y-87119880D01*
X166699255Y-87119880D01*
X165906930Y-86327555D01*
X165665929Y-86395615D01*
X165481093Y-86914914D01*
X165416609Y-86914914D01*
X165416617Y-86906478D01*
X165252912Y-86510283D01*
X164950051Y-86206893D01*
X164808101Y-86147950D01*
X166086535Y-86147950D01*
X166878860Y-86940275D01*
X167671185Y-86147950D01*
X167603125Y-85906949D01*
X167083826Y-85722113D01*
X166533322Y-85750075D01*
X166154595Y-85906949D01*
X166086535Y-86147950D01*
X164808101Y-86147950D01*
X164554142Y-86042497D01*
X164125458Y-86042123D01*
X163729263Y-86205828D01*
X163425873Y-86508689D01*
X163322810Y-86756893D01*
X163220912Y-86510283D01*
X162918051Y-86206893D01*
X162522142Y-86042497D01*
X162093458Y-86042123D01*
X161697263Y-86205828D01*
X161393873Y-86508689D01*
X161229477Y-86904598D01*
X161229103Y-87333282D01*
X160844244Y-87333282D01*
X160844617Y-86906478D01*
X160680912Y-86510283D01*
X160378051Y-86206893D01*
X159982142Y-86042497D01*
X159553458Y-86042123D01*
X159157263Y-86205828D01*
X158853873Y-86508689D01*
X158689477Y-86904598D01*
X158689103Y-87333282D01*
X151160333Y-87333282D01*
X151125631Y-87249297D01*
X150752666Y-86875681D01*
X150265115Y-86673231D01*
X149737202Y-86672771D01*
X149249297Y-86874369D01*
X148875681Y-87247334D01*
X148673231Y-87734885D01*
X148672771Y-88262798D01*
X146326771Y-88262798D01*
X146327229Y-87737202D01*
X146125631Y-87249297D01*
X145752666Y-86875681D01*
X145265115Y-86673231D01*
X144737202Y-86672771D01*
X144249297Y-86874369D01*
X143875681Y-87247334D01*
X143673231Y-87734885D01*
X143672771Y-88262798D01*
X141326771Y-88262798D01*
X141327229Y-87737202D01*
X141125631Y-87249297D01*
X140752666Y-86875681D01*
X140265115Y-86673231D01*
X139737202Y-86672771D01*
X139249297Y-86874369D01*
X138875681Y-87247334D01*
X138673231Y-87734885D01*
X138672771Y-88262798D01*
X136645844Y-88262798D01*
X136621856Y-87614540D01*
X136419387Y-87125736D01*
X136152532Y-87027073D01*
X135179605Y-88000000D01*
X134820395Y-88000000D01*
X133847468Y-87027073D01*
X133580613Y-87125736D01*
X133354092Y-87735461D01*
X129409000Y-87735461D01*
X129409000Y-86847468D01*
X134027073Y-86847468D01*
X135000000Y-87820395D01*
X135972927Y-86847468D01*
X135874264Y-86580613D01*
X135264539Y-86354092D01*
X134614540Y-86378144D01*
X134125736Y-86580613D01*
X134027073Y-86847468D01*
X129409000Y-86847468D01*
X129409000Y-81725131D01*
X129463246Y-81452415D01*
X129596695Y-81252695D01*
X129693517Y-81188000D01*
X172655000Y-81188000D01*
X172655000Y-96188000D01*
X172662244Y-96224419D01*
X172662244Y-96261549D01*
X172738363Y-96644227D01*
X172738363Y-96644232D01*
X172755522Y-96685657D01*
X172794655Y-96780133D01*
X172794658Y-96780136D01*
X173011429Y-97104557D01*
X173115443Y-97208571D01*
X173439864Y-97425342D01*
X173439867Y-97425345D01*
X173575768Y-97481636D01*
X173958449Y-97557756D01*
X174105551Y-97557756D01*
X174488227Y-97481637D01*
X174488232Y-97481637D01*
X174556182Y-97453491D01*
X174624133Y-97425345D01*
X174624136Y-97425342D01*
X174948557Y-97208571D01*
X175052571Y-97104557D01*
X175269342Y-96780136D01*
X175269345Y-96780133D01*
X175325636Y-96644232D01*
X175401756Y-96261549D01*
X175401756Y-96224419D01*
X175409000Y-96188000D01*
X175409000Y-86899750D01*
X175657000Y-86899750D01*
X175657000Y-88040310D01*
X175753673Y-88273699D01*
X175932302Y-88452327D01*
X176165691Y-88549000D01*
X177006250Y-88549000D01*
X177165000Y-88390250D01*
X177165000Y-86741000D01*
X175815750Y-86741000D01*
X175657000Y-86899750D01*
X175409000Y-86899750D01*
X175409000Y-85187690D01*
X175657000Y-85187690D01*
X175657000Y-86328250D01*
X175815750Y-86487000D01*
X177165000Y-86487000D01*
X177165000Y-84837750D01*
X177419000Y-84837750D01*
X177419000Y-86487000D01*
X177439000Y-86487000D01*
X177439000Y-86741000D01*
X177419000Y-86741000D01*
X177419000Y-88390250D01*
X177577750Y-88549000D01*
X178418309Y-88549000D01*
X178651698Y-88452327D01*
X178830327Y-88273699D01*
X178927000Y-88040310D01*
X178927000Y-87906477D01*
X179324179Y-88171863D01*
X179832000Y-88272875D01*
X180339821Y-88171863D01*
X180770331Y-87884206D01*
X181057988Y-87453696D01*
X181102000Y-87232433D01*
X181146012Y-87453696D01*
X181433669Y-87884206D01*
X181864179Y-88171863D01*
X182372000Y-88272875D01*
X182879821Y-88171863D01*
X183310331Y-87884206D01*
X183597988Y-87453696D01*
X183699000Y-86945875D01*
X183699000Y-86899750D01*
X184801000Y-86899750D01*
X184801000Y-88040310D01*
X184897673Y-88273699D01*
X185076302Y-88452327D01*
X185309691Y-88549000D01*
X186150250Y-88549000D01*
X186309000Y-88390250D01*
X186309000Y-86741000D01*
X184959750Y-86741000D01*
X184801000Y-86899750D01*
X183699000Y-86899750D01*
X183699000Y-86282125D01*
X183597988Y-85774304D01*
X183310331Y-85343794D01*
X183076705Y-85187690D01*
X184801000Y-85187690D01*
X184801000Y-86328250D01*
X184959750Y-86487000D01*
X186309000Y-86487000D01*
X186309000Y-84837750D01*
X186563000Y-84837750D01*
X186563000Y-86487000D01*
X186583000Y-86487000D01*
X186583000Y-86741000D01*
X186563000Y-86741000D01*
X186563000Y-88390250D01*
X186721750Y-88549000D01*
X187562309Y-88549000D01*
X187795698Y-88452327D01*
X187974327Y-88273699D01*
X188071000Y-88040310D01*
X188071000Y-87906477D01*
X188468179Y-88171863D01*
X188976000Y-88272875D01*
X189483821Y-88171863D01*
X189914331Y-87884206D01*
X190201988Y-87453696D01*
X190246000Y-87232433D01*
X190290012Y-87453696D01*
X190577669Y-87884206D01*
X191008179Y-88171863D01*
X191516000Y-88272875D01*
X192023821Y-88171863D01*
X192454331Y-87884206D01*
X192741988Y-87453696D01*
X192843000Y-86945875D01*
X192843000Y-86282125D01*
X192741988Y-85774304D01*
X192454331Y-85343794D01*
X192023821Y-85056137D01*
X191516000Y-84955125D01*
X191008179Y-85056137D01*
X190577669Y-85343794D01*
X190290012Y-85774304D01*
X190246000Y-85995567D01*
X190201988Y-85774304D01*
X189914331Y-85343794D01*
X189483821Y-85056137D01*
X188976000Y-84955125D01*
X188468179Y-85056137D01*
X188071000Y-85321523D01*
X188071000Y-85187690D01*
X187974327Y-84954301D01*
X187795698Y-84775673D01*
X187562309Y-84679000D01*
X186721750Y-84679000D01*
X186563000Y-84837750D01*
X186309000Y-84837750D01*
X186150250Y-84679000D01*
X185309691Y-84679000D01*
X185076302Y-84775673D01*
X184897673Y-84954301D01*
X184801000Y-85187690D01*
X183076705Y-85187690D01*
X182879821Y-85056137D01*
X182372000Y-84955125D01*
X181864179Y-85056137D01*
X181433669Y-85343794D01*
X181146012Y-85774304D01*
X181102000Y-85995567D01*
X181057988Y-85774304D01*
X180770331Y-85343794D01*
X180339821Y-85056137D01*
X179832000Y-84955125D01*
X179324179Y-85056137D01*
X178927000Y-85321523D01*
X178927000Y-85187690D01*
X178830327Y-84954301D01*
X178651698Y-84775673D01*
X178418309Y-84679000D01*
X177577750Y-84679000D01*
X177419000Y-84837750D01*
X177165000Y-84837750D01*
X177006250Y-84679000D01*
X176165691Y-84679000D01*
X175932302Y-84775673D01*
X175753673Y-84954301D01*
X175657000Y-85187690D01*
X175409000Y-85187690D01*
X175409000Y-81188000D01*
X175401756Y-81151581D01*
X175401756Y-81114451D01*
X175325636Y-80731768D01*
X175269345Y-80595867D01*
X175269342Y-80595864D01*
X175052571Y-80271443D01*
X174948557Y-80167429D01*
X174624136Y-79950658D01*
X174624133Y-79950655D01*
X174556183Y-79922510D01*
X174488232Y-79894363D01*
X174488227Y-79894363D01*
X174105551Y-79818244D01*
X173958449Y-79818244D01*
X173575768Y-79894364D01*
X173439867Y-79950655D01*
X173439864Y-79950658D01*
X173115443Y-80167429D01*
X173011429Y-80271443D01*
X172794658Y-80595864D01*
X172794655Y-80595867D01*
X172766510Y-80663817D01*
X172738363Y-80731768D01*
X172738363Y-80731773D01*
X172662244Y-81114451D01*
X172662244Y-81151581D01*
X172655000Y-81188000D01*
X129693517Y-81188000D01*
X129796415Y-81119246D01*
X130069131Y-81065000D01*
X133032000Y-81065000D01*
X133068419Y-81057756D01*
X133105549Y-81057756D01*
X133488227Y-80981637D01*
X133488232Y-80981637D01*
X133556183Y-80953490D01*
X133624133Y-80925345D01*
X133624136Y-80925342D01*
X133948557Y-80708571D01*
X134052571Y-80604557D01*
X134269342Y-80280136D01*
X134269345Y-80280133D01*
X134325636Y-80144232D01*
X134401756Y-79761549D01*
X134401756Y-79724419D01*
X134409000Y-79688000D01*
X134409000Y-77498308D01*
X136666727Y-77498308D01*
X136906305Y-78078132D01*
X137349535Y-78522136D01*
X137928939Y-78762725D01*
X138556308Y-78763273D01*
X139136132Y-78523695D01*
X139580136Y-78080465D01*
X139820725Y-77501061D01*
X139820727Y-77498308D01*
X140866727Y-77498308D01*
X141106305Y-78078132D01*
X141549535Y-78522136D01*
X142128939Y-78762725D01*
X142756308Y-78763273D01*
X143336132Y-78523695D01*
X143340514Y-78519320D01*
X145490285Y-78519320D01*
X145619533Y-78812123D01*
X146319806Y-79080388D01*
X147069435Y-79060250D01*
X147668467Y-78812123D01*
X147797715Y-78519320D01*
X146644000Y-77365605D01*
X145490285Y-78519320D01*
X143340514Y-78519320D01*
X143780136Y-78080465D01*
X144020725Y-77501061D01*
X144021273Y-76873692D01*
X144016362Y-76861806D01*
X144749612Y-76861806D01*
X144769750Y-77611435D01*
X145017877Y-78210467D01*
X145310680Y-78339715D01*
X146464395Y-77186000D01*
X146823605Y-77186000D01*
X147977320Y-78339715D01*
X148270123Y-78210467D01*
X148538388Y-77510194D01*
X148538069Y-77498308D01*
X149266727Y-77498308D01*
X149506305Y-78078132D01*
X149949535Y-78522136D01*
X150528939Y-78762725D01*
X151156308Y-78763273D01*
X151736132Y-78523695D01*
X151740514Y-78519320D01*
X153890285Y-78519320D01*
X154019533Y-78812123D01*
X154719806Y-79080388D01*
X155469435Y-79060250D01*
X156068467Y-78812123D01*
X156197715Y-78519320D01*
X158090285Y-78519320D01*
X158219533Y-78812123D01*
X158919806Y-79080388D01*
X159669435Y-79060250D01*
X160268467Y-78812123D01*
X160397715Y-78519320D01*
X162290285Y-78519320D01*
X162419533Y-78812123D01*
X163119806Y-79080388D01*
X163869435Y-79060250D01*
X164468467Y-78812123D01*
X164597715Y-78519320D01*
X163444000Y-77365605D01*
X162290285Y-78519320D01*
X160397715Y-78519320D01*
X159244000Y-77365605D01*
X158090285Y-78519320D01*
X156197715Y-78519320D01*
X155044000Y-77365605D01*
X153890285Y-78519320D01*
X151740514Y-78519320D01*
X152180136Y-78080465D01*
X152420725Y-77501061D01*
X152421273Y-76873692D01*
X152416362Y-76861806D01*
X153149612Y-76861806D01*
X153169750Y-77611435D01*
X153417877Y-78210467D01*
X153710680Y-78339715D01*
X154864395Y-77186000D01*
X155223605Y-77186000D01*
X156377320Y-78339715D01*
X156670123Y-78210467D01*
X156938388Y-77510194D01*
X156920970Y-76861806D01*
X157349612Y-76861806D01*
X157369750Y-77611435D01*
X157617877Y-78210467D01*
X157910680Y-78339715D01*
X159064395Y-77186000D01*
X159423605Y-77186000D01*
X160577320Y-78339715D01*
X160870123Y-78210467D01*
X161138388Y-77510194D01*
X161120970Y-76861806D01*
X161549612Y-76861806D01*
X161569750Y-77611435D01*
X161817877Y-78210467D01*
X162110680Y-78339715D01*
X163264395Y-77186000D01*
X163623605Y-77186000D01*
X164777320Y-78339715D01*
X165070123Y-78210467D01*
X165338388Y-77510194D01*
X165338069Y-77498308D01*
X166066727Y-77498308D01*
X166306305Y-78078132D01*
X166749535Y-78522136D01*
X167328939Y-78762725D01*
X167956308Y-78763273D01*
X168536132Y-78523695D01*
X168980136Y-78080465D01*
X169220725Y-77501061D01*
X169220727Y-77498308D01*
X170266727Y-77498308D01*
X170506305Y-78078132D01*
X170949535Y-78522136D01*
X171528939Y-78762725D01*
X172156308Y-78763273D01*
X172736132Y-78523695D01*
X173180136Y-78080465D01*
X173420725Y-77501061D01*
X173420727Y-77498308D01*
X174466727Y-77498308D01*
X174706305Y-78078132D01*
X175149535Y-78522136D01*
X175728939Y-78762725D01*
X176356308Y-78763273D01*
X176936132Y-78523695D01*
X177380136Y-78080465D01*
X177620725Y-77501061D01*
X177620727Y-77498308D01*
X178666727Y-77498308D01*
X178906305Y-78078132D01*
X179349535Y-78522136D01*
X179928939Y-78762725D01*
X180556308Y-78763273D01*
X181136132Y-78523695D01*
X181140514Y-78519320D01*
X183290285Y-78519320D01*
X183419533Y-78812123D01*
X184119806Y-79080388D01*
X184869435Y-79060250D01*
X185468467Y-78812123D01*
X185597715Y-78519320D01*
X184444000Y-77365605D01*
X183290285Y-78519320D01*
X181140514Y-78519320D01*
X181580136Y-78080465D01*
X181820725Y-77501061D01*
X181821273Y-76873692D01*
X181816362Y-76861806D01*
X182549612Y-76861806D01*
X182569750Y-77611435D01*
X182817877Y-78210467D01*
X183110680Y-78339715D01*
X184264395Y-77186000D01*
X184623605Y-77186000D01*
X185777320Y-78339715D01*
X186070123Y-78210467D01*
X186338388Y-77510194D01*
X186318250Y-76760565D01*
X186070123Y-76161533D01*
X185777320Y-76032285D01*
X184623605Y-77186000D01*
X184264395Y-77186000D01*
X183110680Y-76032285D01*
X182817877Y-76161533D01*
X182549612Y-76861806D01*
X181816362Y-76861806D01*
X181581695Y-76293868D01*
X181141277Y-75852680D01*
X183290285Y-75852680D01*
X184444000Y-77006395D01*
X185597715Y-75852680D01*
X185468467Y-75559877D01*
X184768194Y-75291612D01*
X184018565Y-75311750D01*
X183419533Y-75559877D01*
X183290285Y-75852680D01*
X181141277Y-75852680D01*
X181138465Y-75849864D01*
X180559061Y-75609275D01*
X179931692Y-75608727D01*
X179351868Y-75848305D01*
X178907864Y-76291535D01*
X178667275Y-76870939D01*
X178666727Y-77498308D01*
X177620727Y-77498308D01*
X177621273Y-76873692D01*
X177381695Y-76293868D01*
X176938465Y-75849864D01*
X176359061Y-75609275D01*
X175731692Y-75608727D01*
X175151868Y-75848305D01*
X174707864Y-76291535D01*
X174467275Y-76870939D01*
X174466727Y-77498308D01*
X173420727Y-77498308D01*
X173421273Y-76873692D01*
X173181695Y-76293868D01*
X172738465Y-75849864D01*
X172159061Y-75609275D01*
X171531692Y-75608727D01*
X170951868Y-75848305D01*
X170507864Y-76291535D01*
X170267275Y-76870939D01*
X170266727Y-77498308D01*
X169220727Y-77498308D01*
X169221273Y-76873692D01*
X168981695Y-76293868D01*
X168538465Y-75849864D01*
X167959061Y-75609275D01*
X167331692Y-75608727D01*
X166751868Y-75848305D01*
X166307864Y-76291535D01*
X166067275Y-76870939D01*
X166066727Y-77498308D01*
X165338069Y-77498308D01*
X165318250Y-76760565D01*
X165070123Y-76161533D01*
X164777320Y-76032285D01*
X163623605Y-77186000D01*
X163264395Y-77186000D01*
X162110680Y-76032285D01*
X161817877Y-76161533D01*
X161549612Y-76861806D01*
X161120970Y-76861806D01*
X161118250Y-76760565D01*
X160870123Y-76161533D01*
X160577320Y-76032285D01*
X159423605Y-77186000D01*
X159064395Y-77186000D01*
X157910680Y-76032285D01*
X157617877Y-76161533D01*
X157349612Y-76861806D01*
X156920970Y-76861806D01*
X156918250Y-76760565D01*
X156670123Y-76161533D01*
X156377320Y-76032285D01*
X155223605Y-77186000D01*
X154864395Y-77186000D01*
X153710680Y-76032285D01*
X153417877Y-76161533D01*
X153149612Y-76861806D01*
X152416362Y-76861806D01*
X152181695Y-76293868D01*
X151741277Y-75852680D01*
X153890285Y-75852680D01*
X155044000Y-77006395D01*
X156197715Y-75852680D01*
X158090285Y-75852680D01*
X159244000Y-77006395D01*
X160397715Y-75852680D01*
X162290285Y-75852680D01*
X163444000Y-77006395D01*
X164597715Y-75852680D01*
X164468467Y-75559877D01*
X163768194Y-75291612D01*
X163018565Y-75311750D01*
X162419533Y-75559877D01*
X162290285Y-75852680D01*
X160397715Y-75852680D01*
X160268467Y-75559877D01*
X159568194Y-75291612D01*
X158818565Y-75311750D01*
X158219533Y-75559877D01*
X158090285Y-75852680D01*
X156197715Y-75852680D01*
X156068467Y-75559877D01*
X155368194Y-75291612D01*
X154618565Y-75311750D01*
X154019533Y-75559877D01*
X153890285Y-75852680D01*
X151741277Y-75852680D01*
X151738465Y-75849864D01*
X151159061Y-75609275D01*
X150531692Y-75608727D01*
X149951868Y-75848305D01*
X149507864Y-76291535D01*
X149267275Y-76870939D01*
X149266727Y-77498308D01*
X148538069Y-77498308D01*
X148518250Y-76760565D01*
X148270123Y-76161533D01*
X147977320Y-76032285D01*
X146823605Y-77186000D01*
X146464395Y-77186000D01*
X145310680Y-76032285D01*
X145017877Y-76161533D01*
X144749612Y-76861806D01*
X144016362Y-76861806D01*
X143781695Y-76293868D01*
X143341277Y-75852680D01*
X145490285Y-75852680D01*
X146644000Y-77006395D01*
X147797715Y-75852680D01*
X147668467Y-75559877D01*
X146968194Y-75291612D01*
X146218565Y-75311750D01*
X145619533Y-75559877D01*
X145490285Y-75852680D01*
X143341277Y-75852680D01*
X143338465Y-75849864D01*
X142759061Y-75609275D01*
X142131692Y-75608727D01*
X141551868Y-75848305D01*
X141107864Y-76291535D01*
X140867275Y-76870939D01*
X140866727Y-77498308D01*
X139820727Y-77498308D01*
X139821273Y-76873692D01*
X139581695Y-76293868D01*
X139138465Y-75849864D01*
X138559061Y-75609275D01*
X137931692Y-75608727D01*
X137351868Y-75848305D01*
X136907864Y-76291535D01*
X136667275Y-76870939D01*
X136666727Y-77498308D01*
X134409000Y-77498308D01*
X134409000Y-70136000D01*
X136660594Y-70136000D01*
X136660594Y-72636000D01*
X136683395Y-72757179D01*
X136755012Y-72868474D01*
X136864286Y-72943138D01*
X136994000Y-72969406D01*
X139494000Y-72969406D01*
X139615179Y-72946605D01*
X139726474Y-72874988D01*
X139801138Y-72765714D01*
X139827406Y-72636000D01*
X139827406Y-71698308D01*
X140866727Y-71698308D01*
X141106305Y-72278132D01*
X141549535Y-72722136D01*
X142128939Y-72962725D01*
X142756308Y-72963273D01*
X143336132Y-72723695D01*
X143340514Y-72719320D01*
X145490285Y-72719320D01*
X145619533Y-73012123D01*
X146319806Y-73280388D01*
X147069435Y-73260250D01*
X147668467Y-73012123D01*
X147797715Y-72719320D01*
X146644000Y-71565605D01*
X145490285Y-72719320D01*
X143340514Y-72719320D01*
X143780136Y-72280465D01*
X144020725Y-71701061D01*
X144021273Y-71073692D01*
X144016362Y-71061806D01*
X144749612Y-71061806D01*
X144769750Y-71811435D01*
X145017877Y-72410467D01*
X145310680Y-72539715D01*
X146464395Y-71386000D01*
X146823605Y-71386000D01*
X147977320Y-72539715D01*
X148270123Y-72410467D01*
X148538388Y-71710194D01*
X148538069Y-71698308D01*
X149266727Y-71698308D01*
X149506305Y-72278132D01*
X149949535Y-72722136D01*
X150528939Y-72962725D01*
X151156308Y-72963273D01*
X151736132Y-72723695D01*
X151740514Y-72719320D01*
X153890285Y-72719320D01*
X154019533Y-73012123D01*
X154719806Y-73280388D01*
X155469435Y-73260250D01*
X156068467Y-73012123D01*
X156197715Y-72719320D01*
X155044000Y-71565605D01*
X153890285Y-72719320D01*
X151740514Y-72719320D01*
X152180136Y-72280465D01*
X152420725Y-71701061D01*
X152421273Y-71073692D01*
X152416362Y-71061806D01*
X153149612Y-71061806D01*
X153169750Y-71811435D01*
X153417877Y-72410467D01*
X153710680Y-72539715D01*
X154864395Y-71386000D01*
X155223605Y-71386000D01*
X156377320Y-72539715D01*
X156670123Y-72410467D01*
X156938388Y-71710194D01*
X156938069Y-71698308D01*
X157666727Y-71698308D01*
X157906305Y-72278132D01*
X158349535Y-72722136D01*
X158928939Y-72962725D01*
X159556308Y-72963273D01*
X160136132Y-72723695D01*
X160140514Y-72719320D01*
X162290285Y-72719320D01*
X162419533Y-73012123D01*
X163119806Y-73280388D01*
X163869435Y-73260250D01*
X164468467Y-73012123D01*
X164597715Y-72719320D01*
X163444000Y-71565605D01*
X162290285Y-72719320D01*
X160140514Y-72719320D01*
X160580136Y-72280465D01*
X160820725Y-71701061D01*
X160821273Y-71073692D01*
X160816362Y-71061806D01*
X161549612Y-71061806D01*
X161569750Y-71811435D01*
X161817877Y-72410467D01*
X162110680Y-72539715D01*
X163264395Y-71386000D01*
X163623605Y-71386000D01*
X164777320Y-72539715D01*
X165070123Y-72410467D01*
X165338388Y-71710194D01*
X165338069Y-71698308D01*
X166066727Y-71698308D01*
X166306305Y-72278132D01*
X166749535Y-72722136D01*
X167328939Y-72962725D01*
X167956308Y-72963273D01*
X168536132Y-72723695D01*
X168980136Y-72280465D01*
X169220725Y-71701061D01*
X169220727Y-71698308D01*
X170266727Y-71698308D01*
X170506305Y-72278132D01*
X170949535Y-72722136D01*
X171528939Y-72962725D01*
X172156308Y-72963273D01*
X172736132Y-72723695D01*
X173180136Y-72280465D01*
X173420725Y-71701061D01*
X173420727Y-71698308D01*
X174466727Y-71698308D01*
X174706305Y-72278132D01*
X175149535Y-72722136D01*
X175728939Y-72962725D01*
X176356308Y-72963273D01*
X176936132Y-72723695D01*
X177380136Y-72280465D01*
X177620725Y-71701061D01*
X177620727Y-71698308D01*
X178666727Y-71698308D01*
X178906305Y-72278132D01*
X179349535Y-72722136D01*
X179928939Y-72962725D01*
X180556308Y-72963273D01*
X181136132Y-72723695D01*
X181580136Y-72280465D01*
X181820725Y-71701061D01*
X181820727Y-71698308D01*
X182866727Y-71698308D01*
X183106305Y-72278132D01*
X183549535Y-72722136D01*
X184128939Y-72962725D01*
X184756308Y-72963273D01*
X185336132Y-72723695D01*
X185780136Y-72280465D01*
X186020725Y-71701061D01*
X186021273Y-71073692D01*
X185781695Y-70493868D01*
X185338465Y-70049864D01*
X184759061Y-69809275D01*
X184131692Y-69808727D01*
X183551868Y-70048305D01*
X183107864Y-70491535D01*
X182867275Y-71070939D01*
X182866727Y-71698308D01*
X181820727Y-71698308D01*
X181821273Y-71073692D01*
X181581695Y-70493868D01*
X181138465Y-70049864D01*
X180559061Y-69809275D01*
X179931692Y-69808727D01*
X179351868Y-70048305D01*
X178907864Y-70491535D01*
X178667275Y-71070939D01*
X178666727Y-71698308D01*
X177620727Y-71698308D01*
X177621273Y-71073692D01*
X177381695Y-70493868D01*
X176938465Y-70049864D01*
X176359061Y-69809275D01*
X175731692Y-69808727D01*
X175151868Y-70048305D01*
X174707864Y-70491535D01*
X174467275Y-71070939D01*
X174466727Y-71698308D01*
X173420727Y-71698308D01*
X173421273Y-71073692D01*
X173181695Y-70493868D01*
X172738465Y-70049864D01*
X172159061Y-69809275D01*
X171531692Y-69808727D01*
X170951868Y-70048305D01*
X170507864Y-70491535D01*
X170267275Y-71070939D01*
X170266727Y-71698308D01*
X169220727Y-71698308D01*
X169221273Y-71073692D01*
X168981695Y-70493868D01*
X168538465Y-70049864D01*
X167959061Y-69809275D01*
X167331692Y-69808727D01*
X166751868Y-70048305D01*
X166307864Y-70491535D01*
X166067275Y-71070939D01*
X166066727Y-71698308D01*
X165338069Y-71698308D01*
X165318250Y-70960565D01*
X165070123Y-70361533D01*
X164777320Y-70232285D01*
X163623605Y-71386000D01*
X163264395Y-71386000D01*
X162110680Y-70232285D01*
X161817877Y-70361533D01*
X161549612Y-71061806D01*
X160816362Y-71061806D01*
X160581695Y-70493868D01*
X160141277Y-70052680D01*
X162290285Y-70052680D01*
X163444000Y-71206395D01*
X164597715Y-70052680D01*
X164468467Y-69759877D01*
X163768194Y-69491612D01*
X163018565Y-69511750D01*
X162419533Y-69759877D01*
X162290285Y-70052680D01*
X160141277Y-70052680D01*
X160138465Y-70049864D01*
X159559061Y-69809275D01*
X158931692Y-69808727D01*
X158351868Y-70048305D01*
X157907864Y-70491535D01*
X157667275Y-71070939D01*
X157666727Y-71698308D01*
X156938069Y-71698308D01*
X156918250Y-70960565D01*
X156670123Y-70361533D01*
X156377320Y-70232285D01*
X155223605Y-71386000D01*
X154864395Y-71386000D01*
X153710680Y-70232285D01*
X153417877Y-70361533D01*
X153149612Y-71061806D01*
X152416362Y-71061806D01*
X152181695Y-70493868D01*
X151741277Y-70052680D01*
X153890285Y-70052680D01*
X155044000Y-71206395D01*
X156197715Y-70052680D01*
X156068467Y-69759877D01*
X155368194Y-69491612D01*
X154618565Y-69511750D01*
X154019533Y-69759877D01*
X153890285Y-70052680D01*
X151741277Y-70052680D01*
X151738465Y-70049864D01*
X151159061Y-69809275D01*
X150531692Y-69808727D01*
X149951868Y-70048305D01*
X149507864Y-70491535D01*
X149267275Y-71070939D01*
X149266727Y-71698308D01*
X148538069Y-71698308D01*
X148518250Y-70960565D01*
X148270123Y-70361533D01*
X147977320Y-70232285D01*
X146823605Y-71386000D01*
X146464395Y-71386000D01*
X145310680Y-70232285D01*
X145017877Y-70361533D01*
X144749612Y-71061806D01*
X144016362Y-71061806D01*
X143781695Y-70493868D01*
X143341277Y-70052680D01*
X145490285Y-70052680D01*
X146644000Y-71206395D01*
X147797715Y-70052680D01*
X147668467Y-69759877D01*
X146968194Y-69491612D01*
X146218565Y-69511750D01*
X145619533Y-69759877D01*
X145490285Y-70052680D01*
X143341277Y-70052680D01*
X143338465Y-70049864D01*
X142759061Y-69809275D01*
X142131692Y-69808727D01*
X141551868Y-70048305D01*
X141107864Y-70491535D01*
X140867275Y-71070939D01*
X140866727Y-71698308D01*
X139827406Y-71698308D01*
X139827406Y-70136000D01*
X139804605Y-70014821D01*
X139732988Y-69903526D01*
X139623714Y-69828862D01*
X139494000Y-69802594D01*
X136994000Y-69802594D01*
X136872821Y-69825395D01*
X136761526Y-69897012D01*
X136686862Y-70006286D01*
X136660594Y-70136000D01*
X134409000Y-70136000D01*
X134409000Y-67438946D01*
X160954017Y-67438946D01*
X161222812Y-68024379D01*
X161695182Y-68462385D01*
X162177056Y-68661975D01*
X162433000Y-68542836D01*
X162433000Y-67183000D01*
X161072633Y-67183000D01*
X160954017Y-67438946D01*
X134409000Y-67438946D01*
X134409000Y-66673054D01*
X160954017Y-66673054D01*
X161072633Y-66929000D01*
X162433000Y-66929000D01*
X162433000Y-65569164D01*
X162687000Y-65569164D01*
X162687000Y-66929000D01*
X162707000Y-66929000D01*
X162707000Y-67183000D01*
X162687000Y-67183000D01*
X162687000Y-68542836D01*
X162942944Y-68661975D01*
X163424818Y-68462385D01*
X163764742Y-68147190D01*
X163773395Y-68193179D01*
X163845012Y-68304474D01*
X163954286Y-68379138D01*
X164084000Y-68405406D01*
X166116000Y-68405406D01*
X166237179Y-68382605D01*
X166348474Y-68310988D01*
X166423138Y-68201714D01*
X166449406Y-68072000D01*
X166449406Y-66040000D01*
X166431646Y-65945609D01*
X189092517Y-65945609D01*
X189221725Y-66238379D01*
X189921883Y-66506591D01*
X190671384Y-66486448D01*
X191270275Y-66238379D01*
X191399483Y-65945609D01*
X190246000Y-64792125D01*
X189092517Y-65945609D01*
X166431646Y-65945609D01*
X166426605Y-65918821D01*
X166354988Y-65807526D01*
X166245714Y-65732862D01*
X166116000Y-65706594D01*
X164084000Y-65706594D01*
X163962821Y-65729395D01*
X163851526Y-65801012D01*
X163776862Y-65910286D01*
X163765650Y-65965652D01*
X163424818Y-65649615D01*
X162942944Y-65450025D01*
X162687000Y-65569164D01*
X162433000Y-65569164D01*
X162177056Y-65450025D01*
X161695182Y-65649615D01*
X161222812Y-66087621D01*
X160954017Y-66673054D01*
X134409000Y-66673054D01*
X134409000Y-64897000D01*
X140393420Y-64897000D01*
X140393420Y-65197990D01*
X140524580Y-65603373D01*
X140800889Y-65927706D01*
X141184065Y-66114981D01*
X141351000Y-65988068D01*
X141351000Y-64897000D01*
X140393420Y-64897000D01*
X134409000Y-64897000D01*
X134409000Y-64688000D01*
X134401756Y-64651581D01*
X134401756Y-64614451D01*
X134347565Y-64342010D01*
X140393420Y-64342010D01*
X140393420Y-64643000D01*
X141351000Y-64643000D01*
X141351000Y-63551932D01*
X141605000Y-63551932D01*
X141605000Y-64643000D01*
X141625000Y-64643000D01*
X141625000Y-64897000D01*
X141605000Y-64897000D01*
X141605000Y-65988068D01*
X141771935Y-66114981D01*
X142155111Y-65927706D01*
X142326514Y-65726512D01*
X142450816Y-65809567D01*
X142748000Y-65868681D01*
X143045184Y-65809567D01*
X143297125Y-65641226D01*
X143383000Y-65512705D01*
X143468875Y-65641226D01*
X143720816Y-65809567D01*
X144018000Y-65868681D01*
X144315184Y-65809567D01*
X144567125Y-65641226D01*
X144735466Y-65389285D01*
X144794580Y-65092101D01*
X144794580Y-65032697D01*
X146247281Y-65032697D01*
X146448801Y-65520414D01*
X146821623Y-65893887D01*
X147308987Y-66096259D01*
X147836697Y-66096719D01*
X148324414Y-65895199D01*
X148697887Y-65522377D01*
X148900259Y-65035013D01*
X148900261Y-65032697D01*
X153867281Y-65032697D01*
X154068801Y-65520414D01*
X154441623Y-65893887D01*
X154928987Y-66096259D01*
X155456697Y-66096719D01*
X155944414Y-65895199D01*
X156317887Y-65522377D01*
X156520259Y-65035013D01*
X156520719Y-64507303D01*
X156319199Y-64019586D01*
X155946377Y-63646113D01*
X155459013Y-63443741D01*
X154931303Y-63443281D01*
X154443586Y-63644801D01*
X154070113Y-64017623D01*
X153867741Y-64504987D01*
X153867281Y-65032697D01*
X148900261Y-65032697D01*
X148900719Y-64507303D01*
X148699199Y-64019586D01*
X148326377Y-63646113D01*
X147839013Y-63443741D01*
X147311303Y-63443281D01*
X146823586Y-63644801D01*
X146450113Y-64017623D01*
X146247741Y-64504987D01*
X146247281Y-65032697D01*
X144794580Y-65032697D01*
X144794580Y-64447899D01*
X144735466Y-64150715D01*
X144567125Y-63898774D01*
X144315184Y-63730433D01*
X144018000Y-63671319D01*
X143720816Y-63730433D01*
X143468875Y-63898774D01*
X143383000Y-64027295D01*
X143297125Y-63898774D01*
X143045184Y-63730433D01*
X142748000Y-63671319D01*
X142450816Y-63730433D01*
X142326514Y-63813488D01*
X142155111Y-63612294D01*
X141771935Y-63425019D01*
X141605000Y-63551932D01*
X141351000Y-63551932D01*
X141184065Y-63425019D01*
X140800889Y-63612294D01*
X140524580Y-63936627D01*
X140393420Y-64342010D01*
X134347565Y-64342010D01*
X134325636Y-64231768D01*
X134269345Y-64095867D01*
X134269342Y-64095864D01*
X134052571Y-63771443D01*
X133948557Y-63667429D01*
X133624136Y-63450658D01*
X133624133Y-63450655D01*
X133553555Y-63421421D01*
X133488232Y-63394363D01*
X133488227Y-63394363D01*
X133120858Y-63321289D01*
X158829400Y-63321289D01*
X158829400Y-63678711D01*
X158920029Y-64134334D01*
X159178119Y-64520592D01*
X159564377Y-64778682D01*
X160020000Y-64869311D01*
X160475623Y-64778682D01*
X160861881Y-64520592D01*
X161119971Y-64134334D01*
X161210600Y-63678711D01*
X161210600Y-63321289D01*
X161119971Y-62865666D01*
X160861881Y-62479408D01*
X160475623Y-62221318D01*
X160020000Y-62130689D01*
X159564377Y-62221318D01*
X159178119Y-62479408D01*
X158920029Y-62865666D01*
X158829400Y-63321289D01*
X133120858Y-63321289D01*
X133105549Y-63318244D01*
X133068419Y-63318244D01*
X133032000Y-63311000D01*
X130069131Y-63311000D01*
X129796415Y-63256754D01*
X129596695Y-63123305D01*
X129463246Y-62923585D01*
X129409000Y-62650869D01*
X129409000Y-57689750D01*
X142265400Y-57689750D01*
X142265400Y-58393910D01*
X142362073Y-58627299D01*
X142540702Y-58805927D01*
X142774091Y-58902600D01*
X143478250Y-58902600D01*
X143637000Y-58743850D01*
X143637000Y-57531000D01*
X142424150Y-57531000D01*
X142265400Y-57689750D01*
X129409000Y-57689750D01*
X129409000Y-56414090D01*
X142265400Y-56414090D01*
X142265400Y-57118250D01*
X142424150Y-57277000D01*
X143637000Y-57277000D01*
X143637000Y-57257000D01*
X143891000Y-57257000D01*
X143891000Y-57277000D01*
X143911000Y-57277000D01*
X143911000Y-57531000D01*
X143891000Y-57531000D01*
X143891000Y-58743850D01*
X144049750Y-58902600D01*
X144753909Y-58902600D01*
X144987298Y-58805927D01*
X145165927Y-58627299D01*
X145262600Y-58393910D01*
X145262600Y-57982189D01*
X145438794Y-58245881D01*
X145825052Y-58503971D01*
X146280675Y-58594600D01*
X146327325Y-58594600D01*
X146782948Y-58503971D01*
X147169206Y-58245881D01*
X147427296Y-57859623D01*
X147427866Y-57856760D01*
X147561312Y-58178947D01*
X147955510Y-58610821D01*
X148484973Y-58858968D01*
X148717000Y-58738469D01*
X148717000Y-57531000D01*
X148697000Y-57531000D01*
X148697000Y-57277000D01*
X148717000Y-57277000D01*
X148717000Y-57257000D01*
X148971000Y-57257000D01*
X148971000Y-57277000D01*
X148991000Y-57277000D01*
X148991000Y-57531000D01*
X148971000Y-57531000D01*
X148971000Y-58738469D01*
X149203027Y-58858968D01*
X149732490Y-58610821D01*
X150126688Y-58178947D01*
X150260134Y-57856760D01*
X150260704Y-57859623D01*
X150518794Y-58245881D01*
X150905052Y-58503971D01*
X151360675Y-58594600D01*
X151407325Y-58594600D01*
X151862948Y-58503971D01*
X152221563Y-58264351D01*
X152236406Y-58338973D01*
X152334388Y-58485612D01*
X153350388Y-59501612D01*
X153497027Y-59599594D01*
X153670000Y-59634000D01*
X161102776Y-59634000D01*
X162108000Y-60639224D01*
X162108000Y-62220597D01*
X162104377Y-62221318D01*
X161718119Y-62479408D01*
X161460029Y-62865666D01*
X161369400Y-63321289D01*
X161369400Y-63678711D01*
X161460029Y-64134334D01*
X161718119Y-64520592D01*
X162104377Y-64778682D01*
X162560000Y-64869311D01*
X163015623Y-64778682D01*
X163401881Y-64520592D01*
X163659971Y-64134334D01*
X163750600Y-63678711D01*
X163750600Y-63321289D01*
X163659971Y-62865666D01*
X163404950Y-62484000D01*
X163902994Y-62484000D01*
X163902994Y-64516000D01*
X163925795Y-64637179D01*
X163997412Y-64748474D01*
X164106686Y-64823138D01*
X164236400Y-64849406D01*
X165963600Y-64849406D01*
X166084779Y-64826605D01*
X166196074Y-64754988D01*
X166270738Y-64645714D01*
X166297006Y-64516000D01*
X166297006Y-64288403D01*
X188351929Y-64288403D01*
X188372072Y-65037904D01*
X188620141Y-65636795D01*
X188912911Y-65766003D01*
X190066395Y-64612520D01*
X190425605Y-64612520D01*
X191579089Y-65766003D01*
X191871859Y-65636795D01*
X192140071Y-64936637D01*
X192119928Y-64187136D01*
X191871859Y-63588245D01*
X191579089Y-63459037D01*
X190425605Y-64612520D01*
X190066395Y-64612520D01*
X188912911Y-63459037D01*
X188620141Y-63588245D01*
X188351929Y-64288403D01*
X166297006Y-64288403D01*
X166297006Y-62492697D01*
X168091281Y-62492697D01*
X168292801Y-62980414D01*
X168665623Y-63353887D01*
X169152987Y-63556259D01*
X169680697Y-63556719D01*
X170168414Y-63355199D01*
X170541887Y-62982377D01*
X170744259Y-62495013D01*
X170744261Y-62492697D01*
X171393281Y-62492697D01*
X171594801Y-62980414D01*
X171967623Y-63353887D01*
X172454987Y-63556259D01*
X172982697Y-63556719D01*
X173470414Y-63355199D01*
X173843887Y-62982377D01*
X174046259Y-62495013D01*
X174046719Y-61967303D01*
X173845199Y-61479586D01*
X173472377Y-61106113D01*
X172985013Y-60903741D01*
X172457303Y-60903281D01*
X171969586Y-61104801D01*
X171596113Y-61477623D01*
X171393741Y-61964987D01*
X171393281Y-62492697D01*
X170744261Y-62492697D01*
X170744719Y-61967303D01*
X170543199Y-61479586D01*
X170170377Y-61106113D01*
X169683013Y-60903741D01*
X169155303Y-60903281D01*
X168667586Y-61104801D01*
X168294113Y-61477623D01*
X168091741Y-61964987D01*
X168091281Y-62492697D01*
X166297006Y-62492697D01*
X166297006Y-62484000D01*
X166274205Y-62362821D01*
X166202588Y-62251526D01*
X166093314Y-62176862D01*
X165963600Y-62150594D01*
X164236400Y-62150594D01*
X164115221Y-62173395D01*
X164003926Y-62245012D01*
X163929262Y-62354286D01*
X163902994Y-62484000D01*
X163404950Y-62484000D01*
X163401881Y-62479408D01*
X163015623Y-62221318D01*
X163012000Y-62220597D01*
X163012000Y-60452000D01*
X162977594Y-60279027D01*
X162879612Y-60132388D01*
X162670729Y-59923505D01*
X176167167Y-59923505D01*
X176406696Y-60503211D01*
X176849836Y-60947125D01*
X177429123Y-61187666D01*
X178056365Y-61188213D01*
X178636071Y-60948684D01*
X179004908Y-60580490D01*
X179499013Y-61776317D01*
X180574660Y-62853843D01*
X181980779Y-63437714D01*
X183503301Y-63439043D01*
X183889592Y-63279431D01*
X189092517Y-63279431D01*
X190246000Y-64432915D01*
X191399483Y-63279431D01*
X191270275Y-62986661D01*
X190570117Y-62718449D01*
X189820616Y-62738592D01*
X189221725Y-62986661D01*
X189092517Y-63279431D01*
X183889592Y-63279431D01*
X184910437Y-62857627D01*
X185987963Y-61781980D01*
X186571834Y-60375861D01*
X186573163Y-58853339D01*
X185991747Y-57446203D01*
X184916100Y-56368677D01*
X183509981Y-55784806D01*
X181987459Y-55783477D01*
X180580323Y-56364893D01*
X179502797Y-57440540D01*
X179004043Y-58641673D01*
X178638404Y-58275395D01*
X178059117Y-58034854D01*
X177431875Y-58034307D01*
X176852169Y-58273836D01*
X176408255Y-58716976D01*
X176167714Y-59296263D01*
X176167167Y-59923505D01*
X162670729Y-59923505D01*
X161609612Y-58862388D01*
X161462973Y-58764406D01*
X161290000Y-58730000D01*
X153857224Y-58730000D01*
X153677415Y-58550191D01*
X153900675Y-58594600D01*
X153947325Y-58594600D01*
X154402948Y-58503971D01*
X154789206Y-58245881D01*
X155047296Y-57859623D01*
X155137925Y-57404000D01*
X155250075Y-57404000D01*
X155340704Y-57859623D01*
X155598794Y-58245881D01*
X155985052Y-58503971D01*
X156440675Y-58594600D01*
X156487325Y-58594600D01*
X156942948Y-58503971D01*
X157329206Y-58245881D01*
X157587296Y-57859623D01*
X157677925Y-57404000D01*
X157790075Y-57404000D01*
X157880704Y-57859623D01*
X158138794Y-58245881D01*
X158525052Y-58503971D01*
X158980675Y-58594600D01*
X159027325Y-58594600D01*
X159482948Y-58503971D01*
X159869206Y-58245881D01*
X160127296Y-57859623D01*
X160217925Y-57404000D01*
X160127296Y-56948377D01*
X159869206Y-56562119D01*
X159482948Y-56304029D01*
X159027325Y-56213400D01*
X158980675Y-56213400D01*
X158525052Y-56304029D01*
X158138794Y-56562119D01*
X157880704Y-56948377D01*
X157790075Y-57404000D01*
X157677925Y-57404000D01*
X157587296Y-56948377D01*
X157329206Y-56562119D01*
X156942948Y-56304029D01*
X156487325Y-56213400D01*
X156440675Y-56213400D01*
X155985052Y-56304029D01*
X155598794Y-56562119D01*
X155340704Y-56948377D01*
X155250075Y-57404000D01*
X155137925Y-57404000D01*
X155047296Y-56948377D01*
X154789206Y-56562119D01*
X154402948Y-56304029D01*
X153947325Y-56213400D01*
X153900675Y-56213400D01*
X153445052Y-56304029D01*
X153106000Y-56530577D01*
X153106000Y-55737423D01*
X153445052Y-55963971D01*
X153900675Y-56054600D01*
X153947325Y-56054600D01*
X154402948Y-55963971D01*
X154789206Y-55705881D01*
X155047296Y-55319623D01*
X155137925Y-54864000D01*
X155250075Y-54864000D01*
X155340704Y-55319623D01*
X155598794Y-55705881D01*
X155985052Y-55963971D01*
X156440675Y-56054600D01*
X156487325Y-56054600D01*
X156942948Y-55963971D01*
X157329206Y-55705881D01*
X157587296Y-55319623D01*
X157677925Y-54864000D01*
X157790075Y-54864000D01*
X157880704Y-55319623D01*
X158138794Y-55705881D01*
X158525052Y-55963971D01*
X158980675Y-56054600D01*
X159027325Y-56054600D01*
X159482948Y-55963971D01*
X159869206Y-55705881D01*
X160127296Y-55319623D01*
X160127866Y-55316760D01*
X160261312Y-55638947D01*
X160655510Y-56070821D01*
X161126864Y-56291734D01*
X161065052Y-56304029D01*
X160678794Y-56562119D01*
X160420704Y-56948377D01*
X160330075Y-57404000D01*
X160420704Y-57859623D01*
X160678794Y-58245881D01*
X161065052Y-58503971D01*
X161520675Y-58594600D01*
X161567325Y-58594600D01*
X162022948Y-58503971D01*
X162409206Y-58245881D01*
X162667296Y-57859623D01*
X162757925Y-57404000D01*
X162667296Y-56948377D01*
X162409206Y-56562119D01*
X162022948Y-56304029D01*
X161961136Y-56291734D01*
X162432490Y-56070821D01*
X162826688Y-55638947D01*
X162998958Y-55223026D01*
X162877817Y-54991000D01*
X161671000Y-54991000D01*
X161671000Y-55011000D01*
X161417000Y-55011000D01*
X161417000Y-54991000D01*
X161397000Y-54991000D01*
X161397000Y-54872697D01*
X168091281Y-54872697D01*
X168292801Y-55360414D01*
X168665623Y-55733887D01*
X169152987Y-55936259D01*
X169680697Y-55936719D01*
X170168414Y-55735199D01*
X170541887Y-55362377D01*
X170744259Y-54875013D01*
X170744261Y-54872697D01*
X171393281Y-54872697D01*
X171594801Y-55360414D01*
X171967623Y-55733887D01*
X172454987Y-55936259D01*
X172982697Y-55936719D01*
X173470414Y-55735199D01*
X173843887Y-55362377D01*
X174026646Y-54922245D01*
X188669047Y-54922245D01*
X188908576Y-55501951D01*
X189351716Y-55945865D01*
X189931003Y-56186406D01*
X190558245Y-56186953D01*
X191137951Y-55947424D01*
X191581865Y-55504284D01*
X191822406Y-54924997D01*
X191822953Y-54297755D01*
X191583424Y-53718049D01*
X191140284Y-53274135D01*
X190560997Y-53033594D01*
X189933755Y-53033047D01*
X189354049Y-53272576D01*
X188910135Y-53715716D01*
X188669594Y-54295003D01*
X188669047Y-54922245D01*
X174026646Y-54922245D01*
X174046259Y-54875013D01*
X174046719Y-54347303D01*
X173845199Y-53859586D01*
X173472377Y-53486113D01*
X172985013Y-53283741D01*
X172457303Y-53283281D01*
X171969586Y-53484801D01*
X171596113Y-53857623D01*
X171393741Y-54344987D01*
X171393281Y-54872697D01*
X170744261Y-54872697D01*
X170744719Y-54347303D01*
X170543199Y-53859586D01*
X170170377Y-53486113D01*
X169683013Y-53283741D01*
X169155303Y-53283281D01*
X168667586Y-53484801D01*
X168294113Y-53857623D01*
X168091741Y-54344987D01*
X168091281Y-54872697D01*
X161397000Y-54872697D01*
X161397000Y-54737000D01*
X161417000Y-54737000D01*
X161417000Y-53529531D01*
X161671000Y-53529531D01*
X161671000Y-54737000D01*
X162877817Y-54737000D01*
X162998958Y-54504974D01*
X162826688Y-54089053D01*
X162432490Y-53657179D01*
X161903027Y-53409032D01*
X161671000Y-53529531D01*
X161417000Y-53529531D01*
X161184973Y-53409032D01*
X160655510Y-53657179D01*
X160261312Y-54089053D01*
X160127866Y-54411240D01*
X160127296Y-54408377D01*
X159869206Y-54022119D01*
X159482948Y-53764029D01*
X159027325Y-53673400D01*
X158980675Y-53673400D01*
X158525052Y-53764029D01*
X158138794Y-54022119D01*
X157880704Y-54408377D01*
X157790075Y-54864000D01*
X157677925Y-54864000D01*
X157587296Y-54408377D01*
X157329206Y-54022119D01*
X156942948Y-53764029D01*
X156487325Y-53673400D01*
X156440675Y-53673400D01*
X155985052Y-53764029D01*
X155598794Y-54022119D01*
X155340704Y-54408377D01*
X155250075Y-54864000D01*
X155137925Y-54864000D01*
X155047296Y-54408377D01*
X154789206Y-54022119D01*
X154402948Y-53764029D01*
X153947325Y-53673400D01*
X153900675Y-53673400D01*
X153445052Y-53764029D01*
X153106000Y-53990577D01*
X153106000Y-53086000D01*
X153071594Y-52913027D01*
X152973612Y-52766388D01*
X151836000Y-51628776D01*
X151836000Y-49895423D01*
X152175052Y-50121971D01*
X152630675Y-50212600D01*
X152677325Y-50212600D01*
X153132948Y-50121971D01*
X153519206Y-49863881D01*
X153777296Y-49477623D01*
X153867925Y-49022000D01*
X153980075Y-49022000D01*
X154070704Y-49477623D01*
X154328794Y-49863881D01*
X154715052Y-50121971D01*
X155170675Y-50212600D01*
X155217325Y-50212600D01*
X155672948Y-50121971D01*
X156059206Y-49863881D01*
X156317296Y-49477623D01*
X156407925Y-49022000D01*
X156520075Y-49022000D01*
X156610704Y-49477623D01*
X156868794Y-49863881D01*
X157255052Y-50121971D01*
X157710675Y-50212600D01*
X157757325Y-50212600D01*
X158212948Y-50121971D01*
X158599206Y-49863881D01*
X158857296Y-49477623D01*
X158947925Y-49022000D01*
X158857296Y-48566377D01*
X158599206Y-48180119D01*
X158212948Y-47922029D01*
X157757325Y-47831400D01*
X157710675Y-47831400D01*
X157255052Y-47922029D01*
X156868794Y-48180119D01*
X156610704Y-48566377D01*
X156520075Y-49022000D01*
X156407925Y-49022000D01*
X156317296Y-48566377D01*
X156059206Y-48180119D01*
X155672948Y-47922029D01*
X155217325Y-47831400D01*
X155170675Y-47831400D01*
X154715052Y-47922029D01*
X154328794Y-48180119D01*
X154070704Y-48566377D01*
X153980075Y-49022000D01*
X153867925Y-49022000D01*
X153777296Y-48566377D01*
X153519206Y-48180119D01*
X153132948Y-47922029D01*
X152677325Y-47831400D01*
X152630675Y-47831400D01*
X152175052Y-47922029D01*
X151836000Y-48148577D01*
X151836000Y-47752000D01*
X151801594Y-47579027D01*
X151703612Y-47432388D01*
X151225901Y-46954677D01*
X151237296Y-46937623D01*
X151327925Y-46482000D01*
X151440075Y-46482000D01*
X151530704Y-46937623D01*
X151788794Y-47323881D01*
X152175052Y-47581971D01*
X152630675Y-47672600D01*
X152677325Y-47672600D01*
X153132948Y-47581971D01*
X153519206Y-47323881D01*
X153777296Y-46937623D01*
X153867925Y-46482000D01*
X153980075Y-46482000D01*
X154070704Y-46937623D01*
X154328794Y-47323881D01*
X154715052Y-47581971D01*
X155170675Y-47672600D01*
X155217325Y-47672600D01*
X155672948Y-47581971D01*
X156059206Y-47323881D01*
X156317296Y-46937623D01*
X156407925Y-46482000D01*
X156520075Y-46482000D01*
X156610704Y-46937623D01*
X156868794Y-47323881D01*
X157255052Y-47581971D01*
X157710675Y-47672600D01*
X157757325Y-47672600D01*
X158212948Y-47581971D01*
X158599206Y-47323881D01*
X158857296Y-46937623D01*
X158857866Y-46934760D01*
X158991312Y-47256947D01*
X159385510Y-47688821D01*
X159856864Y-47909734D01*
X159795052Y-47922029D01*
X159408794Y-48180119D01*
X159150704Y-48566377D01*
X159060075Y-49022000D01*
X159150704Y-49477623D01*
X159408794Y-49863881D01*
X159795052Y-50121971D01*
X160250675Y-50212600D01*
X160297325Y-50212600D01*
X160752948Y-50121971D01*
X161139206Y-49863881D01*
X161397296Y-49477623D01*
X161487925Y-49022000D01*
X161600075Y-49022000D01*
X161690704Y-49477623D01*
X161948794Y-49863881D01*
X162335052Y-50121971D01*
X162790675Y-50212600D01*
X162837325Y-50212600D01*
X163292948Y-50121971D01*
X163679206Y-49863881D01*
X163937296Y-49477623D01*
X164027925Y-49022000D01*
X164140075Y-49022000D01*
X164230704Y-49477623D01*
X164488794Y-49863881D01*
X164875052Y-50121971D01*
X165330675Y-50212600D01*
X165377325Y-50212600D01*
X165832948Y-50121971D01*
X166219206Y-49863881D01*
X166477296Y-49477623D01*
X166477866Y-49474760D01*
X166611312Y-49796947D01*
X167005510Y-50228821D01*
X167534973Y-50476968D01*
X167767000Y-50356469D01*
X167767000Y-49149000D01*
X167747000Y-49149000D01*
X167747000Y-48895000D01*
X167767000Y-48895000D01*
X167767000Y-48875000D01*
X168021000Y-48875000D01*
X168021000Y-48895000D01*
X168041000Y-48895000D01*
X168041000Y-49149000D01*
X168021000Y-49149000D01*
X168021000Y-50356469D01*
X168253027Y-50476968D01*
X168782490Y-50228821D01*
X169176688Y-49796947D01*
X169310134Y-49474760D01*
X169310704Y-49477623D01*
X169568794Y-49863881D01*
X169955052Y-50121971D01*
X170410675Y-50212600D01*
X170457325Y-50212600D01*
X170912948Y-50121971D01*
X171299206Y-49863881D01*
X171557296Y-49477623D01*
X171647925Y-49022000D01*
X171557296Y-48566377D01*
X171299206Y-48180119D01*
X170912948Y-47922029D01*
X170457325Y-47831400D01*
X170410675Y-47831400D01*
X169955052Y-47922029D01*
X169568794Y-48180119D01*
X169310704Y-48566377D01*
X169310134Y-48569240D01*
X169176688Y-48247053D01*
X168782490Y-47815179D01*
X168311136Y-47594266D01*
X168372948Y-47581971D01*
X168759206Y-47323881D01*
X169017296Y-46937623D01*
X169107925Y-46482000D01*
X169220075Y-46482000D01*
X169310704Y-46937623D01*
X169568794Y-47323881D01*
X169955052Y-47581971D01*
X170410675Y-47672600D01*
X170457325Y-47672600D01*
X170912948Y-47581971D01*
X171299206Y-47323881D01*
X171557296Y-46937623D01*
X171557866Y-46934760D01*
X171691312Y-47256947D01*
X172085510Y-47688821D01*
X172556864Y-47909734D01*
X172495052Y-47922029D01*
X172108794Y-48180119D01*
X171850704Y-48566377D01*
X171760075Y-49022000D01*
X171850704Y-49477623D01*
X172108794Y-49863881D01*
X172495052Y-50121971D01*
X172950675Y-50212600D01*
X172997325Y-50212600D01*
X173452948Y-50121971D01*
X173839206Y-49863881D01*
X174097296Y-49477623D01*
X174187925Y-49022000D01*
X174300075Y-49022000D01*
X174390704Y-49477623D01*
X174648794Y-49863881D01*
X175035052Y-50121971D01*
X175490675Y-50212600D01*
X175537325Y-50212600D01*
X175992948Y-50121971D01*
X176379206Y-49863881D01*
X176637296Y-49477623D01*
X176727925Y-49022000D01*
X176637296Y-48566377D01*
X176379206Y-48180119D01*
X175992948Y-47922029D01*
X175537325Y-47831400D01*
X175490675Y-47831400D01*
X175035052Y-47922029D01*
X174648794Y-48180119D01*
X174390704Y-48566377D01*
X174300075Y-49022000D01*
X174187925Y-49022000D01*
X174097296Y-48566377D01*
X173839206Y-48180119D01*
X173452948Y-47922029D01*
X173391136Y-47909734D01*
X173862490Y-47688821D01*
X174256688Y-47256947D01*
X174390134Y-46934760D01*
X174390704Y-46937623D01*
X174648794Y-47323881D01*
X175035052Y-47581971D01*
X175490675Y-47672600D01*
X175537325Y-47672600D01*
X175992948Y-47581971D01*
X176379206Y-47323881D01*
X176637296Y-46937623D01*
X176637866Y-46934760D01*
X176771312Y-47256947D01*
X177165510Y-47688821D01*
X177636864Y-47909734D01*
X177575052Y-47922029D01*
X177188794Y-48180119D01*
X176930704Y-48566377D01*
X176840075Y-49022000D01*
X176930704Y-49477623D01*
X177188794Y-49863881D01*
X177575052Y-50121971D01*
X178030675Y-50212600D01*
X178077325Y-50212600D01*
X178532948Y-50121971D01*
X178919206Y-49863881D01*
X179177296Y-49477623D01*
X179267925Y-49022000D01*
X179380075Y-49022000D01*
X179470704Y-49477623D01*
X179728794Y-49863881D01*
X180115052Y-50121971D01*
X180570675Y-50212600D01*
X180617325Y-50212600D01*
X181072948Y-50121971D01*
X181459206Y-49863881D01*
X181717296Y-49477623D01*
X181807925Y-49022000D01*
X181920075Y-49022000D01*
X182010704Y-49477623D01*
X182268794Y-49863881D01*
X182655052Y-50121971D01*
X183110675Y-50212600D01*
X183157325Y-50212600D01*
X183612948Y-50121971D01*
X183999206Y-49863881D01*
X184257296Y-49477623D01*
X184257866Y-49474760D01*
X184391312Y-49796947D01*
X184785510Y-50228821D01*
X185314973Y-50476968D01*
X185547000Y-50356469D01*
X185547000Y-49149000D01*
X185801000Y-49149000D01*
X185801000Y-50356469D01*
X186033027Y-50476968D01*
X186562490Y-50228821D01*
X186956688Y-49796947D01*
X187128958Y-49381026D01*
X187007817Y-49149000D01*
X185801000Y-49149000D01*
X185547000Y-49149000D01*
X185527000Y-49149000D01*
X185527000Y-48895000D01*
X185547000Y-48895000D01*
X185547000Y-48875000D01*
X185801000Y-48875000D01*
X185801000Y-48895000D01*
X187007817Y-48895000D01*
X187128958Y-48662974D01*
X186956688Y-48247053D01*
X186562490Y-47815179D01*
X186091136Y-47594266D01*
X186152948Y-47581971D01*
X186539206Y-47323881D01*
X186797296Y-46937623D01*
X186887925Y-46482000D01*
X186797296Y-46026377D01*
X186539206Y-45640119D01*
X186152948Y-45382029D01*
X185697325Y-45291400D01*
X185650675Y-45291400D01*
X185195052Y-45382029D01*
X184808794Y-45640119D01*
X184550704Y-46026377D01*
X184460075Y-46482000D01*
X184550704Y-46937623D01*
X184808794Y-47323881D01*
X185195052Y-47581971D01*
X185256864Y-47594266D01*
X184785510Y-47815179D01*
X184391312Y-48247053D01*
X184257866Y-48569240D01*
X184257296Y-48566377D01*
X183999206Y-48180119D01*
X183612948Y-47922029D01*
X183157325Y-47831400D01*
X183110675Y-47831400D01*
X182655052Y-47922029D01*
X182268794Y-48180119D01*
X182010704Y-48566377D01*
X181920075Y-49022000D01*
X181807925Y-49022000D01*
X181717296Y-48566377D01*
X181459206Y-48180119D01*
X181072948Y-47922029D01*
X180617325Y-47831400D01*
X180570675Y-47831400D01*
X180115052Y-47922029D01*
X179728794Y-48180119D01*
X179470704Y-48566377D01*
X179380075Y-49022000D01*
X179267925Y-49022000D01*
X179177296Y-48566377D01*
X178919206Y-48180119D01*
X178532948Y-47922029D01*
X178471136Y-47909734D01*
X178942490Y-47688821D01*
X179336688Y-47256947D01*
X179470134Y-46934760D01*
X179470704Y-46937623D01*
X179728794Y-47323881D01*
X180115052Y-47581971D01*
X180570675Y-47672600D01*
X180617325Y-47672600D01*
X181072948Y-47581971D01*
X181459206Y-47323881D01*
X181717296Y-46937623D01*
X181807925Y-46482000D01*
X181920075Y-46482000D01*
X182010704Y-46937623D01*
X182268794Y-47323881D01*
X182655052Y-47581971D01*
X183110675Y-47672600D01*
X183157325Y-47672600D01*
X183612948Y-47581971D01*
X183999206Y-47323881D01*
X184257296Y-46937623D01*
X184347925Y-46482000D01*
X184257296Y-46026377D01*
X183999206Y-45640119D01*
X183612948Y-45382029D01*
X183157325Y-45291400D01*
X183110675Y-45291400D01*
X182655052Y-45382029D01*
X182268794Y-45640119D01*
X182010704Y-46026377D01*
X181920075Y-46482000D01*
X181807925Y-46482000D01*
X181717296Y-46026377D01*
X181459206Y-45640119D01*
X181072948Y-45382029D01*
X180617325Y-45291400D01*
X180570675Y-45291400D01*
X180115052Y-45382029D01*
X179728794Y-45640119D01*
X179470704Y-46026377D01*
X179470134Y-46029240D01*
X179336688Y-45707053D01*
X178942490Y-45275179D01*
X178413027Y-45027032D01*
X178181000Y-45147531D01*
X178181000Y-46355000D01*
X178201000Y-46355000D01*
X178201000Y-46609000D01*
X178181000Y-46609000D01*
X178181000Y-46629000D01*
X177927000Y-46629000D01*
X177927000Y-46609000D01*
X177907000Y-46609000D01*
X177907000Y-46355000D01*
X177927000Y-46355000D01*
X177927000Y-45147531D01*
X177694973Y-45027032D01*
X177165510Y-45275179D01*
X176771312Y-45707053D01*
X176637866Y-46029240D01*
X176637296Y-46026377D01*
X176379206Y-45640119D01*
X175992948Y-45382029D01*
X175537325Y-45291400D01*
X175490675Y-45291400D01*
X175035052Y-45382029D01*
X174648794Y-45640119D01*
X174390704Y-46026377D01*
X174390134Y-46029240D01*
X174256688Y-45707053D01*
X173862490Y-45275179D01*
X173333027Y-45027032D01*
X173101000Y-45147531D01*
X173101000Y-46355000D01*
X173121000Y-46355000D01*
X173121000Y-46609000D01*
X173101000Y-46609000D01*
X173101000Y-46629000D01*
X172847000Y-46629000D01*
X172847000Y-46609000D01*
X172827000Y-46609000D01*
X172827000Y-46355000D01*
X172847000Y-46355000D01*
X172847000Y-45147531D01*
X172614973Y-45027032D01*
X172085510Y-45275179D01*
X171691312Y-45707053D01*
X171557866Y-46029240D01*
X171557296Y-46026377D01*
X171299206Y-45640119D01*
X170912948Y-45382029D01*
X170457325Y-45291400D01*
X170410675Y-45291400D01*
X169955052Y-45382029D01*
X169568794Y-45640119D01*
X169310704Y-46026377D01*
X169220075Y-46482000D01*
X169107925Y-46482000D01*
X169017296Y-46026377D01*
X168759206Y-45640119D01*
X168372948Y-45382029D01*
X167917325Y-45291400D01*
X167870675Y-45291400D01*
X167415052Y-45382029D01*
X167028794Y-45640119D01*
X166770704Y-46026377D01*
X166680075Y-46482000D01*
X166770704Y-46937623D01*
X167028794Y-47323881D01*
X167415052Y-47581971D01*
X167476864Y-47594266D01*
X167005510Y-47815179D01*
X166611312Y-48247053D01*
X166477866Y-48569240D01*
X166477296Y-48566377D01*
X166219206Y-48180119D01*
X165832948Y-47922029D01*
X165377325Y-47831400D01*
X165330675Y-47831400D01*
X164875052Y-47922029D01*
X164488794Y-48180119D01*
X164230704Y-48566377D01*
X164140075Y-49022000D01*
X164027925Y-49022000D01*
X163937296Y-48566377D01*
X163679206Y-48180119D01*
X163292948Y-47922029D01*
X162837325Y-47831400D01*
X162790675Y-47831400D01*
X162335052Y-47922029D01*
X161948794Y-48180119D01*
X161690704Y-48566377D01*
X161600075Y-49022000D01*
X161487925Y-49022000D01*
X161397296Y-48566377D01*
X161139206Y-48180119D01*
X160752948Y-47922029D01*
X160691136Y-47909734D01*
X161162490Y-47688821D01*
X161556688Y-47256947D01*
X161690134Y-46934760D01*
X161690704Y-46937623D01*
X161948794Y-47323881D01*
X162335052Y-47581971D01*
X162790675Y-47672600D01*
X162837325Y-47672600D01*
X163292948Y-47581971D01*
X163679206Y-47323881D01*
X163937296Y-46937623D01*
X164027925Y-46482000D01*
X164140075Y-46482000D01*
X164230704Y-46937623D01*
X164488794Y-47323881D01*
X164875052Y-47581971D01*
X165330675Y-47672600D01*
X165377325Y-47672600D01*
X165832948Y-47581971D01*
X166219206Y-47323881D01*
X166477296Y-46937623D01*
X166567925Y-46482000D01*
X166477296Y-46026377D01*
X166219206Y-45640119D01*
X165832948Y-45382029D01*
X165377325Y-45291400D01*
X165330675Y-45291400D01*
X164875052Y-45382029D01*
X164488794Y-45640119D01*
X164230704Y-46026377D01*
X164140075Y-46482000D01*
X164027925Y-46482000D01*
X163937296Y-46026377D01*
X163679206Y-45640119D01*
X163292948Y-45382029D01*
X162837325Y-45291400D01*
X162790675Y-45291400D01*
X162335052Y-45382029D01*
X161948794Y-45640119D01*
X161690704Y-46026377D01*
X161690134Y-46029240D01*
X161556688Y-45707053D01*
X161162490Y-45275179D01*
X160633027Y-45027032D01*
X160401000Y-45147531D01*
X160401000Y-46355000D01*
X160421000Y-46355000D01*
X160421000Y-46609000D01*
X160401000Y-46609000D01*
X160401000Y-46629000D01*
X160147000Y-46629000D01*
X160147000Y-46609000D01*
X160127000Y-46609000D01*
X160127000Y-46355000D01*
X160147000Y-46355000D01*
X160147000Y-45147531D01*
X159914973Y-45027032D01*
X159385510Y-45275179D01*
X158991312Y-45707053D01*
X158857866Y-46029240D01*
X158857296Y-46026377D01*
X158599206Y-45640119D01*
X158212948Y-45382029D01*
X157757325Y-45291400D01*
X157710675Y-45291400D01*
X157255052Y-45382029D01*
X156868794Y-45640119D01*
X156610704Y-46026377D01*
X156520075Y-46482000D01*
X156407925Y-46482000D01*
X156317296Y-46026377D01*
X156059206Y-45640119D01*
X155672948Y-45382029D01*
X155217325Y-45291400D01*
X155170675Y-45291400D01*
X154715052Y-45382029D01*
X154328794Y-45640119D01*
X154070704Y-46026377D01*
X153980075Y-46482000D01*
X153867925Y-46482000D01*
X153777296Y-46026377D01*
X153519206Y-45640119D01*
X153132948Y-45382029D01*
X152677325Y-45291400D01*
X152630675Y-45291400D01*
X152175052Y-45382029D01*
X151788794Y-45640119D01*
X151530704Y-46026377D01*
X151440075Y-46482000D01*
X151327925Y-46482000D01*
X151237296Y-46026377D01*
X150979206Y-45640119D01*
X150592948Y-45382029D01*
X150137325Y-45291400D01*
X150090675Y-45291400D01*
X149635052Y-45382029D01*
X149248794Y-45640119D01*
X148990704Y-46026377D01*
X148900075Y-46482000D01*
X148990704Y-46937623D01*
X149248794Y-47323881D01*
X149635052Y-47581971D01*
X150090675Y-47672600D01*
X150137325Y-47672600D01*
X150577767Y-47584991D01*
X150932000Y-47939224D01*
X150932000Y-48148577D01*
X150592948Y-47922029D01*
X150137325Y-47831400D01*
X150090675Y-47831400D01*
X149635052Y-47922029D01*
X149248794Y-48180119D01*
X148990704Y-48566377D01*
X148990134Y-48569240D01*
X148856688Y-48247053D01*
X148462490Y-47815179D01*
X147991136Y-47594266D01*
X148052948Y-47581971D01*
X148439206Y-47323881D01*
X148697296Y-46937623D01*
X148787925Y-46482000D01*
X148697296Y-46026377D01*
X148439206Y-45640119D01*
X148052948Y-45382029D01*
X147597325Y-45291400D01*
X147550675Y-45291400D01*
X147095052Y-45382029D01*
X146708794Y-45640119D01*
X146450704Y-46026377D01*
X146360075Y-46482000D01*
X146450704Y-46937623D01*
X146708794Y-47323881D01*
X147095052Y-47581971D01*
X147156864Y-47594266D01*
X146685510Y-47815179D01*
X146291312Y-48247053D01*
X146157866Y-48569240D01*
X146157296Y-48566377D01*
X145899206Y-48180119D01*
X145512948Y-47922029D01*
X145057325Y-47831400D01*
X145010675Y-47831400D01*
X144555052Y-47922029D01*
X144168794Y-48180119D01*
X143910704Y-48566377D01*
X143820075Y-49022000D01*
X143910704Y-49477623D01*
X144168794Y-49863881D01*
X144555052Y-50121971D01*
X145010675Y-50212600D01*
X145057325Y-50212600D01*
X145512948Y-50121971D01*
X145899206Y-49863881D01*
X146157296Y-49477623D01*
X146157866Y-49474760D01*
X146291312Y-49796947D01*
X146685510Y-50228821D01*
X147214973Y-50476968D01*
X147447000Y-50356469D01*
X147447000Y-49149000D01*
X147427000Y-49149000D01*
X147427000Y-48895000D01*
X147447000Y-48895000D01*
X147447000Y-48875000D01*
X147701000Y-48875000D01*
X147701000Y-48895000D01*
X147721000Y-48895000D01*
X147721000Y-49149000D01*
X147701000Y-49149000D01*
X147701000Y-50356469D01*
X147933027Y-50476968D01*
X148462490Y-50228821D01*
X148856688Y-49796947D01*
X148990134Y-49474760D01*
X148990704Y-49477623D01*
X149248794Y-49863881D01*
X149635052Y-50121971D01*
X150090675Y-50212600D01*
X150137325Y-50212600D01*
X150592948Y-50121971D01*
X150932000Y-49895423D01*
X150932000Y-51816000D01*
X150966406Y-51988973D01*
X151064388Y-52135612D01*
X152202000Y-53273224D01*
X152202000Y-53990577D01*
X151862948Y-53764029D01*
X151407325Y-53673400D01*
X151360675Y-53673400D01*
X150905052Y-53764029D01*
X150518794Y-54022119D01*
X150260704Y-54408377D01*
X150170075Y-54864000D01*
X150260704Y-55319623D01*
X150518794Y-55705881D01*
X150905052Y-55963971D01*
X151360675Y-56054600D01*
X151407325Y-56054600D01*
X151862948Y-55963971D01*
X152202000Y-55737423D01*
X152202000Y-56530577D01*
X151862948Y-56304029D01*
X151407325Y-56213400D01*
X151360675Y-56213400D01*
X150905052Y-56304029D01*
X150518794Y-56562119D01*
X150260704Y-56948377D01*
X150260134Y-56951240D01*
X150126688Y-56629053D01*
X149732490Y-56197179D01*
X149261136Y-55976266D01*
X149322948Y-55963971D01*
X149709206Y-55705881D01*
X149967296Y-55319623D01*
X150057925Y-54864000D01*
X149967296Y-54408377D01*
X149709206Y-54022119D01*
X149322948Y-53764029D01*
X148867325Y-53673400D01*
X148820675Y-53673400D01*
X148365052Y-53764029D01*
X147978794Y-54022119D01*
X147720704Y-54408377D01*
X147630075Y-54864000D01*
X147720704Y-55319623D01*
X147978794Y-55705881D01*
X148365052Y-55963971D01*
X148426864Y-55976266D01*
X147955510Y-56197179D01*
X147561312Y-56629053D01*
X147427866Y-56951240D01*
X147427296Y-56948377D01*
X147169206Y-56562119D01*
X146782948Y-56304029D01*
X146327325Y-56213400D01*
X146280675Y-56213400D01*
X145825052Y-56304029D01*
X145438794Y-56562119D01*
X145262600Y-56825811D01*
X145262600Y-56414090D01*
X145165927Y-56180701D01*
X144987298Y-56002073D01*
X144753909Y-55905400D01*
X144330605Y-55905400D01*
X144629206Y-55705881D01*
X144887296Y-55319623D01*
X144977925Y-54864000D01*
X145090075Y-54864000D01*
X145180704Y-55319623D01*
X145438794Y-55705881D01*
X145825052Y-55963971D01*
X146280675Y-56054600D01*
X146327325Y-56054600D01*
X146782948Y-55963971D01*
X147169206Y-55705881D01*
X147427296Y-55319623D01*
X147517925Y-54864000D01*
X147427296Y-54408377D01*
X147169206Y-54022119D01*
X146782948Y-53764029D01*
X146327325Y-53673400D01*
X146280675Y-53673400D01*
X145825052Y-53764029D01*
X145438794Y-54022119D01*
X145180704Y-54408377D01*
X145090075Y-54864000D01*
X144977925Y-54864000D01*
X144887296Y-54408377D01*
X144629206Y-54022119D01*
X144242948Y-53764029D01*
X143787325Y-53673400D01*
X143740675Y-53673400D01*
X143285052Y-53764029D01*
X142898794Y-54022119D01*
X142640704Y-54408377D01*
X142550075Y-54864000D01*
X142640704Y-55319623D01*
X142898794Y-55705881D01*
X143197395Y-55905400D01*
X142774091Y-55905400D01*
X142540702Y-56002073D01*
X142362073Y-56180701D01*
X142265400Y-56414090D01*
X129409000Y-56414090D01*
X129409000Y-48580126D01*
X129794687Y-49513561D01*
X130701664Y-50422123D01*
X131887294Y-50914439D01*
X133171074Y-50915559D01*
X134357561Y-50425313D01*
X135266123Y-49518336D01*
X135374312Y-49257786D01*
X136223194Y-49257786D01*
X136404070Y-49695540D01*
X136738699Y-50030753D01*
X137176136Y-50212393D01*
X137649786Y-50212806D01*
X138087540Y-50031930D01*
X138422753Y-49697301D01*
X138604393Y-49259864D01*
X138604394Y-49257786D01*
X138763194Y-49257786D01*
X138944070Y-49695540D01*
X139278699Y-50030753D01*
X139716136Y-50212393D01*
X140189786Y-50212806D01*
X140627540Y-50031930D01*
X140962753Y-49697301D01*
X141144393Y-49259864D01*
X141144806Y-48786214D01*
X140963930Y-48348460D01*
X140629301Y-48013247D01*
X140191864Y-47831607D01*
X139718214Y-47831194D01*
X139280460Y-48012070D01*
X138945247Y-48346699D01*
X138763607Y-48784136D01*
X138763194Y-49257786D01*
X138604394Y-49257786D01*
X138604806Y-48786214D01*
X138423930Y-48348460D01*
X138089301Y-48013247D01*
X137651864Y-47831607D01*
X137178214Y-47831194D01*
X136740460Y-48012070D01*
X136405247Y-48346699D01*
X136223607Y-48784136D01*
X136223194Y-49257786D01*
X135374312Y-49257786D01*
X135758439Y-48332706D01*
X135759559Y-47048926D01*
X135525311Y-46482000D01*
X136200075Y-46482000D01*
X136290704Y-46937623D01*
X136548794Y-47323881D01*
X136935052Y-47581971D01*
X137390675Y-47672600D01*
X137437325Y-47672600D01*
X137892948Y-47581971D01*
X138279206Y-47323881D01*
X138537296Y-46937623D01*
X138627925Y-46482000D01*
X138740075Y-46482000D01*
X138830704Y-46937623D01*
X139088794Y-47323881D01*
X139475052Y-47581971D01*
X139930675Y-47672600D01*
X139977325Y-47672600D01*
X140432948Y-47581971D01*
X140819206Y-47323881D01*
X141077296Y-46937623D01*
X141077866Y-46934760D01*
X141211312Y-47256947D01*
X141605510Y-47688821D01*
X142076864Y-47909734D01*
X142015052Y-47922029D01*
X141628794Y-48180119D01*
X141370704Y-48566377D01*
X141280075Y-49022000D01*
X141370704Y-49477623D01*
X141628794Y-49863881D01*
X142015052Y-50121971D01*
X142470675Y-50212600D01*
X142517325Y-50212600D01*
X142972948Y-50121971D01*
X143359206Y-49863881D01*
X143617296Y-49477623D01*
X143707925Y-49022000D01*
X143617296Y-48566377D01*
X143359206Y-48180119D01*
X142972948Y-47922029D01*
X142911136Y-47909734D01*
X143382490Y-47688821D01*
X143776688Y-47256947D01*
X143910134Y-46934760D01*
X143910704Y-46937623D01*
X144168794Y-47323881D01*
X144555052Y-47581971D01*
X145010675Y-47672600D01*
X145057325Y-47672600D01*
X145512948Y-47581971D01*
X145899206Y-47323881D01*
X146157296Y-46937623D01*
X146247925Y-46482000D01*
X146157296Y-46026377D01*
X145899206Y-45640119D01*
X145512948Y-45382029D01*
X145057325Y-45291400D01*
X145010675Y-45291400D01*
X144555052Y-45382029D01*
X144168794Y-45640119D01*
X143910704Y-46026377D01*
X143910134Y-46029240D01*
X143776688Y-45707053D01*
X143382490Y-45275179D01*
X142853027Y-45027032D01*
X142621000Y-45147531D01*
X142621000Y-46355000D01*
X142641000Y-46355000D01*
X142641000Y-46609000D01*
X142621000Y-46609000D01*
X142621000Y-46629000D01*
X142367000Y-46629000D01*
X142367000Y-46609000D01*
X142347000Y-46609000D01*
X142347000Y-46355000D01*
X142367000Y-46355000D01*
X142367000Y-45147531D01*
X142134973Y-45027032D01*
X141605510Y-45275179D01*
X141211312Y-45707053D01*
X141077866Y-46029240D01*
X141077296Y-46026377D01*
X140819206Y-45640119D01*
X140432948Y-45382029D01*
X139977325Y-45291400D01*
X139930675Y-45291400D01*
X139475052Y-45382029D01*
X139088794Y-45640119D01*
X138830704Y-46026377D01*
X138740075Y-46482000D01*
X138627925Y-46482000D01*
X138537296Y-46026377D01*
X138279206Y-45640119D01*
X137892948Y-45382029D01*
X137437325Y-45291400D01*
X137390675Y-45291400D01*
X136935052Y-45382029D01*
X136548794Y-45640119D01*
X136290704Y-46026377D01*
X136200075Y-46482000D01*
X135525311Y-46482000D01*
X135269313Y-45862439D01*
X134362336Y-44953877D01*
X133425815Y-44565000D01*
X189639874Y-44565000D01*
X188706439Y-44950687D01*
M02*
