G04 #@! TF.FileFunction,Copper,L1,Top,Signal*
%FSLAX46Y46*%
G04 Gerber Fmt 4.6, Leading zero omitted, Abs format (unit mm)*
G04 Created by KiCad (PCBNEW 4.0.5) date 2017 April 15, Saturday 18:49:04*
%MOMM*%
%LPD*%
G01*
G04 APERTURE LIST*
%ADD10C,0.100000*%
%ADD11R,1.727200X2.032000*%
%ADD12O,1.727200X2.032000*%
%ADD13C,1.727200*%
%ADD14O,1.727200X1.727200*%
%ADD15R,1.727200X1.727200*%
%ADD16O,0.899160X1.501140*%
%ADD17C,1.998980*%
%ADD18C,2.499360*%
%ADD19C,7.000240*%
%ADD20R,2.032000X2.032000*%
%ADD21O,2.032000X2.032000*%
%ADD22C,2.000000*%
%ADD23C,2.500000*%
%ADD24R,2.500000X2.500000*%
%ADD25R,2.000000X2.600000*%
%ADD26O,2.000000X2.600000*%
%ADD27C,1.501140*%
%ADD28C,2.999740*%
%ADD29C,0.250000*%
%ADD30C,1.250000*%
%ADD31C,2.500000*%
%ADD32C,0.254000*%
G04 APERTURE END LIST*
D10*
D11*
X165100000Y-63500000D03*
D12*
X162560000Y-63500000D03*
X160020000Y-63500000D03*
D13*
X137414000Y-49022000D03*
D14*
X137414000Y-46482000D03*
D13*
X139954000Y-49022000D03*
D14*
X139954000Y-46482000D03*
X142494000Y-49022000D03*
X142494000Y-46482000D03*
X145034000Y-49022000D03*
X145034000Y-46482000D03*
X147574000Y-49022000D03*
X147574000Y-46482000D03*
X150114000Y-49022000D03*
X150114000Y-46482000D03*
X152654000Y-49022000D03*
X152654000Y-46482000D03*
X155194000Y-49022000D03*
X155194000Y-46482000D03*
X157734000Y-49022000D03*
X157734000Y-46482000D03*
X160274000Y-49022000D03*
X160274000Y-46482000D03*
X162814000Y-49022000D03*
X162814000Y-46482000D03*
X165354000Y-49022000D03*
X165354000Y-46482000D03*
X167894000Y-49022000D03*
X167894000Y-46482000D03*
X170434000Y-49022000D03*
X170434000Y-46482000D03*
X172974000Y-49022000D03*
X172974000Y-46482000D03*
X175514000Y-49022000D03*
X175514000Y-46482000D03*
X178054000Y-49022000D03*
X178054000Y-46482000D03*
X180594000Y-49022000D03*
X180594000Y-46482000D03*
X183134000Y-49022000D03*
X183134000Y-46482000D03*
X185674000Y-49022000D03*
X185674000Y-46482000D03*
D15*
X143764000Y-57404000D03*
D14*
X143764000Y-54864000D03*
X146304000Y-57404000D03*
X146304000Y-54864000D03*
X148844000Y-57404000D03*
X148844000Y-54864000D03*
X151384000Y-57404000D03*
X151384000Y-54864000D03*
X153924000Y-57404000D03*
X153924000Y-54864000D03*
X156464000Y-57404000D03*
X156464000Y-54864000D03*
X159004000Y-57404000D03*
X159004000Y-54864000D03*
X161544000Y-57404000D03*
X161544000Y-54864000D03*
D16*
X142748000Y-64770000D03*
X141478000Y-64770000D03*
X144018000Y-64770000D03*
D17*
X169418000Y-54610000D03*
X169418000Y-62230000D03*
X147574000Y-64770000D03*
X155194000Y-64770000D03*
X172720000Y-54610000D03*
X172720000Y-62230000D03*
D18*
X177744120Y-59611260D03*
X190246000Y-54610000D03*
X190246000Y-64612520D03*
D19*
X182745380Y-59611260D03*
D20*
X165100000Y-67056000D03*
D21*
X162560000Y-67056000D03*
D22*
X140000000Y-88000000D03*
X135000000Y-88000000D03*
X150000000Y-88000000D03*
X145000000Y-88000000D03*
D23*
X138244000Y-77186000D03*
X142444000Y-77186000D03*
X146644000Y-77186000D03*
X150844000Y-77186000D03*
X155044000Y-77186000D03*
X159244000Y-77186000D03*
X163444000Y-77186000D03*
X167644000Y-77186000D03*
X171844000Y-77186000D03*
X176044000Y-77186000D03*
X180244000Y-77186000D03*
X184444000Y-77186000D03*
D24*
X138244000Y-71386000D03*
D23*
X142444000Y-71386000D03*
X146644000Y-71386000D03*
X150844000Y-71386000D03*
X155044000Y-71386000D03*
X159244000Y-71386000D03*
X163444000Y-71386000D03*
X167644000Y-71386000D03*
X171844000Y-71386000D03*
X176044000Y-71386000D03*
X180244000Y-71386000D03*
X184444000Y-71386000D03*
D25*
X177292000Y-86614000D03*
D26*
X179832000Y-86614000D03*
X182372000Y-86614000D03*
D25*
X186436000Y-86614000D03*
D26*
X188976000Y-86614000D03*
X191516000Y-86614000D03*
D27*
X166878860Y-87119880D03*
X164338860Y-87119880D03*
X162306860Y-87119880D03*
X159766860Y-87119880D03*
D28*
X169926860Y-89786880D03*
X156210860Y-89786880D03*
D29*
X142748000Y-64770000D02*
X142748000Y-67564000D01*
X148336000Y-74678000D02*
X150844000Y-77186000D01*
X148336000Y-70612000D02*
X148336000Y-74678000D01*
X147320000Y-69596000D02*
X148336000Y-70612000D01*
X144780000Y-69596000D02*
X147320000Y-69596000D01*
X142748000Y-67564000D02*
X144780000Y-69596000D01*
X165100000Y-63500000D02*
X163576000Y-61976000D01*
X142748000Y-62992000D02*
X142748000Y-64770000D01*
X143764000Y-61976000D02*
X142748000Y-62992000D01*
X163576000Y-61976000D02*
X143764000Y-61976000D01*
X165100000Y-63500000D02*
X165100000Y-67056000D01*
X150844000Y-77186000D02*
X150844000Y-77184000D01*
X138244000Y-77186000D02*
X138244000Y-71386000D01*
X138244000Y-71386000D02*
X142444000Y-71386000D01*
X150114000Y-49022000D02*
X148082000Y-51054000D01*
X148082000Y-51054000D02*
X138684000Y-51054000D01*
X138684000Y-51054000D02*
X138244000Y-51494000D01*
X138244000Y-51494000D02*
X138244000Y-71386000D01*
D30*
X138244000Y-77186000D02*
X138400000Y-77186000D01*
X138176000Y-71318000D02*
X138244000Y-71386000D01*
D31*
X179832000Y-86614000D02*
X179832000Y-77598000D01*
X179832000Y-77598000D02*
X180244000Y-77186000D01*
X157736000Y-80264000D02*
X150000000Y-88000000D01*
X168766000Y-80264000D02*
X157736000Y-80264000D01*
X171844000Y-77186000D02*
X168766000Y-80264000D01*
X176044000Y-77186000D02*
X171844000Y-77186000D01*
X180244000Y-77186000D02*
X176044000Y-77186000D01*
D29*
X146304000Y-54864000D02*
X148082000Y-53086000D01*
X155194000Y-51816000D02*
X155194000Y-49022000D01*
X153924000Y-53086000D02*
X155194000Y-51816000D01*
X148082000Y-53086000D02*
X153924000Y-53086000D01*
X148844000Y-54864000D02*
X150114000Y-53594000D01*
X156464000Y-47752000D02*
X155194000Y-46482000D01*
X156464000Y-52324000D02*
X156464000Y-47752000D01*
X155194000Y-53594000D02*
X156464000Y-52324000D01*
X150114000Y-53594000D02*
X155194000Y-53594000D01*
X156464000Y-57404000D02*
X157734000Y-56134000D01*
X162814000Y-51308000D02*
X162814000Y-49022000D01*
X161544000Y-52578000D02*
X162814000Y-51308000D01*
X159512000Y-52578000D02*
X161544000Y-52578000D01*
X157734000Y-54356000D02*
X159512000Y-52578000D01*
X157734000Y-56134000D02*
X157734000Y-54356000D01*
X156464000Y-54864000D02*
X159258000Y-52070000D01*
X161544000Y-47752000D02*
X162814000Y-46482000D01*
X161544000Y-50800000D02*
X161544000Y-47752000D01*
X160274000Y-52070000D02*
X161544000Y-50800000D01*
X159258000Y-52070000D02*
X160274000Y-52070000D01*
X159004000Y-57404000D02*
X160274000Y-56134000D01*
X165354000Y-52324000D02*
X165354000Y-49022000D01*
X164084000Y-53594000D02*
X165354000Y-52324000D01*
X161036000Y-53594000D02*
X164084000Y-53594000D01*
X160274000Y-54356000D02*
X161036000Y-53594000D01*
X160274000Y-56134000D02*
X160274000Y-54356000D01*
X165354000Y-49022000D02*
X165481000Y-49022000D01*
X159004000Y-54864000D02*
X160782000Y-53086000D01*
X164084000Y-47752000D02*
X165354000Y-46482000D01*
X164084000Y-51816000D02*
X164084000Y-47752000D01*
X162814000Y-53086000D02*
X164084000Y-51816000D01*
X160782000Y-53086000D02*
X162814000Y-53086000D01*
X177744120Y-59611260D02*
X148511260Y-59611260D01*
X148511260Y-59611260D02*
X146304000Y-57404000D01*
D30*
X169418000Y-54610000D02*
X166624000Y-57404000D01*
X166624000Y-57404000D02*
X161544000Y-57404000D01*
D29*
X147574000Y-64770000D02*
X144018000Y-64770000D01*
X172720000Y-54610000D02*
X190246000Y-54610000D01*
X155194000Y-64770000D02*
X158750000Y-64770000D01*
X158750000Y-64770000D02*
X160020000Y-63500000D01*
D31*
X188976000Y-86614000D02*
X188976000Y-90932000D01*
X150552000Y-98552000D02*
X140000000Y-88000000D01*
X181356000Y-98552000D02*
X150552000Y-98552000D01*
X188976000Y-90932000D02*
X181356000Y-98552000D01*
X176044000Y-71386000D02*
X180244000Y-71386000D01*
X180244000Y-71386000D02*
X183026000Y-74168000D01*
X183026000Y-74168000D02*
X186436000Y-74168000D01*
X186436000Y-74168000D02*
X188976000Y-76708000D01*
X188976000Y-76708000D02*
X188976000Y-86614000D01*
D32*
G36*
X188706439Y-44950687D02*
X187797877Y-45857664D01*
X187305561Y-47043294D01*
X187304441Y-48327074D01*
X187794687Y-49513561D01*
X188701664Y-50422123D01*
X189887294Y-50914439D01*
X191171074Y-50915559D01*
X192357561Y-50425313D01*
X193266123Y-49518336D01*
X193655000Y-48581815D01*
X193655000Y-95795874D01*
X193269313Y-94862439D01*
X192362336Y-93953877D01*
X191176706Y-93461561D01*
X189892926Y-93460441D01*
X188706439Y-93950687D01*
X187797877Y-94857664D01*
X187305561Y-96043294D01*
X187304441Y-97327074D01*
X187794687Y-98513561D01*
X188701664Y-99422123D01*
X189638185Y-99811000D01*
X182255756Y-99811000D01*
X182471107Y-99667107D01*
X190091107Y-92047108D01*
X190432958Y-91535492D01*
X190472534Y-91336528D01*
X190553000Y-90932000D01*
X190553000Y-87847286D01*
X190577669Y-87884206D01*
X191008179Y-88171863D01*
X191516000Y-88272875D01*
X192023821Y-88171863D01*
X192454331Y-87884206D01*
X192741988Y-87453696D01*
X192843000Y-86945875D01*
X192843000Y-86282125D01*
X192741988Y-85774304D01*
X192454331Y-85343794D01*
X192023821Y-85056137D01*
X191516000Y-84955125D01*
X191008179Y-85056137D01*
X190577669Y-85343794D01*
X190553000Y-85380714D01*
X190553000Y-76708000D01*
X190432958Y-76104508D01*
X190262810Y-75849864D01*
X190091107Y-75592892D01*
X187551107Y-73052893D01*
X187039492Y-72711042D01*
X186436000Y-72591000D01*
X185469059Y-72591000D01*
X185780136Y-72280465D01*
X186020725Y-71701061D01*
X186021273Y-71073692D01*
X185781695Y-70493868D01*
X185338465Y-70049864D01*
X184759061Y-69809275D01*
X184131692Y-69808727D01*
X183551868Y-70048305D01*
X183107864Y-70491535D01*
X182867275Y-71070939D01*
X182866727Y-71698308D01*
X182923202Y-71834988D01*
X181360080Y-70271866D01*
X181138465Y-70049864D01*
X180559061Y-69809275D01*
X179931692Y-69808727D01*
X179931031Y-69809000D01*
X176044232Y-69809000D01*
X175731692Y-69808727D01*
X175151868Y-70048305D01*
X174707864Y-70491535D01*
X174467275Y-71070939D01*
X174466727Y-71698308D01*
X174706305Y-72278132D01*
X175149535Y-72722136D01*
X175728939Y-72962725D01*
X176356308Y-72963273D01*
X176356969Y-72963000D01*
X179590786Y-72963000D01*
X181910893Y-75283107D01*
X182422508Y-75624958D01*
X183026000Y-75745000D01*
X183801886Y-75745000D01*
X183551868Y-75848305D01*
X183107864Y-76291535D01*
X182867275Y-76870939D01*
X182866727Y-77498308D01*
X183106305Y-78078132D01*
X183549535Y-78522136D01*
X184128939Y-78762725D01*
X184756308Y-78763273D01*
X185336132Y-78523695D01*
X185780136Y-78080465D01*
X186020725Y-77501061D01*
X186021273Y-76873692D01*
X185781695Y-76293868D01*
X185338465Y-75849864D01*
X185085924Y-75745000D01*
X185782786Y-75745000D01*
X187399000Y-77361215D01*
X187399000Y-84980594D01*
X185436000Y-84980594D01*
X185314821Y-85003395D01*
X185203526Y-85075012D01*
X185128862Y-85184286D01*
X185102594Y-85314000D01*
X185102594Y-87914000D01*
X185125395Y-88035179D01*
X185197012Y-88146474D01*
X185306286Y-88221138D01*
X185436000Y-88247406D01*
X187399000Y-88247406D01*
X187399000Y-90278785D01*
X180702786Y-96975000D01*
X175139138Y-96975000D01*
X175269342Y-96780136D01*
X175269345Y-96780133D01*
X175325636Y-96644232D01*
X175401756Y-96261549D01*
X175401756Y-96224419D01*
X175409000Y-96188000D01*
X175409000Y-81188000D01*
X175401756Y-81151581D01*
X175401756Y-81114451D01*
X175325636Y-80731768D01*
X175269345Y-80595867D01*
X175269342Y-80595864D01*
X175052571Y-80271443D01*
X174948557Y-80167429D01*
X174624136Y-79950658D01*
X174624133Y-79950655D01*
X174556183Y-79922510D01*
X174488232Y-79894363D01*
X174488227Y-79894363D01*
X174105551Y-79818244D01*
X173958449Y-79818244D01*
X173575768Y-79894364D01*
X173439867Y-79950655D01*
X173439864Y-79950658D01*
X173115443Y-80167429D01*
X173011429Y-80271443D01*
X172794658Y-80595864D01*
X172794655Y-80595867D01*
X172766510Y-80663817D01*
X172738363Y-80731768D01*
X172738363Y-80731773D01*
X172662244Y-81114451D01*
X172662244Y-81151581D01*
X172655000Y-81188000D01*
X172655000Y-96188000D01*
X172662244Y-96224419D01*
X172662244Y-96261549D01*
X172738363Y-96644227D01*
X172738363Y-96644232D01*
X172755522Y-96685657D01*
X172794655Y-96780133D01*
X172794658Y-96780136D01*
X172924862Y-96975000D01*
X151205215Y-96975000D01*
X144378888Y-90148673D01*
X154383674Y-90148673D01*
X154661212Y-90820367D01*
X155174670Y-91334722D01*
X155845879Y-91613432D01*
X156572653Y-91614066D01*
X157244347Y-91336528D01*
X157758702Y-90823070D01*
X158037412Y-90151861D01*
X158037414Y-90148673D01*
X168099674Y-90148673D01*
X168377212Y-90820367D01*
X168890670Y-91334722D01*
X169561879Y-91613432D01*
X170288653Y-91614066D01*
X170960347Y-91336528D01*
X171474702Y-90823070D01*
X171753412Y-90151861D01*
X171754046Y-89425087D01*
X171476508Y-88753393D01*
X170963050Y-88239038D01*
X170291841Y-87960328D01*
X169565067Y-87959694D01*
X168893373Y-88237232D01*
X168379018Y-88750690D01*
X168100308Y-89421899D01*
X168099674Y-90148673D01*
X158037414Y-90148673D01*
X158038046Y-89425087D01*
X157760508Y-88753393D01*
X157247050Y-88239038D01*
X156892486Y-88091810D01*
X158974535Y-88091810D01*
X159042595Y-88332811D01*
X159561894Y-88517647D01*
X160112398Y-88489685D01*
X160491125Y-88332811D01*
X160559185Y-88091810D01*
X159766860Y-87299485D01*
X158974535Y-88091810D01*
X156892486Y-88091810D01*
X156575841Y-87960328D01*
X155849067Y-87959694D01*
X155177373Y-88237232D01*
X154663018Y-88750690D01*
X154384308Y-89421899D01*
X154383674Y-90148673D01*
X144378888Y-90148673D01*
X143382747Y-89152532D01*
X144027073Y-89152532D01*
X144125736Y-89419387D01*
X144735461Y-89645908D01*
X145385460Y-89621856D01*
X145874264Y-89419387D01*
X145972927Y-89152532D01*
X145000000Y-88179605D01*
X144027073Y-89152532D01*
X143382747Y-89152532D01*
X141965676Y-87735461D01*
X143354092Y-87735461D01*
X143378144Y-88385460D01*
X143580613Y-88874264D01*
X143847468Y-88972927D01*
X144820395Y-88000000D01*
X145179605Y-88000000D01*
X146152532Y-88972927D01*
X146419387Y-88874264D01*
X146645908Y-88264539D01*
X146636120Y-88000000D01*
X148423001Y-88000000D01*
X148543042Y-88603492D01*
X148884893Y-89115107D01*
X149396508Y-89456958D01*
X150000000Y-89576999D01*
X150603492Y-89456958D01*
X151115107Y-89115107D01*
X153315300Y-86914914D01*
X158369093Y-86914914D01*
X158397055Y-87465418D01*
X158553929Y-87844145D01*
X158794930Y-87912205D01*
X159587255Y-87119880D01*
X159946465Y-87119880D01*
X160738790Y-87912205D01*
X160979791Y-87844145D01*
X161161624Y-87333282D01*
X161229103Y-87333282D01*
X161392808Y-87729477D01*
X161695669Y-88032867D01*
X162091578Y-88197263D01*
X162520262Y-88197637D01*
X162916457Y-88033932D01*
X163219847Y-87731071D01*
X163322910Y-87482867D01*
X163424808Y-87729477D01*
X163727669Y-88032867D01*
X164123578Y-88197263D01*
X164552262Y-88197637D01*
X164948457Y-88033932D01*
X165251847Y-87731071D01*
X165416243Y-87335162D01*
X165416244Y-87333282D01*
X165801103Y-87333282D01*
X165964808Y-87729477D01*
X166267669Y-88032867D01*
X166663578Y-88197263D01*
X167092262Y-88197637D01*
X167488457Y-88033932D01*
X167791847Y-87731071D01*
X167956243Y-87335162D01*
X167956617Y-86906478D01*
X167792912Y-86510283D01*
X167490051Y-86206893D01*
X167094142Y-86042497D01*
X166665458Y-86042123D01*
X166269263Y-86205828D01*
X165965873Y-86508689D01*
X165801477Y-86904598D01*
X165801103Y-87333282D01*
X165416244Y-87333282D01*
X165416617Y-86906478D01*
X165252912Y-86510283D01*
X164950051Y-86206893D01*
X164554142Y-86042497D01*
X164125458Y-86042123D01*
X163729263Y-86205828D01*
X163425873Y-86508689D01*
X163322810Y-86756893D01*
X163220912Y-86510283D01*
X162918051Y-86206893D01*
X162522142Y-86042497D01*
X162093458Y-86042123D01*
X161697263Y-86205828D01*
X161393873Y-86508689D01*
X161229477Y-86904598D01*
X161229103Y-87333282D01*
X161161624Y-87333282D01*
X161164627Y-87324846D01*
X161136665Y-86774342D01*
X160979791Y-86395615D01*
X160738790Y-86327555D01*
X159946465Y-87119880D01*
X159587255Y-87119880D01*
X158794930Y-86327555D01*
X158553929Y-86395615D01*
X158369093Y-86914914D01*
X153315300Y-86914914D01*
X154082264Y-86147950D01*
X158974535Y-86147950D01*
X159766860Y-86940275D01*
X160559185Y-86147950D01*
X160491125Y-85906949D01*
X159971826Y-85722113D01*
X159421322Y-85750075D01*
X159042595Y-85906949D01*
X158974535Y-86147950D01*
X154082264Y-86147950D01*
X158389214Y-81841000D01*
X168766000Y-81841000D01*
X169369492Y-81720958D01*
X169881107Y-81379107D01*
X172497215Y-78763000D01*
X176043768Y-78763000D01*
X176356308Y-78763273D01*
X176356969Y-78763000D01*
X178255000Y-78763000D01*
X178255000Y-84980594D01*
X176292000Y-84980594D01*
X176170821Y-85003395D01*
X176059526Y-85075012D01*
X175984862Y-85184286D01*
X175958594Y-85314000D01*
X175958594Y-87914000D01*
X175981395Y-88035179D01*
X176053012Y-88146474D01*
X176162286Y-88221138D01*
X176292000Y-88247406D01*
X178292000Y-88247406D01*
X178413179Y-88224605D01*
X178524474Y-88152988D01*
X178599138Y-88043714D01*
X178625406Y-87914000D01*
X178625406Y-87592187D01*
X178716893Y-87729107D01*
X178849029Y-87817398D01*
X178893669Y-87884206D01*
X179324179Y-88171863D01*
X179832000Y-88272875D01*
X180339821Y-88171863D01*
X180770331Y-87884206D01*
X180814971Y-87817398D01*
X180947107Y-87729107D01*
X181142598Y-87436534D01*
X181146012Y-87453696D01*
X181433669Y-87884206D01*
X181864179Y-88171863D01*
X182372000Y-88272875D01*
X182879821Y-88171863D01*
X183310331Y-87884206D01*
X183597988Y-87453696D01*
X183699000Y-86945875D01*
X183699000Y-86282125D01*
X183597988Y-85774304D01*
X183310331Y-85343794D01*
X182879821Y-85056137D01*
X182372000Y-84955125D01*
X181864179Y-85056137D01*
X181433669Y-85343794D01*
X181409000Y-85380714D01*
X181409000Y-78251303D01*
X181580136Y-78080465D01*
X181820725Y-77501061D01*
X181821273Y-76873692D01*
X181581695Y-76293868D01*
X181138465Y-75849864D01*
X180559061Y-75609275D01*
X179931692Y-75608727D01*
X179931031Y-75609000D01*
X176044232Y-75609000D01*
X175731692Y-75608727D01*
X175731031Y-75609000D01*
X171844232Y-75609000D01*
X171531692Y-75608727D01*
X170951868Y-75848305D01*
X170507864Y-76291535D01*
X170507590Y-76292195D01*
X169165338Y-77634447D01*
X169220725Y-77501061D01*
X169221273Y-76873692D01*
X168981695Y-76293868D01*
X168538465Y-75849864D01*
X167959061Y-75609275D01*
X167331692Y-75608727D01*
X166751868Y-75848305D01*
X166307864Y-76291535D01*
X166067275Y-76870939D01*
X166066727Y-77498308D01*
X166306305Y-78078132D01*
X166749535Y-78522136D01*
X167146573Y-78687000D01*
X163940903Y-78687000D01*
X164336132Y-78523695D01*
X164780136Y-78080465D01*
X165020725Y-77501061D01*
X165021273Y-76873692D01*
X164781695Y-76293868D01*
X164338465Y-75849864D01*
X163759061Y-75609275D01*
X163131692Y-75608727D01*
X162551868Y-75848305D01*
X162107864Y-76291535D01*
X161867275Y-76870939D01*
X161866727Y-77498308D01*
X162106305Y-78078132D01*
X162549535Y-78522136D01*
X162946573Y-78687000D01*
X159740903Y-78687000D01*
X160136132Y-78523695D01*
X160580136Y-78080465D01*
X160820725Y-77501061D01*
X160821273Y-76873692D01*
X160581695Y-76293868D01*
X160138465Y-75849864D01*
X159559061Y-75609275D01*
X158931692Y-75608727D01*
X158351868Y-75848305D01*
X157907864Y-76291535D01*
X157667275Y-76870939D01*
X157666727Y-77498308D01*
X157906305Y-78078132D01*
X158349535Y-78522136D01*
X158746573Y-78687000D01*
X157736000Y-78687000D01*
X157132508Y-78807042D01*
X156620893Y-79148893D01*
X148884893Y-86884893D01*
X148543042Y-87396508D01*
X148423001Y-88000000D01*
X146636120Y-88000000D01*
X146621856Y-87614540D01*
X146419387Y-87125736D01*
X146152532Y-87027073D01*
X145179605Y-88000000D01*
X144820395Y-88000000D01*
X143847468Y-87027073D01*
X143580613Y-87125736D01*
X143354092Y-87735461D01*
X141965676Y-87735461D01*
X141115107Y-86884893D01*
X141059097Y-86847468D01*
X144027073Y-86847468D01*
X145000000Y-87820395D01*
X145972927Y-86847468D01*
X145874264Y-86580613D01*
X145264539Y-86354092D01*
X144614540Y-86378144D01*
X144125736Y-86580613D01*
X144027073Y-86847468D01*
X141059097Y-86847468D01*
X140603492Y-86543042D01*
X140000000Y-86423001D01*
X139396508Y-86543042D01*
X138884893Y-86884893D01*
X138543042Y-87396508D01*
X138423001Y-88000000D01*
X138543042Y-88603492D01*
X138884893Y-89115107D01*
X149436893Y-99667108D01*
X149652243Y-99811000D01*
X133424126Y-99811000D01*
X134357561Y-99425313D01*
X135266123Y-98518336D01*
X135758439Y-97332706D01*
X135759559Y-96048926D01*
X135269313Y-94862439D01*
X134362336Y-93953877D01*
X133176706Y-93461561D01*
X131892926Y-93460441D01*
X130706439Y-93950687D01*
X129797877Y-94857664D01*
X129409000Y-95794185D01*
X129409000Y-88262798D01*
X133672771Y-88262798D01*
X133874369Y-88750703D01*
X134247334Y-89124319D01*
X134734885Y-89326769D01*
X135262798Y-89327229D01*
X135750703Y-89125631D01*
X136124319Y-88752666D01*
X136326769Y-88265115D01*
X136327229Y-87737202D01*
X136125631Y-87249297D01*
X135752666Y-86875681D01*
X135265115Y-86673231D01*
X134737202Y-86672771D01*
X134249297Y-86874369D01*
X133875681Y-87247334D01*
X133673231Y-87734885D01*
X133672771Y-88262798D01*
X129409000Y-88262798D01*
X129409000Y-81725131D01*
X129463246Y-81452415D01*
X129596695Y-81252695D01*
X129796415Y-81119246D01*
X130069131Y-81065000D01*
X133032000Y-81065000D01*
X133068419Y-81057756D01*
X133105549Y-81057756D01*
X133488227Y-80981637D01*
X133488232Y-80981637D01*
X133556183Y-80953490D01*
X133624133Y-80925345D01*
X133624136Y-80925342D01*
X133948557Y-80708571D01*
X134052571Y-80604557D01*
X134269342Y-80280136D01*
X134269345Y-80280133D01*
X134325636Y-80144232D01*
X134401756Y-79761549D01*
X134401756Y-79724419D01*
X134409000Y-79688000D01*
X134409000Y-70136000D01*
X136660594Y-70136000D01*
X136660594Y-72636000D01*
X136683395Y-72757179D01*
X136755012Y-72868474D01*
X136864286Y-72943138D01*
X136994000Y-72969406D01*
X137792000Y-72969406D01*
X137792000Y-75666446D01*
X137351868Y-75848305D01*
X136907864Y-76291535D01*
X136667275Y-76870939D01*
X136666727Y-77498308D01*
X136906305Y-78078132D01*
X137349535Y-78522136D01*
X137928939Y-78762725D01*
X138556308Y-78763273D01*
X139136132Y-78523695D01*
X139580136Y-78080465D01*
X139820725Y-77501061D01*
X139820727Y-77498308D01*
X140866727Y-77498308D01*
X141106305Y-78078132D01*
X141549535Y-78522136D01*
X142128939Y-78762725D01*
X142756308Y-78763273D01*
X143336132Y-78523695D01*
X143780136Y-78080465D01*
X144020725Y-77501061D01*
X144020727Y-77498308D01*
X145066727Y-77498308D01*
X145306305Y-78078132D01*
X145749535Y-78522136D01*
X146328939Y-78762725D01*
X146956308Y-78763273D01*
X147536132Y-78523695D01*
X147980136Y-78080465D01*
X148220725Y-77501061D01*
X148221273Y-76873692D01*
X147981695Y-76293868D01*
X147538465Y-75849864D01*
X146959061Y-75609275D01*
X146331692Y-75608727D01*
X145751868Y-75848305D01*
X145307864Y-76291535D01*
X145067275Y-76870939D01*
X145066727Y-77498308D01*
X144020727Y-77498308D01*
X144021273Y-76873692D01*
X143781695Y-76293868D01*
X143338465Y-75849864D01*
X142759061Y-75609275D01*
X142131692Y-75608727D01*
X141551868Y-75848305D01*
X141107864Y-76291535D01*
X140867275Y-76870939D01*
X140866727Y-77498308D01*
X139820727Y-77498308D01*
X139821273Y-76873692D01*
X139581695Y-76293868D01*
X139138465Y-75849864D01*
X138696000Y-75666137D01*
X138696000Y-72969406D01*
X139494000Y-72969406D01*
X139615179Y-72946605D01*
X139726474Y-72874988D01*
X139801138Y-72765714D01*
X139827406Y-72636000D01*
X139827406Y-71838000D01*
X140924446Y-71838000D01*
X141106305Y-72278132D01*
X141549535Y-72722136D01*
X142128939Y-72962725D01*
X142756308Y-72963273D01*
X143336132Y-72723695D01*
X143780136Y-72280465D01*
X144020725Y-71701061D01*
X144021273Y-71073692D01*
X143781695Y-70493868D01*
X143338465Y-70049864D01*
X142759061Y-69809275D01*
X142131692Y-69808727D01*
X141551868Y-70048305D01*
X141107864Y-70491535D01*
X140924137Y-70934000D01*
X139827406Y-70934000D01*
X139827406Y-70136000D01*
X139804605Y-70014821D01*
X139732988Y-69903526D01*
X139623714Y-69828862D01*
X139494000Y-69802594D01*
X138696000Y-69802594D01*
X138696000Y-64447899D01*
X140701420Y-64447899D01*
X140701420Y-65092101D01*
X140760534Y-65389285D01*
X140928875Y-65641226D01*
X141180816Y-65809567D01*
X141478000Y-65868681D01*
X141775184Y-65809567D01*
X142027125Y-65641226D01*
X142113000Y-65512705D01*
X142198875Y-65641226D01*
X142296000Y-65706123D01*
X142296000Y-67564000D01*
X142330406Y-67736973D01*
X142428388Y-67883612D01*
X144460388Y-69915612D01*
X144607027Y-70013594D01*
X144780000Y-70048000D01*
X145752606Y-70048000D01*
X145751868Y-70048305D01*
X145307864Y-70491535D01*
X145067275Y-71070939D01*
X145066727Y-71698308D01*
X145306305Y-72278132D01*
X145749535Y-72722136D01*
X146328939Y-72962725D01*
X146956308Y-72963273D01*
X147536132Y-72723695D01*
X147884000Y-72376433D01*
X147884000Y-74678000D01*
X147918406Y-74850973D01*
X148016388Y-74997612D01*
X149449901Y-76431126D01*
X149267275Y-76870939D01*
X149266727Y-77498308D01*
X149506305Y-78078132D01*
X149949535Y-78522136D01*
X150528939Y-78762725D01*
X151156308Y-78763273D01*
X151736132Y-78523695D01*
X152180136Y-78080465D01*
X152420725Y-77501061D01*
X152420727Y-77498308D01*
X153466727Y-77498308D01*
X153706305Y-78078132D01*
X154149535Y-78522136D01*
X154728939Y-78762725D01*
X155356308Y-78763273D01*
X155936132Y-78523695D01*
X156380136Y-78080465D01*
X156620725Y-77501061D01*
X156621273Y-76873692D01*
X156381695Y-76293868D01*
X155938465Y-75849864D01*
X155359061Y-75609275D01*
X154731692Y-75608727D01*
X154151868Y-75848305D01*
X153707864Y-76291535D01*
X153467275Y-76870939D01*
X153466727Y-77498308D01*
X152420727Y-77498308D01*
X152421273Y-76873692D01*
X152181695Y-76293868D01*
X151738465Y-75849864D01*
X151159061Y-75609275D01*
X150531692Y-75608727D01*
X150088907Y-75791682D01*
X148788000Y-74490776D01*
X148788000Y-71698308D01*
X149266727Y-71698308D01*
X149506305Y-72278132D01*
X149949535Y-72722136D01*
X150528939Y-72962725D01*
X151156308Y-72963273D01*
X151736132Y-72723695D01*
X152180136Y-72280465D01*
X152420725Y-71701061D01*
X152420727Y-71698308D01*
X153466727Y-71698308D01*
X153706305Y-72278132D01*
X154149535Y-72722136D01*
X154728939Y-72962725D01*
X155356308Y-72963273D01*
X155936132Y-72723695D01*
X156380136Y-72280465D01*
X156620725Y-71701061D01*
X156620727Y-71698308D01*
X157666727Y-71698308D01*
X157906305Y-72278132D01*
X158349535Y-72722136D01*
X158928939Y-72962725D01*
X159556308Y-72963273D01*
X160136132Y-72723695D01*
X160580136Y-72280465D01*
X160820725Y-71701061D01*
X160820727Y-71698308D01*
X161866727Y-71698308D01*
X162106305Y-72278132D01*
X162549535Y-72722136D01*
X163128939Y-72962725D01*
X163756308Y-72963273D01*
X164336132Y-72723695D01*
X164780136Y-72280465D01*
X165020725Y-71701061D01*
X165020727Y-71698308D01*
X166066727Y-71698308D01*
X166306305Y-72278132D01*
X166749535Y-72722136D01*
X167328939Y-72962725D01*
X167956308Y-72963273D01*
X168536132Y-72723695D01*
X168540514Y-72719320D01*
X170690285Y-72719320D01*
X170819533Y-73012123D01*
X171519806Y-73280388D01*
X172269435Y-73260250D01*
X172868467Y-73012123D01*
X172997715Y-72719320D01*
X171844000Y-71565605D01*
X170690285Y-72719320D01*
X168540514Y-72719320D01*
X168980136Y-72280465D01*
X169220725Y-71701061D01*
X169221273Y-71073692D01*
X169216362Y-71061806D01*
X169949612Y-71061806D01*
X169969750Y-71811435D01*
X170217877Y-72410467D01*
X170510680Y-72539715D01*
X171664395Y-71386000D01*
X172023605Y-71386000D01*
X173177320Y-72539715D01*
X173470123Y-72410467D01*
X173738388Y-71710194D01*
X173718250Y-70960565D01*
X173470123Y-70361533D01*
X173177320Y-70232285D01*
X172023605Y-71386000D01*
X171664395Y-71386000D01*
X170510680Y-70232285D01*
X170217877Y-70361533D01*
X169949612Y-71061806D01*
X169216362Y-71061806D01*
X168981695Y-70493868D01*
X168541277Y-70052680D01*
X170690285Y-70052680D01*
X171844000Y-71206395D01*
X172997715Y-70052680D01*
X172868467Y-69759877D01*
X172168194Y-69491612D01*
X171418565Y-69511750D01*
X170819533Y-69759877D01*
X170690285Y-70052680D01*
X168541277Y-70052680D01*
X168538465Y-70049864D01*
X167959061Y-69809275D01*
X167331692Y-69808727D01*
X166751868Y-70048305D01*
X166307864Y-70491535D01*
X166067275Y-71070939D01*
X166066727Y-71698308D01*
X165020727Y-71698308D01*
X165021273Y-71073692D01*
X164781695Y-70493868D01*
X164338465Y-70049864D01*
X163759061Y-69809275D01*
X163131692Y-69808727D01*
X162551868Y-70048305D01*
X162107864Y-70491535D01*
X161867275Y-71070939D01*
X161866727Y-71698308D01*
X160820727Y-71698308D01*
X160821273Y-71073692D01*
X160581695Y-70493868D01*
X160138465Y-70049864D01*
X159559061Y-69809275D01*
X158931692Y-69808727D01*
X158351868Y-70048305D01*
X157907864Y-70491535D01*
X157667275Y-71070939D01*
X157666727Y-71698308D01*
X156620727Y-71698308D01*
X156621273Y-71073692D01*
X156381695Y-70493868D01*
X155938465Y-70049864D01*
X155359061Y-69809275D01*
X154731692Y-69808727D01*
X154151868Y-70048305D01*
X153707864Y-70491535D01*
X153467275Y-71070939D01*
X153466727Y-71698308D01*
X152420727Y-71698308D01*
X152421273Y-71073692D01*
X152181695Y-70493868D01*
X151738465Y-70049864D01*
X151159061Y-69809275D01*
X150531692Y-69808727D01*
X149951868Y-70048305D01*
X149507864Y-70491535D01*
X149267275Y-71070939D01*
X149266727Y-71698308D01*
X148788000Y-71698308D01*
X148788000Y-70612000D01*
X148753594Y-70439027D01*
X148655612Y-70292388D01*
X147639612Y-69276388D01*
X147492973Y-69178406D01*
X147320000Y-69144000D01*
X144967224Y-69144000D01*
X143200000Y-67376776D01*
X143200000Y-65706123D01*
X143297125Y-65641226D01*
X143383000Y-65512705D01*
X143468875Y-65641226D01*
X143720816Y-65809567D01*
X144018000Y-65868681D01*
X144315184Y-65809567D01*
X144567125Y-65641226D01*
X144735466Y-65389285D01*
X144768741Y-65222000D01*
X146325499Y-65222000D01*
X146448801Y-65520414D01*
X146821623Y-65893887D01*
X147308987Y-66096259D01*
X147836697Y-66096719D01*
X148324414Y-65895199D01*
X148697887Y-65522377D01*
X148900259Y-65035013D01*
X148900719Y-64507303D01*
X148699199Y-64019586D01*
X148326377Y-63646113D01*
X147839013Y-63443741D01*
X147311303Y-63443281D01*
X146823586Y-63644801D01*
X146450113Y-64017623D01*
X146325385Y-64318000D01*
X144768741Y-64318000D01*
X144735466Y-64150715D01*
X144567125Y-63898774D01*
X144315184Y-63730433D01*
X144018000Y-63671319D01*
X143720816Y-63730433D01*
X143468875Y-63898774D01*
X143383000Y-64027295D01*
X143297125Y-63898774D01*
X143200000Y-63833877D01*
X143200000Y-63179224D01*
X143951224Y-62428000D01*
X159255056Y-62428000D01*
X159178119Y-62479408D01*
X158920029Y-62865666D01*
X158829400Y-63321289D01*
X158829400Y-63678711D01*
X158891229Y-63989547D01*
X158562776Y-64318000D01*
X156442501Y-64318000D01*
X156319199Y-64019586D01*
X155946377Y-63646113D01*
X155459013Y-63443741D01*
X154931303Y-63443281D01*
X154443586Y-63644801D01*
X154070113Y-64017623D01*
X153867741Y-64504987D01*
X153867281Y-65032697D01*
X154068801Y-65520414D01*
X154441623Y-65893887D01*
X154928987Y-66096259D01*
X155456697Y-66096719D01*
X155944414Y-65895199D01*
X156317887Y-65522377D01*
X156442615Y-65222000D01*
X158750000Y-65222000D01*
X158922973Y-65187594D01*
X159069612Y-65089612D01*
X159454176Y-64705048D01*
X159564377Y-64778682D01*
X160020000Y-64869311D01*
X160475623Y-64778682D01*
X160861881Y-64520592D01*
X161119971Y-64134334D01*
X161210600Y-63678711D01*
X161210600Y-63321289D01*
X161119971Y-62865666D01*
X160861881Y-62479408D01*
X160784944Y-62428000D01*
X161795056Y-62428000D01*
X161718119Y-62479408D01*
X161460029Y-62865666D01*
X161369400Y-63321289D01*
X161369400Y-63678711D01*
X161460029Y-64134334D01*
X161718119Y-64520592D01*
X162104377Y-64778682D01*
X162560000Y-64869311D01*
X163015623Y-64778682D01*
X163401881Y-64520592D01*
X163659971Y-64134334D01*
X163750600Y-63678711D01*
X163750600Y-63321289D01*
X163659971Y-62865666D01*
X163401881Y-62479408D01*
X163324944Y-62428000D01*
X163388776Y-62428000D01*
X163902994Y-62942218D01*
X163902994Y-64516000D01*
X163925795Y-64637179D01*
X163997412Y-64748474D01*
X164106686Y-64823138D01*
X164236400Y-64849406D01*
X164648000Y-64849406D01*
X164648000Y-65706594D01*
X164084000Y-65706594D01*
X163962821Y-65729395D01*
X163851526Y-65801012D01*
X163776862Y-65910286D01*
X163750594Y-66040000D01*
X163750594Y-66440651D01*
X163509644Y-66080045D01*
X163073944Y-65788919D01*
X162560000Y-65686689D01*
X162046056Y-65788919D01*
X161610356Y-66080045D01*
X161319230Y-66515745D01*
X161217000Y-67029689D01*
X161217000Y-67082311D01*
X161319230Y-67596255D01*
X161610356Y-68031955D01*
X162046056Y-68323081D01*
X162560000Y-68425311D01*
X163073944Y-68323081D01*
X163509644Y-68031955D01*
X163750594Y-67671349D01*
X163750594Y-68072000D01*
X163773395Y-68193179D01*
X163845012Y-68304474D01*
X163954286Y-68379138D01*
X164084000Y-68405406D01*
X166116000Y-68405406D01*
X166237179Y-68382605D01*
X166348474Y-68310988D01*
X166423138Y-68201714D01*
X166449406Y-68072000D01*
X166449406Y-66040000D01*
X166426605Y-65918821D01*
X166354988Y-65807526D01*
X166245714Y-65732862D01*
X166116000Y-65706594D01*
X165552000Y-65706594D01*
X165552000Y-64924765D01*
X188669047Y-64924765D01*
X188908576Y-65504471D01*
X189351716Y-65948385D01*
X189931003Y-66188926D01*
X190558245Y-66189473D01*
X191137951Y-65949944D01*
X191581865Y-65506804D01*
X191822406Y-64927517D01*
X191822953Y-64300275D01*
X191583424Y-63720569D01*
X191140284Y-63276655D01*
X190560997Y-63036114D01*
X189933755Y-63035567D01*
X189354049Y-63275096D01*
X188910135Y-63718236D01*
X188669594Y-64297523D01*
X188669047Y-64924765D01*
X165552000Y-64924765D01*
X165552000Y-64849406D01*
X165963600Y-64849406D01*
X166084779Y-64826605D01*
X166196074Y-64754988D01*
X166270738Y-64645714D01*
X166297006Y-64516000D01*
X166297006Y-63382163D01*
X168445443Y-63382163D01*
X168544042Y-63648965D01*
X169153582Y-63875401D01*
X169803377Y-63851341D01*
X170291958Y-63648965D01*
X170390557Y-63382163D01*
X171747443Y-63382163D01*
X171846042Y-63648965D01*
X172455582Y-63875401D01*
X173105377Y-63851341D01*
X173593958Y-63648965D01*
X173692557Y-63382163D01*
X172720000Y-62409605D01*
X171747443Y-63382163D01*
X170390557Y-63382163D01*
X169418000Y-62409605D01*
X168445443Y-63382163D01*
X166297006Y-63382163D01*
X166297006Y-62484000D01*
X166274205Y-62362821D01*
X166202588Y-62251526D01*
X166093314Y-62176862D01*
X165963600Y-62150594D01*
X164389818Y-62150594D01*
X164204806Y-61965582D01*
X167772599Y-61965582D01*
X167796659Y-62615377D01*
X167999035Y-63103958D01*
X168265837Y-63202557D01*
X169238395Y-62230000D01*
X169597605Y-62230000D01*
X170570163Y-63202557D01*
X170836965Y-63103958D01*
X171063401Y-62494418D01*
X171043820Y-61965582D01*
X171074599Y-61965582D01*
X171098659Y-62615377D01*
X171301035Y-63103958D01*
X171567837Y-63202557D01*
X172540395Y-62230000D01*
X172899605Y-62230000D01*
X173872163Y-63202557D01*
X174138965Y-63103958D01*
X174365401Y-62494418D01*
X174341341Y-61844623D01*
X174138965Y-61356042D01*
X173872163Y-61257443D01*
X172899605Y-62230000D01*
X172540395Y-62230000D01*
X171567837Y-61257443D01*
X171301035Y-61356042D01*
X171074599Y-61965582D01*
X171043820Y-61965582D01*
X171039341Y-61844623D01*
X170836965Y-61356042D01*
X170570163Y-61257443D01*
X169597605Y-62230000D01*
X169238395Y-62230000D01*
X168265837Y-61257443D01*
X167999035Y-61356042D01*
X167772599Y-61965582D01*
X164204806Y-61965582D01*
X163895612Y-61656388D01*
X163748973Y-61558406D01*
X163576000Y-61524000D01*
X143764000Y-61524000D01*
X143591027Y-61558406D01*
X143444388Y-61656388D01*
X142428388Y-62672388D01*
X142330406Y-62819027D01*
X142296000Y-62992000D01*
X142296000Y-63833877D01*
X142198875Y-63898774D01*
X142113000Y-64027295D01*
X142027125Y-63898774D01*
X141775184Y-63730433D01*
X141478000Y-63671319D01*
X141180816Y-63730433D01*
X140928875Y-63898774D01*
X140760534Y-64150715D01*
X140701420Y-64447899D01*
X138696000Y-64447899D01*
X138696000Y-61077837D01*
X168445443Y-61077837D01*
X169418000Y-62050395D01*
X170390557Y-61077837D01*
X171747443Y-61077837D01*
X172720000Y-62050395D01*
X173692557Y-61077837D01*
X173593958Y-60811035D01*
X172984418Y-60584599D01*
X172334623Y-60608659D01*
X171846042Y-60811035D01*
X171747443Y-61077837D01*
X170390557Y-61077837D01*
X170291958Y-60811035D01*
X169682418Y-60584599D01*
X169032623Y-60608659D01*
X168544042Y-60811035D01*
X168445443Y-61077837D01*
X138696000Y-61077837D01*
X138696000Y-55223026D01*
X142309042Y-55223026D01*
X142481312Y-55638947D01*
X142875510Y-56070821D01*
X143166058Y-56206994D01*
X142900400Y-56206994D01*
X142779221Y-56229795D01*
X142667926Y-56301412D01*
X142593262Y-56410686D01*
X142566994Y-56540400D01*
X142566994Y-58267600D01*
X142589795Y-58388779D01*
X142661412Y-58500074D01*
X142770686Y-58574738D01*
X142900400Y-58601006D01*
X144627600Y-58601006D01*
X144748779Y-58578205D01*
X144860074Y-58506588D01*
X144934738Y-58397314D01*
X144961006Y-58267600D01*
X144961006Y-57404000D01*
X145090075Y-57404000D01*
X145180704Y-57859623D01*
X145438794Y-58245881D01*
X145825052Y-58503971D01*
X146280675Y-58594600D01*
X146327325Y-58594600D01*
X146767767Y-58506991D01*
X148191648Y-59930872D01*
X148338287Y-60028854D01*
X148511260Y-60063260D01*
X176224912Y-60063260D01*
X176406696Y-60503211D01*
X176849836Y-60947125D01*
X177429123Y-61187666D01*
X178056365Y-61188213D01*
X178636071Y-60948684D01*
X179004908Y-60580490D01*
X179499013Y-61776317D01*
X180574660Y-62853843D01*
X181980779Y-63437714D01*
X183503301Y-63439043D01*
X184910437Y-62857627D01*
X185987963Y-61781980D01*
X186571834Y-60375861D01*
X186573163Y-58853339D01*
X185991747Y-57446203D01*
X184916100Y-56368677D01*
X183509981Y-55784806D01*
X181987459Y-55783477D01*
X180580323Y-56364893D01*
X179502797Y-57440540D01*
X179004043Y-58641673D01*
X178638404Y-58275395D01*
X178059117Y-58034854D01*
X177431875Y-58034307D01*
X176852169Y-58273836D01*
X176408255Y-58716976D01*
X176224603Y-59159260D01*
X148698484Y-59159260D01*
X147415901Y-57876677D01*
X147427296Y-57859623D01*
X147517925Y-57404000D01*
X147630075Y-57404000D01*
X147720704Y-57859623D01*
X147978794Y-58245881D01*
X148365052Y-58503971D01*
X148820675Y-58594600D01*
X148867325Y-58594600D01*
X149322948Y-58503971D01*
X149709206Y-58245881D01*
X149967296Y-57859623D01*
X150057925Y-57404000D01*
X150170075Y-57404000D01*
X150260704Y-57859623D01*
X150518794Y-58245881D01*
X150905052Y-58503971D01*
X151360675Y-58594600D01*
X151407325Y-58594600D01*
X151862948Y-58503971D01*
X152249206Y-58245881D01*
X152507296Y-57859623D01*
X152597925Y-57404000D01*
X152710075Y-57404000D01*
X152800704Y-57859623D01*
X153058794Y-58245881D01*
X153445052Y-58503971D01*
X153900675Y-58594600D01*
X153947325Y-58594600D01*
X154402948Y-58503971D01*
X154789206Y-58245881D01*
X155047296Y-57859623D01*
X155137925Y-57404000D01*
X155047296Y-56948377D01*
X154789206Y-56562119D01*
X154402948Y-56304029D01*
X153947325Y-56213400D01*
X153900675Y-56213400D01*
X153445052Y-56304029D01*
X153058794Y-56562119D01*
X152800704Y-56948377D01*
X152710075Y-57404000D01*
X152597925Y-57404000D01*
X152507296Y-56948377D01*
X152249206Y-56562119D01*
X151862948Y-56304029D01*
X151407325Y-56213400D01*
X151360675Y-56213400D01*
X150905052Y-56304029D01*
X150518794Y-56562119D01*
X150260704Y-56948377D01*
X150170075Y-57404000D01*
X150057925Y-57404000D01*
X149967296Y-56948377D01*
X149709206Y-56562119D01*
X149322948Y-56304029D01*
X148867325Y-56213400D01*
X148820675Y-56213400D01*
X148365052Y-56304029D01*
X147978794Y-56562119D01*
X147720704Y-56948377D01*
X147630075Y-57404000D01*
X147517925Y-57404000D01*
X147427296Y-56948377D01*
X147169206Y-56562119D01*
X146782948Y-56304029D01*
X146327325Y-56213400D01*
X146280675Y-56213400D01*
X145825052Y-56304029D01*
X145438794Y-56562119D01*
X145180704Y-56948377D01*
X145090075Y-57404000D01*
X144961006Y-57404000D01*
X144961006Y-56540400D01*
X144938205Y-56419221D01*
X144866588Y-56307926D01*
X144757314Y-56233262D01*
X144627600Y-56206994D01*
X144361942Y-56206994D01*
X144652490Y-56070821D01*
X145046688Y-55638947D01*
X145180134Y-55316760D01*
X145180704Y-55319623D01*
X145438794Y-55705881D01*
X145825052Y-55963971D01*
X146280675Y-56054600D01*
X146327325Y-56054600D01*
X146782948Y-55963971D01*
X147169206Y-55705881D01*
X147427296Y-55319623D01*
X147517925Y-54864000D01*
X147427296Y-54408377D01*
X147415901Y-54391323D01*
X148269224Y-53538000D01*
X149530776Y-53538000D01*
X149307767Y-53761009D01*
X148867325Y-53673400D01*
X148820675Y-53673400D01*
X148365052Y-53764029D01*
X147978794Y-54022119D01*
X147720704Y-54408377D01*
X147630075Y-54864000D01*
X147720704Y-55319623D01*
X147978794Y-55705881D01*
X148365052Y-55963971D01*
X148820675Y-56054600D01*
X148867325Y-56054600D01*
X149322948Y-55963971D01*
X149709206Y-55705881D01*
X149967296Y-55319623D01*
X150057925Y-54864000D01*
X149967296Y-54408377D01*
X149955901Y-54391323D01*
X150301224Y-54046000D01*
X150502837Y-54046000D01*
X150260704Y-54408377D01*
X150170075Y-54864000D01*
X150260704Y-55319623D01*
X150518794Y-55705881D01*
X150905052Y-55963971D01*
X151360675Y-56054600D01*
X151407325Y-56054600D01*
X151862948Y-55963971D01*
X152249206Y-55705881D01*
X152507296Y-55319623D01*
X152597925Y-54864000D01*
X152507296Y-54408377D01*
X152265163Y-54046000D01*
X153042837Y-54046000D01*
X152800704Y-54408377D01*
X152710075Y-54864000D01*
X152800704Y-55319623D01*
X153058794Y-55705881D01*
X153445052Y-55963971D01*
X153900675Y-56054600D01*
X153947325Y-56054600D01*
X154402948Y-55963971D01*
X154789206Y-55705881D01*
X155047296Y-55319623D01*
X155137925Y-54864000D01*
X155250075Y-54864000D01*
X155340704Y-55319623D01*
X155598794Y-55705881D01*
X155985052Y-55963971D01*
X156440675Y-56054600D01*
X156487325Y-56054600D01*
X156942948Y-55963971D01*
X157282000Y-55737423D01*
X157282000Y-55946776D01*
X156927767Y-56301009D01*
X156487325Y-56213400D01*
X156440675Y-56213400D01*
X155985052Y-56304029D01*
X155598794Y-56562119D01*
X155340704Y-56948377D01*
X155250075Y-57404000D01*
X155340704Y-57859623D01*
X155598794Y-58245881D01*
X155985052Y-58503971D01*
X156440675Y-58594600D01*
X156487325Y-58594600D01*
X156942948Y-58503971D01*
X157329206Y-58245881D01*
X157587296Y-57859623D01*
X157677925Y-57404000D01*
X157587296Y-56948377D01*
X157575901Y-56931323D01*
X158053612Y-56453612D01*
X158151594Y-56306973D01*
X158152700Y-56301412D01*
X158186000Y-56134000D01*
X158186000Y-55737423D01*
X158525052Y-55963971D01*
X158980675Y-56054600D01*
X159027325Y-56054600D01*
X159482948Y-55963971D01*
X159822000Y-55737423D01*
X159822000Y-55946776D01*
X159467767Y-56301009D01*
X159027325Y-56213400D01*
X158980675Y-56213400D01*
X158525052Y-56304029D01*
X158138794Y-56562119D01*
X157880704Y-56948377D01*
X157790075Y-57404000D01*
X157880704Y-57859623D01*
X158138794Y-58245881D01*
X158525052Y-58503971D01*
X158980675Y-58594600D01*
X159027325Y-58594600D01*
X159482948Y-58503971D01*
X159869206Y-58245881D01*
X160127296Y-57859623D01*
X160217925Y-57404000D01*
X160330075Y-57404000D01*
X160420704Y-57859623D01*
X160678794Y-58245881D01*
X161065052Y-58503971D01*
X161520675Y-58594600D01*
X161567325Y-58594600D01*
X162022948Y-58503971D01*
X162244402Y-58356000D01*
X166624000Y-58356000D01*
X166988315Y-58283533D01*
X167297166Y-58077166D01*
X169437824Y-55936507D01*
X169680697Y-55936719D01*
X170168414Y-55735199D01*
X170541887Y-55362377D01*
X170744259Y-54875013D01*
X170744261Y-54872697D01*
X171393281Y-54872697D01*
X171594801Y-55360414D01*
X171967623Y-55733887D01*
X172454987Y-55936259D01*
X172982697Y-55936719D01*
X173470414Y-55735199D01*
X173843887Y-55362377D01*
X173968615Y-55062000D01*
X188726792Y-55062000D01*
X188908576Y-55501951D01*
X189351716Y-55945865D01*
X189931003Y-56186406D01*
X190558245Y-56186953D01*
X191137951Y-55947424D01*
X191581865Y-55504284D01*
X191822406Y-54924997D01*
X191822953Y-54297755D01*
X191583424Y-53718049D01*
X191140284Y-53274135D01*
X190560997Y-53033594D01*
X189933755Y-53033047D01*
X189354049Y-53272576D01*
X188910135Y-53715716D01*
X188726483Y-54158000D01*
X173968501Y-54158000D01*
X173845199Y-53859586D01*
X173472377Y-53486113D01*
X172985013Y-53283741D01*
X172457303Y-53283281D01*
X171969586Y-53484801D01*
X171596113Y-53857623D01*
X171393741Y-54344987D01*
X171393281Y-54872697D01*
X170744261Y-54872697D01*
X170744719Y-54347303D01*
X170543199Y-53859586D01*
X170170377Y-53486113D01*
X169683013Y-53283741D01*
X169155303Y-53283281D01*
X168667586Y-53484801D01*
X168294113Y-53857623D01*
X168091741Y-54344987D01*
X168091527Y-54590141D01*
X166229668Y-56452000D01*
X162244402Y-56452000D01*
X162022948Y-56304029D01*
X161567325Y-56213400D01*
X161520675Y-56213400D01*
X161065052Y-56304029D01*
X160678794Y-56562119D01*
X160420704Y-56948377D01*
X160330075Y-57404000D01*
X160217925Y-57404000D01*
X160127296Y-56948377D01*
X160115901Y-56931323D01*
X160593612Y-56453612D01*
X160691594Y-56306973D01*
X160692700Y-56301412D01*
X160726000Y-56134000D01*
X160726000Y-55737423D01*
X161065052Y-55963971D01*
X161520675Y-56054600D01*
X161567325Y-56054600D01*
X162022948Y-55963971D01*
X162409206Y-55705881D01*
X162667296Y-55319623D01*
X162757925Y-54864000D01*
X162667296Y-54408377D01*
X162425163Y-54046000D01*
X164084000Y-54046000D01*
X164256973Y-54011594D01*
X164403612Y-53913612D01*
X165673612Y-52643612D01*
X165771594Y-52496973D01*
X165773460Y-52487594D01*
X165806000Y-52324000D01*
X165806000Y-50127331D01*
X165832948Y-50121971D01*
X166219206Y-49863881D01*
X166477296Y-49477623D01*
X166567925Y-49022000D01*
X166680075Y-49022000D01*
X166770704Y-49477623D01*
X167028794Y-49863881D01*
X167415052Y-50121971D01*
X167870675Y-50212600D01*
X167917325Y-50212600D01*
X168372948Y-50121971D01*
X168759206Y-49863881D01*
X169017296Y-49477623D01*
X169107925Y-49022000D01*
X169220075Y-49022000D01*
X169310704Y-49477623D01*
X169568794Y-49863881D01*
X169955052Y-50121971D01*
X170410675Y-50212600D01*
X170457325Y-50212600D01*
X170912948Y-50121971D01*
X171299206Y-49863881D01*
X171557296Y-49477623D01*
X171647925Y-49022000D01*
X171760075Y-49022000D01*
X171850704Y-49477623D01*
X172108794Y-49863881D01*
X172495052Y-50121971D01*
X172950675Y-50212600D01*
X172997325Y-50212600D01*
X173452948Y-50121971D01*
X173839206Y-49863881D01*
X174097296Y-49477623D01*
X174187925Y-49022000D01*
X174300075Y-49022000D01*
X174390704Y-49477623D01*
X174648794Y-49863881D01*
X175035052Y-50121971D01*
X175490675Y-50212600D01*
X175537325Y-50212600D01*
X175992948Y-50121971D01*
X176379206Y-49863881D01*
X176637296Y-49477623D01*
X176727925Y-49022000D01*
X176840075Y-49022000D01*
X176930704Y-49477623D01*
X177188794Y-49863881D01*
X177575052Y-50121971D01*
X178030675Y-50212600D01*
X178077325Y-50212600D01*
X178532948Y-50121971D01*
X178919206Y-49863881D01*
X179177296Y-49477623D01*
X179267925Y-49022000D01*
X179380075Y-49022000D01*
X179470704Y-49477623D01*
X179728794Y-49863881D01*
X180115052Y-50121971D01*
X180570675Y-50212600D01*
X180617325Y-50212600D01*
X181072948Y-50121971D01*
X181459206Y-49863881D01*
X181717296Y-49477623D01*
X181807925Y-49022000D01*
X181920075Y-49022000D01*
X182010704Y-49477623D01*
X182268794Y-49863881D01*
X182655052Y-50121971D01*
X183110675Y-50212600D01*
X183157325Y-50212600D01*
X183612948Y-50121971D01*
X183999206Y-49863881D01*
X184257296Y-49477623D01*
X184347925Y-49022000D01*
X184460075Y-49022000D01*
X184550704Y-49477623D01*
X184808794Y-49863881D01*
X185195052Y-50121971D01*
X185650675Y-50212600D01*
X185697325Y-50212600D01*
X186152948Y-50121971D01*
X186539206Y-49863881D01*
X186797296Y-49477623D01*
X186887925Y-49022000D01*
X186797296Y-48566377D01*
X186539206Y-48180119D01*
X186152948Y-47922029D01*
X185697325Y-47831400D01*
X185650675Y-47831400D01*
X185195052Y-47922029D01*
X184808794Y-48180119D01*
X184550704Y-48566377D01*
X184460075Y-49022000D01*
X184347925Y-49022000D01*
X184257296Y-48566377D01*
X183999206Y-48180119D01*
X183612948Y-47922029D01*
X183157325Y-47831400D01*
X183110675Y-47831400D01*
X182655052Y-47922029D01*
X182268794Y-48180119D01*
X182010704Y-48566377D01*
X181920075Y-49022000D01*
X181807925Y-49022000D01*
X181717296Y-48566377D01*
X181459206Y-48180119D01*
X181072948Y-47922029D01*
X180617325Y-47831400D01*
X180570675Y-47831400D01*
X180115052Y-47922029D01*
X179728794Y-48180119D01*
X179470704Y-48566377D01*
X179380075Y-49022000D01*
X179267925Y-49022000D01*
X179177296Y-48566377D01*
X178919206Y-48180119D01*
X178532948Y-47922029D01*
X178077325Y-47831400D01*
X178030675Y-47831400D01*
X177575052Y-47922029D01*
X177188794Y-48180119D01*
X176930704Y-48566377D01*
X176840075Y-49022000D01*
X176727925Y-49022000D01*
X176637296Y-48566377D01*
X176379206Y-48180119D01*
X175992948Y-47922029D01*
X175537325Y-47831400D01*
X175490675Y-47831400D01*
X175035052Y-47922029D01*
X174648794Y-48180119D01*
X174390704Y-48566377D01*
X174300075Y-49022000D01*
X174187925Y-49022000D01*
X174097296Y-48566377D01*
X173839206Y-48180119D01*
X173452948Y-47922029D01*
X172997325Y-47831400D01*
X172950675Y-47831400D01*
X172495052Y-47922029D01*
X172108794Y-48180119D01*
X171850704Y-48566377D01*
X171760075Y-49022000D01*
X171647925Y-49022000D01*
X171557296Y-48566377D01*
X171299206Y-48180119D01*
X170912948Y-47922029D01*
X170457325Y-47831400D01*
X170410675Y-47831400D01*
X169955052Y-47922029D01*
X169568794Y-48180119D01*
X169310704Y-48566377D01*
X169220075Y-49022000D01*
X169107925Y-49022000D01*
X169017296Y-48566377D01*
X168759206Y-48180119D01*
X168372948Y-47922029D01*
X167917325Y-47831400D01*
X167870675Y-47831400D01*
X167415052Y-47922029D01*
X167028794Y-48180119D01*
X166770704Y-48566377D01*
X166680075Y-49022000D01*
X166567925Y-49022000D01*
X166477296Y-48566377D01*
X166219206Y-48180119D01*
X165832948Y-47922029D01*
X165377325Y-47831400D01*
X165330675Y-47831400D01*
X164875052Y-47922029D01*
X164536000Y-48148577D01*
X164536000Y-47939224D01*
X164890233Y-47584991D01*
X165330675Y-47672600D01*
X165377325Y-47672600D01*
X165832948Y-47581971D01*
X166219206Y-47323881D01*
X166477296Y-46937623D01*
X166567925Y-46482000D01*
X166680075Y-46482000D01*
X166770704Y-46937623D01*
X167028794Y-47323881D01*
X167415052Y-47581971D01*
X167870675Y-47672600D01*
X167917325Y-47672600D01*
X168372948Y-47581971D01*
X168759206Y-47323881D01*
X169017296Y-46937623D01*
X169107925Y-46482000D01*
X169220075Y-46482000D01*
X169310704Y-46937623D01*
X169568794Y-47323881D01*
X169955052Y-47581971D01*
X170410675Y-47672600D01*
X170457325Y-47672600D01*
X170912948Y-47581971D01*
X171299206Y-47323881D01*
X171557296Y-46937623D01*
X171647925Y-46482000D01*
X171760075Y-46482000D01*
X171850704Y-46937623D01*
X172108794Y-47323881D01*
X172495052Y-47581971D01*
X172950675Y-47672600D01*
X172997325Y-47672600D01*
X173452948Y-47581971D01*
X173839206Y-47323881D01*
X174097296Y-46937623D01*
X174187925Y-46482000D01*
X174300075Y-46482000D01*
X174390704Y-46937623D01*
X174648794Y-47323881D01*
X175035052Y-47581971D01*
X175490675Y-47672600D01*
X175537325Y-47672600D01*
X175992948Y-47581971D01*
X176379206Y-47323881D01*
X176637296Y-46937623D01*
X176727925Y-46482000D01*
X176840075Y-46482000D01*
X176930704Y-46937623D01*
X177188794Y-47323881D01*
X177575052Y-47581971D01*
X178030675Y-47672600D01*
X178077325Y-47672600D01*
X178532948Y-47581971D01*
X178919206Y-47323881D01*
X179177296Y-46937623D01*
X179267925Y-46482000D01*
X179380075Y-46482000D01*
X179470704Y-46937623D01*
X179728794Y-47323881D01*
X180115052Y-47581971D01*
X180570675Y-47672600D01*
X180617325Y-47672600D01*
X181072948Y-47581971D01*
X181459206Y-47323881D01*
X181717296Y-46937623D01*
X181807925Y-46482000D01*
X181920075Y-46482000D01*
X182010704Y-46937623D01*
X182268794Y-47323881D01*
X182655052Y-47581971D01*
X183110675Y-47672600D01*
X183157325Y-47672600D01*
X183612948Y-47581971D01*
X183999206Y-47323881D01*
X184257296Y-46937623D01*
X184347925Y-46482000D01*
X184460075Y-46482000D01*
X184550704Y-46937623D01*
X184808794Y-47323881D01*
X185195052Y-47581971D01*
X185650675Y-47672600D01*
X185697325Y-47672600D01*
X186152948Y-47581971D01*
X186539206Y-47323881D01*
X186797296Y-46937623D01*
X186887925Y-46482000D01*
X186797296Y-46026377D01*
X186539206Y-45640119D01*
X186152948Y-45382029D01*
X185697325Y-45291400D01*
X185650675Y-45291400D01*
X185195052Y-45382029D01*
X184808794Y-45640119D01*
X184550704Y-46026377D01*
X184460075Y-46482000D01*
X184347925Y-46482000D01*
X184257296Y-46026377D01*
X183999206Y-45640119D01*
X183612948Y-45382029D01*
X183157325Y-45291400D01*
X183110675Y-45291400D01*
X182655052Y-45382029D01*
X182268794Y-45640119D01*
X182010704Y-46026377D01*
X181920075Y-46482000D01*
X181807925Y-46482000D01*
X181717296Y-46026377D01*
X181459206Y-45640119D01*
X181072948Y-45382029D01*
X180617325Y-45291400D01*
X180570675Y-45291400D01*
X180115052Y-45382029D01*
X179728794Y-45640119D01*
X179470704Y-46026377D01*
X179380075Y-46482000D01*
X179267925Y-46482000D01*
X179177296Y-46026377D01*
X178919206Y-45640119D01*
X178532948Y-45382029D01*
X178077325Y-45291400D01*
X178030675Y-45291400D01*
X177575052Y-45382029D01*
X177188794Y-45640119D01*
X176930704Y-46026377D01*
X176840075Y-46482000D01*
X176727925Y-46482000D01*
X176637296Y-46026377D01*
X176379206Y-45640119D01*
X175992948Y-45382029D01*
X175537325Y-45291400D01*
X175490675Y-45291400D01*
X175035052Y-45382029D01*
X174648794Y-45640119D01*
X174390704Y-46026377D01*
X174300075Y-46482000D01*
X174187925Y-46482000D01*
X174097296Y-46026377D01*
X173839206Y-45640119D01*
X173452948Y-45382029D01*
X172997325Y-45291400D01*
X172950675Y-45291400D01*
X172495052Y-45382029D01*
X172108794Y-45640119D01*
X171850704Y-46026377D01*
X171760075Y-46482000D01*
X171647925Y-46482000D01*
X171557296Y-46026377D01*
X171299206Y-45640119D01*
X170912948Y-45382029D01*
X170457325Y-45291400D01*
X170410675Y-45291400D01*
X169955052Y-45382029D01*
X169568794Y-45640119D01*
X169310704Y-46026377D01*
X169220075Y-46482000D01*
X169107925Y-46482000D01*
X169017296Y-46026377D01*
X168759206Y-45640119D01*
X168372948Y-45382029D01*
X167917325Y-45291400D01*
X167870675Y-45291400D01*
X167415052Y-45382029D01*
X167028794Y-45640119D01*
X166770704Y-46026377D01*
X166680075Y-46482000D01*
X166567925Y-46482000D01*
X166477296Y-46026377D01*
X166219206Y-45640119D01*
X165832948Y-45382029D01*
X165377325Y-45291400D01*
X165330675Y-45291400D01*
X164875052Y-45382029D01*
X164488794Y-45640119D01*
X164230704Y-46026377D01*
X164140075Y-46482000D01*
X164230704Y-46937623D01*
X164242099Y-46954677D01*
X163764388Y-47432388D01*
X163666406Y-47579027D01*
X163632000Y-47752000D01*
X163632000Y-48148577D01*
X163292948Y-47922029D01*
X162837325Y-47831400D01*
X162790675Y-47831400D01*
X162335052Y-47922029D01*
X161996000Y-48148577D01*
X161996000Y-47939224D01*
X162350233Y-47584991D01*
X162790675Y-47672600D01*
X162837325Y-47672600D01*
X163292948Y-47581971D01*
X163679206Y-47323881D01*
X163937296Y-46937623D01*
X164027925Y-46482000D01*
X163937296Y-46026377D01*
X163679206Y-45640119D01*
X163292948Y-45382029D01*
X162837325Y-45291400D01*
X162790675Y-45291400D01*
X162335052Y-45382029D01*
X161948794Y-45640119D01*
X161690704Y-46026377D01*
X161600075Y-46482000D01*
X161690704Y-46937623D01*
X161702099Y-46954677D01*
X161224388Y-47432388D01*
X161126406Y-47579027D01*
X161092000Y-47752000D01*
X161092000Y-48148577D01*
X160752948Y-47922029D01*
X160297325Y-47831400D01*
X160250675Y-47831400D01*
X159795052Y-47922029D01*
X159408794Y-48180119D01*
X159150704Y-48566377D01*
X159060075Y-49022000D01*
X159150704Y-49477623D01*
X159408794Y-49863881D01*
X159795052Y-50121971D01*
X160250675Y-50212600D01*
X160297325Y-50212600D01*
X160752948Y-50121971D01*
X161092000Y-49895423D01*
X161092000Y-50612776D01*
X160086776Y-51618000D01*
X159258000Y-51618000D01*
X159085027Y-51652406D01*
X158938388Y-51750388D01*
X156927767Y-53761009D01*
X156487325Y-53673400D01*
X156440675Y-53673400D01*
X155985052Y-53764029D01*
X155598794Y-54022119D01*
X155340704Y-54408377D01*
X155250075Y-54864000D01*
X155137925Y-54864000D01*
X155047296Y-54408377D01*
X154805163Y-54046000D01*
X155194000Y-54046000D01*
X155366973Y-54011594D01*
X155513612Y-53913612D01*
X156783612Y-52643612D01*
X156881594Y-52496973D01*
X156883460Y-52487594D01*
X156916000Y-52324000D01*
X156916000Y-49895423D01*
X157255052Y-50121971D01*
X157710675Y-50212600D01*
X157757325Y-50212600D01*
X158212948Y-50121971D01*
X158599206Y-49863881D01*
X158857296Y-49477623D01*
X158947925Y-49022000D01*
X158857296Y-48566377D01*
X158599206Y-48180119D01*
X158212948Y-47922029D01*
X157757325Y-47831400D01*
X157710675Y-47831400D01*
X157255052Y-47922029D01*
X156916000Y-48148577D01*
X156916000Y-47752000D01*
X156881594Y-47579027D01*
X156783612Y-47432388D01*
X156305901Y-46954677D01*
X156317296Y-46937623D01*
X156407925Y-46482000D01*
X156520075Y-46482000D01*
X156610704Y-46937623D01*
X156868794Y-47323881D01*
X157255052Y-47581971D01*
X157710675Y-47672600D01*
X157757325Y-47672600D01*
X158212948Y-47581971D01*
X158599206Y-47323881D01*
X158857296Y-46937623D01*
X158947925Y-46482000D01*
X159060075Y-46482000D01*
X159150704Y-46937623D01*
X159408794Y-47323881D01*
X159795052Y-47581971D01*
X160250675Y-47672600D01*
X160297325Y-47672600D01*
X160752948Y-47581971D01*
X161139206Y-47323881D01*
X161397296Y-46937623D01*
X161487925Y-46482000D01*
X161397296Y-46026377D01*
X161139206Y-45640119D01*
X160752948Y-45382029D01*
X160297325Y-45291400D01*
X160250675Y-45291400D01*
X159795052Y-45382029D01*
X159408794Y-45640119D01*
X159150704Y-46026377D01*
X159060075Y-46482000D01*
X158947925Y-46482000D01*
X158857296Y-46026377D01*
X158599206Y-45640119D01*
X158212948Y-45382029D01*
X157757325Y-45291400D01*
X157710675Y-45291400D01*
X157255052Y-45382029D01*
X156868794Y-45640119D01*
X156610704Y-46026377D01*
X156520075Y-46482000D01*
X156407925Y-46482000D01*
X156317296Y-46026377D01*
X156059206Y-45640119D01*
X155672948Y-45382029D01*
X155217325Y-45291400D01*
X155170675Y-45291400D01*
X154715052Y-45382029D01*
X154328794Y-45640119D01*
X154070704Y-46026377D01*
X153980075Y-46482000D01*
X154070704Y-46937623D01*
X154328794Y-47323881D01*
X154715052Y-47581971D01*
X155170675Y-47672600D01*
X155217325Y-47672600D01*
X155657767Y-47584991D01*
X156012000Y-47939224D01*
X156012000Y-48148577D01*
X155672948Y-47922029D01*
X155217325Y-47831400D01*
X155170675Y-47831400D01*
X154715052Y-47922029D01*
X154328794Y-48180119D01*
X154070704Y-48566377D01*
X153980075Y-49022000D01*
X154070704Y-49477623D01*
X154328794Y-49863881D01*
X154715052Y-50121971D01*
X154742000Y-50127331D01*
X154742000Y-51628776D01*
X153736776Y-52634000D01*
X148082000Y-52634000D01*
X147909027Y-52668406D01*
X147762388Y-52766388D01*
X146767767Y-53761009D01*
X146327325Y-53673400D01*
X146280675Y-53673400D01*
X145825052Y-53764029D01*
X145438794Y-54022119D01*
X145180704Y-54408377D01*
X145180134Y-54411240D01*
X145046688Y-54089053D01*
X144652490Y-53657179D01*
X144123027Y-53409032D01*
X143891000Y-53529531D01*
X143891000Y-54737000D01*
X143911000Y-54737000D01*
X143911000Y-54991000D01*
X143891000Y-54991000D01*
X143891000Y-55011000D01*
X143637000Y-55011000D01*
X143637000Y-54991000D01*
X142430183Y-54991000D01*
X142309042Y-55223026D01*
X138696000Y-55223026D01*
X138696000Y-54504974D01*
X142309042Y-54504974D01*
X142430183Y-54737000D01*
X143637000Y-54737000D01*
X143637000Y-53529531D01*
X143404973Y-53409032D01*
X142875510Y-53657179D01*
X142481312Y-54089053D01*
X142309042Y-54504974D01*
X138696000Y-54504974D01*
X138696000Y-51681224D01*
X138871224Y-51506000D01*
X148082000Y-51506000D01*
X148254973Y-51471594D01*
X148401612Y-51373612D01*
X149650233Y-50124991D01*
X150090675Y-50212600D01*
X150137325Y-50212600D01*
X150592948Y-50121971D01*
X150979206Y-49863881D01*
X151237296Y-49477623D01*
X151327925Y-49022000D01*
X151440075Y-49022000D01*
X151530704Y-49477623D01*
X151788794Y-49863881D01*
X152175052Y-50121971D01*
X152630675Y-50212600D01*
X152677325Y-50212600D01*
X153132948Y-50121971D01*
X153519206Y-49863881D01*
X153777296Y-49477623D01*
X153867925Y-49022000D01*
X153777296Y-48566377D01*
X153519206Y-48180119D01*
X153132948Y-47922029D01*
X152677325Y-47831400D01*
X152630675Y-47831400D01*
X152175052Y-47922029D01*
X151788794Y-48180119D01*
X151530704Y-48566377D01*
X151440075Y-49022000D01*
X151327925Y-49022000D01*
X151237296Y-48566377D01*
X150979206Y-48180119D01*
X150592948Y-47922029D01*
X150137325Y-47831400D01*
X150090675Y-47831400D01*
X149635052Y-47922029D01*
X149248794Y-48180119D01*
X148990704Y-48566377D01*
X148900075Y-49022000D01*
X148990704Y-49477623D01*
X149002099Y-49494677D01*
X147894776Y-50602000D01*
X138684000Y-50602000D01*
X138511027Y-50636406D01*
X138364388Y-50734388D01*
X137924388Y-51174388D01*
X137826406Y-51321027D01*
X137792000Y-51494000D01*
X137792000Y-69802594D01*
X136994000Y-69802594D01*
X136872821Y-69825395D01*
X136761526Y-69897012D01*
X136686862Y-70006286D01*
X136660594Y-70136000D01*
X134409000Y-70136000D01*
X134409000Y-64688000D01*
X134401756Y-64651581D01*
X134401756Y-64614451D01*
X134325636Y-64231768D01*
X134269345Y-64095867D01*
X134269342Y-64095864D01*
X134052571Y-63771443D01*
X133948557Y-63667429D01*
X133624136Y-63450658D01*
X133624133Y-63450655D01*
X133553555Y-63421421D01*
X133488232Y-63394363D01*
X133488227Y-63394363D01*
X133105549Y-63318244D01*
X133068419Y-63318244D01*
X133032000Y-63311000D01*
X130069131Y-63311000D01*
X129796415Y-63256754D01*
X129596695Y-63123305D01*
X129463246Y-62923585D01*
X129409000Y-62650869D01*
X129409000Y-48580126D01*
X129794687Y-49513561D01*
X130701664Y-50422123D01*
X131887294Y-50914439D01*
X133171074Y-50915559D01*
X134357561Y-50425313D01*
X135266123Y-49518336D01*
X135758439Y-48332706D01*
X135759559Y-47048926D01*
X135673657Y-46841026D01*
X135959042Y-46841026D01*
X136131312Y-47256947D01*
X136525510Y-47688821D01*
X136992773Y-47907816D01*
X136740460Y-48012070D01*
X136405247Y-48346699D01*
X136223607Y-48784136D01*
X136223194Y-49257786D01*
X136404070Y-49695540D01*
X136738699Y-50030753D01*
X137176136Y-50212393D01*
X137649786Y-50212806D01*
X138087540Y-50031930D01*
X138422753Y-49697301D01*
X138604393Y-49259864D01*
X138604806Y-48786214D01*
X138423930Y-48348460D01*
X138089301Y-48013247D01*
X137835306Y-47907779D01*
X138302490Y-47688821D01*
X138684000Y-47270848D01*
X139065510Y-47688821D01*
X139532773Y-47907816D01*
X139280460Y-48012070D01*
X138945247Y-48346699D01*
X138763607Y-48784136D01*
X138763194Y-49257786D01*
X138944070Y-49695540D01*
X139278699Y-50030753D01*
X139716136Y-50212393D01*
X140189786Y-50212806D01*
X140627540Y-50031930D01*
X140962753Y-49697301D01*
X141144393Y-49259864D01*
X141144600Y-49022000D01*
X141280075Y-49022000D01*
X141370704Y-49477623D01*
X141628794Y-49863881D01*
X142015052Y-50121971D01*
X142470675Y-50212600D01*
X142517325Y-50212600D01*
X142972948Y-50121971D01*
X143359206Y-49863881D01*
X143617296Y-49477623D01*
X143707925Y-49022000D01*
X143820075Y-49022000D01*
X143910704Y-49477623D01*
X144168794Y-49863881D01*
X144555052Y-50121971D01*
X145010675Y-50212600D01*
X145057325Y-50212600D01*
X145512948Y-50121971D01*
X145899206Y-49863881D01*
X146157296Y-49477623D01*
X146247925Y-49022000D01*
X146360075Y-49022000D01*
X146450704Y-49477623D01*
X146708794Y-49863881D01*
X147095052Y-50121971D01*
X147550675Y-50212600D01*
X147597325Y-50212600D01*
X148052948Y-50121971D01*
X148439206Y-49863881D01*
X148697296Y-49477623D01*
X148787925Y-49022000D01*
X148697296Y-48566377D01*
X148439206Y-48180119D01*
X148052948Y-47922029D01*
X147597325Y-47831400D01*
X147550675Y-47831400D01*
X147095052Y-47922029D01*
X146708794Y-48180119D01*
X146450704Y-48566377D01*
X146360075Y-49022000D01*
X146247925Y-49022000D01*
X146157296Y-48566377D01*
X145899206Y-48180119D01*
X145512948Y-47922029D01*
X145057325Y-47831400D01*
X145010675Y-47831400D01*
X144555052Y-47922029D01*
X144168794Y-48180119D01*
X143910704Y-48566377D01*
X143820075Y-49022000D01*
X143707925Y-49022000D01*
X143617296Y-48566377D01*
X143359206Y-48180119D01*
X142972948Y-47922029D01*
X142517325Y-47831400D01*
X142470675Y-47831400D01*
X142015052Y-47922029D01*
X141628794Y-48180119D01*
X141370704Y-48566377D01*
X141280075Y-49022000D01*
X141144600Y-49022000D01*
X141144806Y-48786214D01*
X140963930Y-48348460D01*
X140629301Y-48013247D01*
X140375306Y-47907779D01*
X140842490Y-47688821D01*
X141236688Y-47256947D01*
X141370134Y-46934760D01*
X141370704Y-46937623D01*
X141628794Y-47323881D01*
X142015052Y-47581971D01*
X142470675Y-47672600D01*
X142517325Y-47672600D01*
X142972948Y-47581971D01*
X143359206Y-47323881D01*
X143617296Y-46937623D01*
X143707925Y-46482000D01*
X143820075Y-46482000D01*
X143910704Y-46937623D01*
X144168794Y-47323881D01*
X144555052Y-47581971D01*
X145010675Y-47672600D01*
X145057325Y-47672600D01*
X145512948Y-47581971D01*
X145899206Y-47323881D01*
X146157296Y-46937623D01*
X146247925Y-46482000D01*
X146360075Y-46482000D01*
X146450704Y-46937623D01*
X146708794Y-47323881D01*
X147095052Y-47581971D01*
X147550675Y-47672600D01*
X147597325Y-47672600D01*
X148052948Y-47581971D01*
X148439206Y-47323881D01*
X148697296Y-46937623D01*
X148787925Y-46482000D01*
X148900075Y-46482000D01*
X148990704Y-46937623D01*
X149248794Y-47323881D01*
X149635052Y-47581971D01*
X150090675Y-47672600D01*
X150137325Y-47672600D01*
X150592948Y-47581971D01*
X150979206Y-47323881D01*
X151237296Y-46937623D01*
X151327925Y-46482000D01*
X151440075Y-46482000D01*
X151530704Y-46937623D01*
X151788794Y-47323881D01*
X152175052Y-47581971D01*
X152630675Y-47672600D01*
X152677325Y-47672600D01*
X153132948Y-47581971D01*
X153519206Y-47323881D01*
X153777296Y-46937623D01*
X153867925Y-46482000D01*
X153777296Y-46026377D01*
X153519206Y-45640119D01*
X153132948Y-45382029D01*
X152677325Y-45291400D01*
X152630675Y-45291400D01*
X152175052Y-45382029D01*
X151788794Y-45640119D01*
X151530704Y-46026377D01*
X151440075Y-46482000D01*
X151327925Y-46482000D01*
X151237296Y-46026377D01*
X150979206Y-45640119D01*
X150592948Y-45382029D01*
X150137325Y-45291400D01*
X150090675Y-45291400D01*
X149635052Y-45382029D01*
X149248794Y-45640119D01*
X148990704Y-46026377D01*
X148900075Y-46482000D01*
X148787925Y-46482000D01*
X148697296Y-46026377D01*
X148439206Y-45640119D01*
X148052948Y-45382029D01*
X147597325Y-45291400D01*
X147550675Y-45291400D01*
X147095052Y-45382029D01*
X146708794Y-45640119D01*
X146450704Y-46026377D01*
X146360075Y-46482000D01*
X146247925Y-46482000D01*
X146157296Y-46026377D01*
X145899206Y-45640119D01*
X145512948Y-45382029D01*
X145057325Y-45291400D01*
X145010675Y-45291400D01*
X144555052Y-45382029D01*
X144168794Y-45640119D01*
X143910704Y-46026377D01*
X143820075Y-46482000D01*
X143707925Y-46482000D01*
X143617296Y-46026377D01*
X143359206Y-45640119D01*
X142972948Y-45382029D01*
X142517325Y-45291400D01*
X142470675Y-45291400D01*
X142015052Y-45382029D01*
X141628794Y-45640119D01*
X141370704Y-46026377D01*
X141370134Y-46029240D01*
X141236688Y-45707053D01*
X140842490Y-45275179D01*
X140313027Y-45027032D01*
X140081000Y-45147531D01*
X140081000Y-46355000D01*
X140101000Y-46355000D01*
X140101000Y-46609000D01*
X140081000Y-46609000D01*
X140081000Y-46629000D01*
X139827000Y-46629000D01*
X139827000Y-46609000D01*
X137541000Y-46609000D01*
X137541000Y-46629000D01*
X137287000Y-46629000D01*
X137287000Y-46609000D01*
X136080183Y-46609000D01*
X135959042Y-46841026D01*
X135673657Y-46841026D01*
X135376964Y-46122974D01*
X135959042Y-46122974D01*
X136080183Y-46355000D01*
X137287000Y-46355000D01*
X137287000Y-45147531D01*
X137541000Y-45147531D01*
X137541000Y-46355000D01*
X139827000Y-46355000D01*
X139827000Y-45147531D01*
X139594973Y-45027032D01*
X139065510Y-45275179D01*
X138684000Y-45693152D01*
X138302490Y-45275179D01*
X137773027Y-45027032D01*
X137541000Y-45147531D01*
X137287000Y-45147531D01*
X137054973Y-45027032D01*
X136525510Y-45275179D01*
X136131312Y-45707053D01*
X135959042Y-46122974D01*
X135376964Y-46122974D01*
X135269313Y-45862439D01*
X134362336Y-44953877D01*
X133425815Y-44565000D01*
X189639874Y-44565000D01*
X188706439Y-44950687D01*
X188706439Y-44950687D01*
G37*
X188706439Y-44950687D02*
X187797877Y-45857664D01*
X187305561Y-47043294D01*
X187304441Y-48327074D01*
X187794687Y-49513561D01*
X188701664Y-50422123D01*
X189887294Y-50914439D01*
X191171074Y-50915559D01*
X192357561Y-50425313D01*
X193266123Y-49518336D01*
X193655000Y-48581815D01*
X193655000Y-95795874D01*
X193269313Y-94862439D01*
X192362336Y-93953877D01*
X191176706Y-93461561D01*
X189892926Y-93460441D01*
X188706439Y-93950687D01*
X187797877Y-94857664D01*
X187305561Y-96043294D01*
X187304441Y-97327074D01*
X187794687Y-98513561D01*
X188701664Y-99422123D01*
X189638185Y-99811000D01*
X182255756Y-99811000D01*
X182471107Y-99667107D01*
X190091107Y-92047108D01*
X190432958Y-91535492D01*
X190472534Y-91336528D01*
X190553000Y-90932000D01*
X190553000Y-87847286D01*
X190577669Y-87884206D01*
X191008179Y-88171863D01*
X191516000Y-88272875D01*
X192023821Y-88171863D01*
X192454331Y-87884206D01*
X192741988Y-87453696D01*
X192843000Y-86945875D01*
X192843000Y-86282125D01*
X192741988Y-85774304D01*
X192454331Y-85343794D01*
X192023821Y-85056137D01*
X191516000Y-84955125D01*
X191008179Y-85056137D01*
X190577669Y-85343794D01*
X190553000Y-85380714D01*
X190553000Y-76708000D01*
X190432958Y-76104508D01*
X190262810Y-75849864D01*
X190091107Y-75592892D01*
X187551107Y-73052893D01*
X187039492Y-72711042D01*
X186436000Y-72591000D01*
X185469059Y-72591000D01*
X185780136Y-72280465D01*
X186020725Y-71701061D01*
X186021273Y-71073692D01*
X185781695Y-70493868D01*
X185338465Y-70049864D01*
X184759061Y-69809275D01*
X184131692Y-69808727D01*
X183551868Y-70048305D01*
X183107864Y-70491535D01*
X182867275Y-71070939D01*
X182866727Y-71698308D01*
X182923202Y-71834988D01*
X181360080Y-70271866D01*
X181138465Y-70049864D01*
X180559061Y-69809275D01*
X179931692Y-69808727D01*
X179931031Y-69809000D01*
X176044232Y-69809000D01*
X175731692Y-69808727D01*
X175151868Y-70048305D01*
X174707864Y-70491535D01*
X174467275Y-71070939D01*
X174466727Y-71698308D01*
X174706305Y-72278132D01*
X175149535Y-72722136D01*
X175728939Y-72962725D01*
X176356308Y-72963273D01*
X176356969Y-72963000D01*
X179590786Y-72963000D01*
X181910893Y-75283107D01*
X182422508Y-75624958D01*
X183026000Y-75745000D01*
X183801886Y-75745000D01*
X183551868Y-75848305D01*
X183107864Y-76291535D01*
X182867275Y-76870939D01*
X182866727Y-77498308D01*
X183106305Y-78078132D01*
X183549535Y-78522136D01*
X184128939Y-78762725D01*
X184756308Y-78763273D01*
X185336132Y-78523695D01*
X185780136Y-78080465D01*
X186020725Y-77501061D01*
X186021273Y-76873692D01*
X185781695Y-76293868D01*
X185338465Y-75849864D01*
X185085924Y-75745000D01*
X185782786Y-75745000D01*
X187399000Y-77361215D01*
X187399000Y-84980594D01*
X185436000Y-84980594D01*
X185314821Y-85003395D01*
X185203526Y-85075012D01*
X185128862Y-85184286D01*
X185102594Y-85314000D01*
X185102594Y-87914000D01*
X185125395Y-88035179D01*
X185197012Y-88146474D01*
X185306286Y-88221138D01*
X185436000Y-88247406D01*
X187399000Y-88247406D01*
X187399000Y-90278785D01*
X180702786Y-96975000D01*
X175139138Y-96975000D01*
X175269342Y-96780136D01*
X175269345Y-96780133D01*
X175325636Y-96644232D01*
X175401756Y-96261549D01*
X175401756Y-96224419D01*
X175409000Y-96188000D01*
X175409000Y-81188000D01*
X175401756Y-81151581D01*
X175401756Y-81114451D01*
X175325636Y-80731768D01*
X175269345Y-80595867D01*
X175269342Y-80595864D01*
X175052571Y-80271443D01*
X174948557Y-80167429D01*
X174624136Y-79950658D01*
X174624133Y-79950655D01*
X174556183Y-79922510D01*
X174488232Y-79894363D01*
X174488227Y-79894363D01*
X174105551Y-79818244D01*
X173958449Y-79818244D01*
X173575768Y-79894364D01*
X173439867Y-79950655D01*
X173439864Y-79950658D01*
X173115443Y-80167429D01*
X173011429Y-80271443D01*
X172794658Y-80595864D01*
X172794655Y-80595867D01*
X172766510Y-80663817D01*
X172738363Y-80731768D01*
X172738363Y-80731773D01*
X172662244Y-81114451D01*
X172662244Y-81151581D01*
X172655000Y-81188000D01*
X172655000Y-96188000D01*
X172662244Y-96224419D01*
X172662244Y-96261549D01*
X172738363Y-96644227D01*
X172738363Y-96644232D01*
X172755522Y-96685657D01*
X172794655Y-96780133D01*
X172794658Y-96780136D01*
X172924862Y-96975000D01*
X151205215Y-96975000D01*
X144378888Y-90148673D01*
X154383674Y-90148673D01*
X154661212Y-90820367D01*
X155174670Y-91334722D01*
X155845879Y-91613432D01*
X156572653Y-91614066D01*
X157244347Y-91336528D01*
X157758702Y-90823070D01*
X158037412Y-90151861D01*
X158037414Y-90148673D01*
X168099674Y-90148673D01*
X168377212Y-90820367D01*
X168890670Y-91334722D01*
X169561879Y-91613432D01*
X170288653Y-91614066D01*
X170960347Y-91336528D01*
X171474702Y-90823070D01*
X171753412Y-90151861D01*
X171754046Y-89425087D01*
X171476508Y-88753393D01*
X170963050Y-88239038D01*
X170291841Y-87960328D01*
X169565067Y-87959694D01*
X168893373Y-88237232D01*
X168379018Y-88750690D01*
X168100308Y-89421899D01*
X168099674Y-90148673D01*
X158037414Y-90148673D01*
X158038046Y-89425087D01*
X157760508Y-88753393D01*
X157247050Y-88239038D01*
X156892486Y-88091810D01*
X158974535Y-88091810D01*
X159042595Y-88332811D01*
X159561894Y-88517647D01*
X160112398Y-88489685D01*
X160491125Y-88332811D01*
X160559185Y-88091810D01*
X159766860Y-87299485D01*
X158974535Y-88091810D01*
X156892486Y-88091810D01*
X156575841Y-87960328D01*
X155849067Y-87959694D01*
X155177373Y-88237232D01*
X154663018Y-88750690D01*
X154384308Y-89421899D01*
X154383674Y-90148673D01*
X144378888Y-90148673D01*
X143382747Y-89152532D01*
X144027073Y-89152532D01*
X144125736Y-89419387D01*
X144735461Y-89645908D01*
X145385460Y-89621856D01*
X145874264Y-89419387D01*
X145972927Y-89152532D01*
X145000000Y-88179605D01*
X144027073Y-89152532D01*
X143382747Y-89152532D01*
X141965676Y-87735461D01*
X143354092Y-87735461D01*
X143378144Y-88385460D01*
X143580613Y-88874264D01*
X143847468Y-88972927D01*
X144820395Y-88000000D01*
X145179605Y-88000000D01*
X146152532Y-88972927D01*
X146419387Y-88874264D01*
X146645908Y-88264539D01*
X146636120Y-88000000D01*
X148423001Y-88000000D01*
X148543042Y-88603492D01*
X148884893Y-89115107D01*
X149396508Y-89456958D01*
X150000000Y-89576999D01*
X150603492Y-89456958D01*
X151115107Y-89115107D01*
X153315300Y-86914914D01*
X158369093Y-86914914D01*
X158397055Y-87465418D01*
X158553929Y-87844145D01*
X158794930Y-87912205D01*
X159587255Y-87119880D01*
X159946465Y-87119880D01*
X160738790Y-87912205D01*
X160979791Y-87844145D01*
X161161624Y-87333282D01*
X161229103Y-87333282D01*
X161392808Y-87729477D01*
X161695669Y-88032867D01*
X162091578Y-88197263D01*
X162520262Y-88197637D01*
X162916457Y-88033932D01*
X163219847Y-87731071D01*
X163322910Y-87482867D01*
X163424808Y-87729477D01*
X163727669Y-88032867D01*
X164123578Y-88197263D01*
X164552262Y-88197637D01*
X164948457Y-88033932D01*
X165251847Y-87731071D01*
X165416243Y-87335162D01*
X165416244Y-87333282D01*
X165801103Y-87333282D01*
X165964808Y-87729477D01*
X166267669Y-88032867D01*
X166663578Y-88197263D01*
X167092262Y-88197637D01*
X167488457Y-88033932D01*
X167791847Y-87731071D01*
X167956243Y-87335162D01*
X167956617Y-86906478D01*
X167792912Y-86510283D01*
X167490051Y-86206893D01*
X167094142Y-86042497D01*
X166665458Y-86042123D01*
X166269263Y-86205828D01*
X165965873Y-86508689D01*
X165801477Y-86904598D01*
X165801103Y-87333282D01*
X165416244Y-87333282D01*
X165416617Y-86906478D01*
X165252912Y-86510283D01*
X164950051Y-86206893D01*
X164554142Y-86042497D01*
X164125458Y-86042123D01*
X163729263Y-86205828D01*
X163425873Y-86508689D01*
X163322810Y-86756893D01*
X163220912Y-86510283D01*
X162918051Y-86206893D01*
X162522142Y-86042497D01*
X162093458Y-86042123D01*
X161697263Y-86205828D01*
X161393873Y-86508689D01*
X161229477Y-86904598D01*
X161229103Y-87333282D01*
X161161624Y-87333282D01*
X161164627Y-87324846D01*
X161136665Y-86774342D01*
X160979791Y-86395615D01*
X160738790Y-86327555D01*
X159946465Y-87119880D01*
X159587255Y-87119880D01*
X158794930Y-86327555D01*
X158553929Y-86395615D01*
X158369093Y-86914914D01*
X153315300Y-86914914D01*
X154082264Y-86147950D01*
X158974535Y-86147950D01*
X159766860Y-86940275D01*
X160559185Y-86147950D01*
X160491125Y-85906949D01*
X159971826Y-85722113D01*
X159421322Y-85750075D01*
X159042595Y-85906949D01*
X158974535Y-86147950D01*
X154082264Y-86147950D01*
X158389214Y-81841000D01*
X168766000Y-81841000D01*
X169369492Y-81720958D01*
X169881107Y-81379107D01*
X172497215Y-78763000D01*
X176043768Y-78763000D01*
X176356308Y-78763273D01*
X176356969Y-78763000D01*
X178255000Y-78763000D01*
X178255000Y-84980594D01*
X176292000Y-84980594D01*
X176170821Y-85003395D01*
X176059526Y-85075012D01*
X175984862Y-85184286D01*
X175958594Y-85314000D01*
X175958594Y-87914000D01*
X175981395Y-88035179D01*
X176053012Y-88146474D01*
X176162286Y-88221138D01*
X176292000Y-88247406D01*
X178292000Y-88247406D01*
X178413179Y-88224605D01*
X178524474Y-88152988D01*
X178599138Y-88043714D01*
X178625406Y-87914000D01*
X178625406Y-87592187D01*
X178716893Y-87729107D01*
X178849029Y-87817398D01*
X178893669Y-87884206D01*
X179324179Y-88171863D01*
X179832000Y-88272875D01*
X180339821Y-88171863D01*
X180770331Y-87884206D01*
X180814971Y-87817398D01*
X180947107Y-87729107D01*
X181142598Y-87436534D01*
X181146012Y-87453696D01*
X181433669Y-87884206D01*
X181864179Y-88171863D01*
X182372000Y-88272875D01*
X182879821Y-88171863D01*
X183310331Y-87884206D01*
X183597988Y-87453696D01*
X183699000Y-86945875D01*
X183699000Y-86282125D01*
X183597988Y-85774304D01*
X183310331Y-85343794D01*
X182879821Y-85056137D01*
X182372000Y-84955125D01*
X181864179Y-85056137D01*
X181433669Y-85343794D01*
X181409000Y-85380714D01*
X181409000Y-78251303D01*
X181580136Y-78080465D01*
X181820725Y-77501061D01*
X181821273Y-76873692D01*
X181581695Y-76293868D01*
X181138465Y-75849864D01*
X180559061Y-75609275D01*
X179931692Y-75608727D01*
X179931031Y-75609000D01*
X176044232Y-75609000D01*
X175731692Y-75608727D01*
X175731031Y-75609000D01*
X171844232Y-75609000D01*
X171531692Y-75608727D01*
X170951868Y-75848305D01*
X170507864Y-76291535D01*
X170507590Y-76292195D01*
X169165338Y-77634447D01*
X169220725Y-77501061D01*
X169221273Y-76873692D01*
X168981695Y-76293868D01*
X168538465Y-75849864D01*
X167959061Y-75609275D01*
X167331692Y-75608727D01*
X166751868Y-75848305D01*
X166307864Y-76291535D01*
X166067275Y-76870939D01*
X166066727Y-77498308D01*
X166306305Y-78078132D01*
X166749535Y-78522136D01*
X167146573Y-78687000D01*
X163940903Y-78687000D01*
X164336132Y-78523695D01*
X164780136Y-78080465D01*
X165020725Y-77501061D01*
X165021273Y-76873692D01*
X164781695Y-76293868D01*
X164338465Y-75849864D01*
X163759061Y-75609275D01*
X163131692Y-75608727D01*
X162551868Y-75848305D01*
X162107864Y-76291535D01*
X161867275Y-76870939D01*
X161866727Y-77498308D01*
X162106305Y-78078132D01*
X162549535Y-78522136D01*
X162946573Y-78687000D01*
X159740903Y-78687000D01*
X160136132Y-78523695D01*
X160580136Y-78080465D01*
X160820725Y-77501061D01*
X160821273Y-76873692D01*
X160581695Y-76293868D01*
X160138465Y-75849864D01*
X159559061Y-75609275D01*
X158931692Y-75608727D01*
X158351868Y-75848305D01*
X157907864Y-76291535D01*
X157667275Y-76870939D01*
X157666727Y-77498308D01*
X157906305Y-78078132D01*
X158349535Y-78522136D01*
X158746573Y-78687000D01*
X157736000Y-78687000D01*
X157132508Y-78807042D01*
X156620893Y-79148893D01*
X148884893Y-86884893D01*
X148543042Y-87396508D01*
X148423001Y-88000000D01*
X146636120Y-88000000D01*
X146621856Y-87614540D01*
X146419387Y-87125736D01*
X146152532Y-87027073D01*
X145179605Y-88000000D01*
X144820395Y-88000000D01*
X143847468Y-87027073D01*
X143580613Y-87125736D01*
X143354092Y-87735461D01*
X141965676Y-87735461D01*
X141115107Y-86884893D01*
X141059097Y-86847468D01*
X144027073Y-86847468D01*
X145000000Y-87820395D01*
X145972927Y-86847468D01*
X145874264Y-86580613D01*
X145264539Y-86354092D01*
X144614540Y-86378144D01*
X144125736Y-86580613D01*
X144027073Y-86847468D01*
X141059097Y-86847468D01*
X140603492Y-86543042D01*
X140000000Y-86423001D01*
X139396508Y-86543042D01*
X138884893Y-86884893D01*
X138543042Y-87396508D01*
X138423001Y-88000000D01*
X138543042Y-88603492D01*
X138884893Y-89115107D01*
X149436893Y-99667108D01*
X149652243Y-99811000D01*
X133424126Y-99811000D01*
X134357561Y-99425313D01*
X135266123Y-98518336D01*
X135758439Y-97332706D01*
X135759559Y-96048926D01*
X135269313Y-94862439D01*
X134362336Y-93953877D01*
X133176706Y-93461561D01*
X131892926Y-93460441D01*
X130706439Y-93950687D01*
X129797877Y-94857664D01*
X129409000Y-95794185D01*
X129409000Y-88262798D01*
X133672771Y-88262798D01*
X133874369Y-88750703D01*
X134247334Y-89124319D01*
X134734885Y-89326769D01*
X135262798Y-89327229D01*
X135750703Y-89125631D01*
X136124319Y-88752666D01*
X136326769Y-88265115D01*
X136327229Y-87737202D01*
X136125631Y-87249297D01*
X135752666Y-86875681D01*
X135265115Y-86673231D01*
X134737202Y-86672771D01*
X134249297Y-86874369D01*
X133875681Y-87247334D01*
X133673231Y-87734885D01*
X133672771Y-88262798D01*
X129409000Y-88262798D01*
X129409000Y-81725131D01*
X129463246Y-81452415D01*
X129596695Y-81252695D01*
X129796415Y-81119246D01*
X130069131Y-81065000D01*
X133032000Y-81065000D01*
X133068419Y-81057756D01*
X133105549Y-81057756D01*
X133488227Y-80981637D01*
X133488232Y-80981637D01*
X133556183Y-80953490D01*
X133624133Y-80925345D01*
X133624136Y-80925342D01*
X133948557Y-80708571D01*
X134052571Y-80604557D01*
X134269342Y-80280136D01*
X134269345Y-80280133D01*
X134325636Y-80144232D01*
X134401756Y-79761549D01*
X134401756Y-79724419D01*
X134409000Y-79688000D01*
X134409000Y-70136000D01*
X136660594Y-70136000D01*
X136660594Y-72636000D01*
X136683395Y-72757179D01*
X136755012Y-72868474D01*
X136864286Y-72943138D01*
X136994000Y-72969406D01*
X137792000Y-72969406D01*
X137792000Y-75666446D01*
X137351868Y-75848305D01*
X136907864Y-76291535D01*
X136667275Y-76870939D01*
X136666727Y-77498308D01*
X136906305Y-78078132D01*
X137349535Y-78522136D01*
X137928939Y-78762725D01*
X138556308Y-78763273D01*
X139136132Y-78523695D01*
X139580136Y-78080465D01*
X139820725Y-77501061D01*
X139820727Y-77498308D01*
X140866727Y-77498308D01*
X141106305Y-78078132D01*
X141549535Y-78522136D01*
X142128939Y-78762725D01*
X142756308Y-78763273D01*
X143336132Y-78523695D01*
X143780136Y-78080465D01*
X144020725Y-77501061D01*
X144020727Y-77498308D01*
X145066727Y-77498308D01*
X145306305Y-78078132D01*
X145749535Y-78522136D01*
X146328939Y-78762725D01*
X146956308Y-78763273D01*
X147536132Y-78523695D01*
X147980136Y-78080465D01*
X148220725Y-77501061D01*
X148221273Y-76873692D01*
X147981695Y-76293868D01*
X147538465Y-75849864D01*
X146959061Y-75609275D01*
X146331692Y-75608727D01*
X145751868Y-75848305D01*
X145307864Y-76291535D01*
X145067275Y-76870939D01*
X145066727Y-77498308D01*
X144020727Y-77498308D01*
X144021273Y-76873692D01*
X143781695Y-76293868D01*
X143338465Y-75849864D01*
X142759061Y-75609275D01*
X142131692Y-75608727D01*
X141551868Y-75848305D01*
X141107864Y-76291535D01*
X140867275Y-76870939D01*
X140866727Y-77498308D01*
X139820727Y-77498308D01*
X139821273Y-76873692D01*
X139581695Y-76293868D01*
X139138465Y-75849864D01*
X138696000Y-75666137D01*
X138696000Y-72969406D01*
X139494000Y-72969406D01*
X139615179Y-72946605D01*
X139726474Y-72874988D01*
X139801138Y-72765714D01*
X139827406Y-72636000D01*
X139827406Y-71838000D01*
X140924446Y-71838000D01*
X141106305Y-72278132D01*
X141549535Y-72722136D01*
X142128939Y-72962725D01*
X142756308Y-72963273D01*
X143336132Y-72723695D01*
X143780136Y-72280465D01*
X144020725Y-71701061D01*
X144021273Y-71073692D01*
X143781695Y-70493868D01*
X143338465Y-70049864D01*
X142759061Y-69809275D01*
X142131692Y-69808727D01*
X141551868Y-70048305D01*
X141107864Y-70491535D01*
X140924137Y-70934000D01*
X139827406Y-70934000D01*
X139827406Y-70136000D01*
X139804605Y-70014821D01*
X139732988Y-69903526D01*
X139623714Y-69828862D01*
X139494000Y-69802594D01*
X138696000Y-69802594D01*
X138696000Y-64447899D01*
X140701420Y-64447899D01*
X140701420Y-65092101D01*
X140760534Y-65389285D01*
X140928875Y-65641226D01*
X141180816Y-65809567D01*
X141478000Y-65868681D01*
X141775184Y-65809567D01*
X142027125Y-65641226D01*
X142113000Y-65512705D01*
X142198875Y-65641226D01*
X142296000Y-65706123D01*
X142296000Y-67564000D01*
X142330406Y-67736973D01*
X142428388Y-67883612D01*
X144460388Y-69915612D01*
X144607027Y-70013594D01*
X144780000Y-70048000D01*
X145752606Y-70048000D01*
X145751868Y-70048305D01*
X145307864Y-70491535D01*
X145067275Y-71070939D01*
X145066727Y-71698308D01*
X145306305Y-72278132D01*
X145749535Y-72722136D01*
X146328939Y-72962725D01*
X146956308Y-72963273D01*
X147536132Y-72723695D01*
X147884000Y-72376433D01*
X147884000Y-74678000D01*
X147918406Y-74850973D01*
X148016388Y-74997612D01*
X149449901Y-76431126D01*
X149267275Y-76870939D01*
X149266727Y-77498308D01*
X149506305Y-78078132D01*
X149949535Y-78522136D01*
X150528939Y-78762725D01*
X151156308Y-78763273D01*
X151736132Y-78523695D01*
X152180136Y-78080465D01*
X152420725Y-77501061D01*
X152420727Y-77498308D01*
X153466727Y-77498308D01*
X153706305Y-78078132D01*
X154149535Y-78522136D01*
X154728939Y-78762725D01*
X155356308Y-78763273D01*
X155936132Y-78523695D01*
X156380136Y-78080465D01*
X156620725Y-77501061D01*
X156621273Y-76873692D01*
X156381695Y-76293868D01*
X155938465Y-75849864D01*
X155359061Y-75609275D01*
X154731692Y-75608727D01*
X154151868Y-75848305D01*
X153707864Y-76291535D01*
X153467275Y-76870939D01*
X153466727Y-77498308D01*
X152420727Y-77498308D01*
X152421273Y-76873692D01*
X152181695Y-76293868D01*
X151738465Y-75849864D01*
X151159061Y-75609275D01*
X150531692Y-75608727D01*
X150088907Y-75791682D01*
X148788000Y-74490776D01*
X148788000Y-71698308D01*
X149266727Y-71698308D01*
X149506305Y-72278132D01*
X149949535Y-72722136D01*
X150528939Y-72962725D01*
X151156308Y-72963273D01*
X151736132Y-72723695D01*
X152180136Y-72280465D01*
X152420725Y-71701061D01*
X152420727Y-71698308D01*
X153466727Y-71698308D01*
X153706305Y-72278132D01*
X154149535Y-72722136D01*
X154728939Y-72962725D01*
X155356308Y-72963273D01*
X155936132Y-72723695D01*
X156380136Y-72280465D01*
X156620725Y-71701061D01*
X156620727Y-71698308D01*
X157666727Y-71698308D01*
X157906305Y-72278132D01*
X158349535Y-72722136D01*
X158928939Y-72962725D01*
X159556308Y-72963273D01*
X160136132Y-72723695D01*
X160580136Y-72280465D01*
X160820725Y-71701061D01*
X160820727Y-71698308D01*
X161866727Y-71698308D01*
X162106305Y-72278132D01*
X162549535Y-72722136D01*
X163128939Y-72962725D01*
X163756308Y-72963273D01*
X164336132Y-72723695D01*
X164780136Y-72280465D01*
X165020725Y-71701061D01*
X165020727Y-71698308D01*
X166066727Y-71698308D01*
X166306305Y-72278132D01*
X166749535Y-72722136D01*
X167328939Y-72962725D01*
X167956308Y-72963273D01*
X168536132Y-72723695D01*
X168540514Y-72719320D01*
X170690285Y-72719320D01*
X170819533Y-73012123D01*
X171519806Y-73280388D01*
X172269435Y-73260250D01*
X172868467Y-73012123D01*
X172997715Y-72719320D01*
X171844000Y-71565605D01*
X170690285Y-72719320D01*
X168540514Y-72719320D01*
X168980136Y-72280465D01*
X169220725Y-71701061D01*
X169221273Y-71073692D01*
X169216362Y-71061806D01*
X169949612Y-71061806D01*
X169969750Y-71811435D01*
X170217877Y-72410467D01*
X170510680Y-72539715D01*
X171664395Y-71386000D01*
X172023605Y-71386000D01*
X173177320Y-72539715D01*
X173470123Y-72410467D01*
X173738388Y-71710194D01*
X173718250Y-70960565D01*
X173470123Y-70361533D01*
X173177320Y-70232285D01*
X172023605Y-71386000D01*
X171664395Y-71386000D01*
X170510680Y-70232285D01*
X170217877Y-70361533D01*
X169949612Y-71061806D01*
X169216362Y-71061806D01*
X168981695Y-70493868D01*
X168541277Y-70052680D01*
X170690285Y-70052680D01*
X171844000Y-71206395D01*
X172997715Y-70052680D01*
X172868467Y-69759877D01*
X172168194Y-69491612D01*
X171418565Y-69511750D01*
X170819533Y-69759877D01*
X170690285Y-70052680D01*
X168541277Y-70052680D01*
X168538465Y-70049864D01*
X167959061Y-69809275D01*
X167331692Y-69808727D01*
X166751868Y-70048305D01*
X166307864Y-70491535D01*
X166067275Y-71070939D01*
X166066727Y-71698308D01*
X165020727Y-71698308D01*
X165021273Y-71073692D01*
X164781695Y-70493868D01*
X164338465Y-70049864D01*
X163759061Y-69809275D01*
X163131692Y-69808727D01*
X162551868Y-70048305D01*
X162107864Y-70491535D01*
X161867275Y-71070939D01*
X161866727Y-71698308D01*
X160820727Y-71698308D01*
X160821273Y-71073692D01*
X160581695Y-70493868D01*
X160138465Y-70049864D01*
X159559061Y-69809275D01*
X158931692Y-69808727D01*
X158351868Y-70048305D01*
X157907864Y-70491535D01*
X157667275Y-71070939D01*
X157666727Y-71698308D01*
X156620727Y-71698308D01*
X156621273Y-71073692D01*
X156381695Y-70493868D01*
X155938465Y-70049864D01*
X155359061Y-69809275D01*
X154731692Y-69808727D01*
X154151868Y-70048305D01*
X153707864Y-70491535D01*
X153467275Y-71070939D01*
X153466727Y-71698308D01*
X152420727Y-71698308D01*
X152421273Y-71073692D01*
X152181695Y-70493868D01*
X151738465Y-70049864D01*
X151159061Y-69809275D01*
X150531692Y-69808727D01*
X149951868Y-70048305D01*
X149507864Y-70491535D01*
X149267275Y-71070939D01*
X149266727Y-71698308D01*
X148788000Y-71698308D01*
X148788000Y-70612000D01*
X148753594Y-70439027D01*
X148655612Y-70292388D01*
X147639612Y-69276388D01*
X147492973Y-69178406D01*
X147320000Y-69144000D01*
X144967224Y-69144000D01*
X143200000Y-67376776D01*
X143200000Y-65706123D01*
X143297125Y-65641226D01*
X143383000Y-65512705D01*
X143468875Y-65641226D01*
X143720816Y-65809567D01*
X144018000Y-65868681D01*
X144315184Y-65809567D01*
X144567125Y-65641226D01*
X144735466Y-65389285D01*
X144768741Y-65222000D01*
X146325499Y-65222000D01*
X146448801Y-65520414D01*
X146821623Y-65893887D01*
X147308987Y-66096259D01*
X147836697Y-66096719D01*
X148324414Y-65895199D01*
X148697887Y-65522377D01*
X148900259Y-65035013D01*
X148900719Y-64507303D01*
X148699199Y-64019586D01*
X148326377Y-63646113D01*
X147839013Y-63443741D01*
X147311303Y-63443281D01*
X146823586Y-63644801D01*
X146450113Y-64017623D01*
X146325385Y-64318000D01*
X144768741Y-64318000D01*
X144735466Y-64150715D01*
X144567125Y-63898774D01*
X144315184Y-63730433D01*
X144018000Y-63671319D01*
X143720816Y-63730433D01*
X143468875Y-63898774D01*
X143383000Y-64027295D01*
X143297125Y-63898774D01*
X143200000Y-63833877D01*
X143200000Y-63179224D01*
X143951224Y-62428000D01*
X159255056Y-62428000D01*
X159178119Y-62479408D01*
X158920029Y-62865666D01*
X158829400Y-63321289D01*
X158829400Y-63678711D01*
X158891229Y-63989547D01*
X158562776Y-64318000D01*
X156442501Y-64318000D01*
X156319199Y-64019586D01*
X155946377Y-63646113D01*
X155459013Y-63443741D01*
X154931303Y-63443281D01*
X154443586Y-63644801D01*
X154070113Y-64017623D01*
X153867741Y-64504987D01*
X153867281Y-65032697D01*
X154068801Y-65520414D01*
X154441623Y-65893887D01*
X154928987Y-66096259D01*
X155456697Y-66096719D01*
X155944414Y-65895199D01*
X156317887Y-65522377D01*
X156442615Y-65222000D01*
X158750000Y-65222000D01*
X158922973Y-65187594D01*
X159069612Y-65089612D01*
X159454176Y-64705048D01*
X159564377Y-64778682D01*
X160020000Y-64869311D01*
X160475623Y-64778682D01*
X160861881Y-64520592D01*
X161119971Y-64134334D01*
X161210600Y-63678711D01*
X161210600Y-63321289D01*
X161119971Y-62865666D01*
X160861881Y-62479408D01*
X160784944Y-62428000D01*
X161795056Y-62428000D01*
X161718119Y-62479408D01*
X161460029Y-62865666D01*
X161369400Y-63321289D01*
X161369400Y-63678711D01*
X161460029Y-64134334D01*
X161718119Y-64520592D01*
X162104377Y-64778682D01*
X162560000Y-64869311D01*
X163015623Y-64778682D01*
X163401881Y-64520592D01*
X163659971Y-64134334D01*
X163750600Y-63678711D01*
X163750600Y-63321289D01*
X163659971Y-62865666D01*
X163401881Y-62479408D01*
X163324944Y-62428000D01*
X163388776Y-62428000D01*
X163902994Y-62942218D01*
X163902994Y-64516000D01*
X163925795Y-64637179D01*
X163997412Y-64748474D01*
X164106686Y-64823138D01*
X164236400Y-64849406D01*
X164648000Y-64849406D01*
X164648000Y-65706594D01*
X164084000Y-65706594D01*
X163962821Y-65729395D01*
X163851526Y-65801012D01*
X163776862Y-65910286D01*
X163750594Y-66040000D01*
X163750594Y-66440651D01*
X163509644Y-66080045D01*
X163073944Y-65788919D01*
X162560000Y-65686689D01*
X162046056Y-65788919D01*
X161610356Y-66080045D01*
X161319230Y-66515745D01*
X161217000Y-67029689D01*
X161217000Y-67082311D01*
X161319230Y-67596255D01*
X161610356Y-68031955D01*
X162046056Y-68323081D01*
X162560000Y-68425311D01*
X163073944Y-68323081D01*
X163509644Y-68031955D01*
X163750594Y-67671349D01*
X163750594Y-68072000D01*
X163773395Y-68193179D01*
X163845012Y-68304474D01*
X163954286Y-68379138D01*
X164084000Y-68405406D01*
X166116000Y-68405406D01*
X166237179Y-68382605D01*
X166348474Y-68310988D01*
X166423138Y-68201714D01*
X166449406Y-68072000D01*
X166449406Y-66040000D01*
X166426605Y-65918821D01*
X166354988Y-65807526D01*
X166245714Y-65732862D01*
X166116000Y-65706594D01*
X165552000Y-65706594D01*
X165552000Y-64924765D01*
X188669047Y-64924765D01*
X188908576Y-65504471D01*
X189351716Y-65948385D01*
X189931003Y-66188926D01*
X190558245Y-66189473D01*
X191137951Y-65949944D01*
X191581865Y-65506804D01*
X191822406Y-64927517D01*
X191822953Y-64300275D01*
X191583424Y-63720569D01*
X191140284Y-63276655D01*
X190560997Y-63036114D01*
X189933755Y-63035567D01*
X189354049Y-63275096D01*
X188910135Y-63718236D01*
X188669594Y-64297523D01*
X188669047Y-64924765D01*
X165552000Y-64924765D01*
X165552000Y-64849406D01*
X165963600Y-64849406D01*
X166084779Y-64826605D01*
X166196074Y-64754988D01*
X166270738Y-64645714D01*
X166297006Y-64516000D01*
X166297006Y-63382163D01*
X168445443Y-63382163D01*
X168544042Y-63648965D01*
X169153582Y-63875401D01*
X169803377Y-63851341D01*
X170291958Y-63648965D01*
X170390557Y-63382163D01*
X171747443Y-63382163D01*
X171846042Y-63648965D01*
X172455582Y-63875401D01*
X173105377Y-63851341D01*
X173593958Y-63648965D01*
X173692557Y-63382163D01*
X172720000Y-62409605D01*
X171747443Y-63382163D01*
X170390557Y-63382163D01*
X169418000Y-62409605D01*
X168445443Y-63382163D01*
X166297006Y-63382163D01*
X166297006Y-62484000D01*
X166274205Y-62362821D01*
X166202588Y-62251526D01*
X166093314Y-62176862D01*
X165963600Y-62150594D01*
X164389818Y-62150594D01*
X164204806Y-61965582D01*
X167772599Y-61965582D01*
X167796659Y-62615377D01*
X167999035Y-63103958D01*
X168265837Y-63202557D01*
X169238395Y-62230000D01*
X169597605Y-62230000D01*
X170570163Y-63202557D01*
X170836965Y-63103958D01*
X171063401Y-62494418D01*
X171043820Y-61965582D01*
X171074599Y-61965582D01*
X171098659Y-62615377D01*
X171301035Y-63103958D01*
X171567837Y-63202557D01*
X172540395Y-62230000D01*
X172899605Y-62230000D01*
X173872163Y-63202557D01*
X174138965Y-63103958D01*
X174365401Y-62494418D01*
X174341341Y-61844623D01*
X174138965Y-61356042D01*
X173872163Y-61257443D01*
X172899605Y-62230000D01*
X172540395Y-62230000D01*
X171567837Y-61257443D01*
X171301035Y-61356042D01*
X171074599Y-61965582D01*
X171043820Y-61965582D01*
X171039341Y-61844623D01*
X170836965Y-61356042D01*
X170570163Y-61257443D01*
X169597605Y-62230000D01*
X169238395Y-62230000D01*
X168265837Y-61257443D01*
X167999035Y-61356042D01*
X167772599Y-61965582D01*
X164204806Y-61965582D01*
X163895612Y-61656388D01*
X163748973Y-61558406D01*
X163576000Y-61524000D01*
X143764000Y-61524000D01*
X143591027Y-61558406D01*
X143444388Y-61656388D01*
X142428388Y-62672388D01*
X142330406Y-62819027D01*
X142296000Y-62992000D01*
X142296000Y-63833877D01*
X142198875Y-63898774D01*
X142113000Y-64027295D01*
X142027125Y-63898774D01*
X141775184Y-63730433D01*
X141478000Y-63671319D01*
X141180816Y-63730433D01*
X140928875Y-63898774D01*
X140760534Y-64150715D01*
X140701420Y-64447899D01*
X138696000Y-64447899D01*
X138696000Y-61077837D01*
X168445443Y-61077837D01*
X169418000Y-62050395D01*
X170390557Y-61077837D01*
X171747443Y-61077837D01*
X172720000Y-62050395D01*
X173692557Y-61077837D01*
X173593958Y-60811035D01*
X172984418Y-60584599D01*
X172334623Y-60608659D01*
X171846042Y-60811035D01*
X171747443Y-61077837D01*
X170390557Y-61077837D01*
X170291958Y-60811035D01*
X169682418Y-60584599D01*
X169032623Y-60608659D01*
X168544042Y-60811035D01*
X168445443Y-61077837D01*
X138696000Y-61077837D01*
X138696000Y-55223026D01*
X142309042Y-55223026D01*
X142481312Y-55638947D01*
X142875510Y-56070821D01*
X143166058Y-56206994D01*
X142900400Y-56206994D01*
X142779221Y-56229795D01*
X142667926Y-56301412D01*
X142593262Y-56410686D01*
X142566994Y-56540400D01*
X142566994Y-58267600D01*
X142589795Y-58388779D01*
X142661412Y-58500074D01*
X142770686Y-58574738D01*
X142900400Y-58601006D01*
X144627600Y-58601006D01*
X144748779Y-58578205D01*
X144860074Y-58506588D01*
X144934738Y-58397314D01*
X144961006Y-58267600D01*
X144961006Y-57404000D01*
X145090075Y-57404000D01*
X145180704Y-57859623D01*
X145438794Y-58245881D01*
X145825052Y-58503971D01*
X146280675Y-58594600D01*
X146327325Y-58594600D01*
X146767767Y-58506991D01*
X148191648Y-59930872D01*
X148338287Y-60028854D01*
X148511260Y-60063260D01*
X176224912Y-60063260D01*
X176406696Y-60503211D01*
X176849836Y-60947125D01*
X177429123Y-61187666D01*
X178056365Y-61188213D01*
X178636071Y-60948684D01*
X179004908Y-60580490D01*
X179499013Y-61776317D01*
X180574660Y-62853843D01*
X181980779Y-63437714D01*
X183503301Y-63439043D01*
X184910437Y-62857627D01*
X185987963Y-61781980D01*
X186571834Y-60375861D01*
X186573163Y-58853339D01*
X185991747Y-57446203D01*
X184916100Y-56368677D01*
X183509981Y-55784806D01*
X181987459Y-55783477D01*
X180580323Y-56364893D01*
X179502797Y-57440540D01*
X179004043Y-58641673D01*
X178638404Y-58275395D01*
X178059117Y-58034854D01*
X177431875Y-58034307D01*
X176852169Y-58273836D01*
X176408255Y-58716976D01*
X176224603Y-59159260D01*
X148698484Y-59159260D01*
X147415901Y-57876677D01*
X147427296Y-57859623D01*
X147517925Y-57404000D01*
X147630075Y-57404000D01*
X147720704Y-57859623D01*
X147978794Y-58245881D01*
X148365052Y-58503971D01*
X148820675Y-58594600D01*
X148867325Y-58594600D01*
X149322948Y-58503971D01*
X149709206Y-58245881D01*
X149967296Y-57859623D01*
X150057925Y-57404000D01*
X150170075Y-57404000D01*
X150260704Y-57859623D01*
X150518794Y-58245881D01*
X150905052Y-58503971D01*
X151360675Y-58594600D01*
X151407325Y-58594600D01*
X151862948Y-58503971D01*
X152249206Y-58245881D01*
X152507296Y-57859623D01*
X152597925Y-57404000D01*
X152710075Y-57404000D01*
X152800704Y-57859623D01*
X153058794Y-58245881D01*
X153445052Y-58503971D01*
X153900675Y-58594600D01*
X153947325Y-58594600D01*
X154402948Y-58503971D01*
X154789206Y-58245881D01*
X155047296Y-57859623D01*
X155137925Y-57404000D01*
X155047296Y-56948377D01*
X154789206Y-56562119D01*
X154402948Y-56304029D01*
X153947325Y-56213400D01*
X153900675Y-56213400D01*
X153445052Y-56304029D01*
X153058794Y-56562119D01*
X152800704Y-56948377D01*
X152710075Y-57404000D01*
X152597925Y-57404000D01*
X152507296Y-56948377D01*
X152249206Y-56562119D01*
X151862948Y-56304029D01*
X151407325Y-56213400D01*
X151360675Y-56213400D01*
X150905052Y-56304029D01*
X150518794Y-56562119D01*
X150260704Y-56948377D01*
X150170075Y-57404000D01*
X150057925Y-57404000D01*
X149967296Y-56948377D01*
X149709206Y-56562119D01*
X149322948Y-56304029D01*
X148867325Y-56213400D01*
X148820675Y-56213400D01*
X148365052Y-56304029D01*
X147978794Y-56562119D01*
X147720704Y-56948377D01*
X147630075Y-57404000D01*
X147517925Y-57404000D01*
X147427296Y-56948377D01*
X147169206Y-56562119D01*
X146782948Y-56304029D01*
X146327325Y-56213400D01*
X146280675Y-56213400D01*
X145825052Y-56304029D01*
X145438794Y-56562119D01*
X145180704Y-56948377D01*
X145090075Y-57404000D01*
X144961006Y-57404000D01*
X144961006Y-56540400D01*
X144938205Y-56419221D01*
X144866588Y-56307926D01*
X144757314Y-56233262D01*
X144627600Y-56206994D01*
X144361942Y-56206994D01*
X144652490Y-56070821D01*
X145046688Y-55638947D01*
X145180134Y-55316760D01*
X145180704Y-55319623D01*
X145438794Y-55705881D01*
X145825052Y-55963971D01*
X146280675Y-56054600D01*
X146327325Y-56054600D01*
X146782948Y-55963971D01*
X147169206Y-55705881D01*
X147427296Y-55319623D01*
X147517925Y-54864000D01*
X147427296Y-54408377D01*
X147415901Y-54391323D01*
X148269224Y-53538000D01*
X149530776Y-53538000D01*
X149307767Y-53761009D01*
X148867325Y-53673400D01*
X148820675Y-53673400D01*
X148365052Y-53764029D01*
X147978794Y-54022119D01*
X147720704Y-54408377D01*
X147630075Y-54864000D01*
X147720704Y-55319623D01*
X147978794Y-55705881D01*
X148365052Y-55963971D01*
X148820675Y-56054600D01*
X148867325Y-56054600D01*
X149322948Y-55963971D01*
X149709206Y-55705881D01*
X149967296Y-55319623D01*
X150057925Y-54864000D01*
X149967296Y-54408377D01*
X149955901Y-54391323D01*
X150301224Y-54046000D01*
X150502837Y-54046000D01*
X150260704Y-54408377D01*
X150170075Y-54864000D01*
X150260704Y-55319623D01*
X150518794Y-55705881D01*
X150905052Y-55963971D01*
X151360675Y-56054600D01*
X151407325Y-56054600D01*
X151862948Y-55963971D01*
X152249206Y-55705881D01*
X152507296Y-55319623D01*
X152597925Y-54864000D01*
X152507296Y-54408377D01*
X152265163Y-54046000D01*
X153042837Y-54046000D01*
X152800704Y-54408377D01*
X152710075Y-54864000D01*
X152800704Y-55319623D01*
X153058794Y-55705881D01*
X153445052Y-55963971D01*
X153900675Y-56054600D01*
X153947325Y-56054600D01*
X154402948Y-55963971D01*
X154789206Y-55705881D01*
X155047296Y-55319623D01*
X155137925Y-54864000D01*
X155250075Y-54864000D01*
X155340704Y-55319623D01*
X155598794Y-55705881D01*
X155985052Y-55963971D01*
X156440675Y-56054600D01*
X156487325Y-56054600D01*
X156942948Y-55963971D01*
X157282000Y-55737423D01*
X157282000Y-55946776D01*
X156927767Y-56301009D01*
X156487325Y-56213400D01*
X156440675Y-56213400D01*
X155985052Y-56304029D01*
X155598794Y-56562119D01*
X155340704Y-56948377D01*
X155250075Y-57404000D01*
X155340704Y-57859623D01*
X155598794Y-58245881D01*
X155985052Y-58503971D01*
X156440675Y-58594600D01*
X156487325Y-58594600D01*
X156942948Y-58503971D01*
X157329206Y-58245881D01*
X157587296Y-57859623D01*
X157677925Y-57404000D01*
X157587296Y-56948377D01*
X157575901Y-56931323D01*
X158053612Y-56453612D01*
X158151594Y-56306973D01*
X158152700Y-56301412D01*
X158186000Y-56134000D01*
X158186000Y-55737423D01*
X158525052Y-55963971D01*
X158980675Y-56054600D01*
X159027325Y-56054600D01*
X159482948Y-55963971D01*
X159822000Y-55737423D01*
X159822000Y-55946776D01*
X159467767Y-56301009D01*
X159027325Y-56213400D01*
X158980675Y-56213400D01*
X158525052Y-56304029D01*
X158138794Y-56562119D01*
X157880704Y-56948377D01*
X157790075Y-57404000D01*
X157880704Y-57859623D01*
X158138794Y-58245881D01*
X158525052Y-58503971D01*
X158980675Y-58594600D01*
X159027325Y-58594600D01*
X159482948Y-58503971D01*
X159869206Y-58245881D01*
X160127296Y-57859623D01*
X160217925Y-57404000D01*
X160330075Y-57404000D01*
X160420704Y-57859623D01*
X160678794Y-58245881D01*
X161065052Y-58503971D01*
X161520675Y-58594600D01*
X161567325Y-58594600D01*
X162022948Y-58503971D01*
X162244402Y-58356000D01*
X166624000Y-58356000D01*
X166988315Y-58283533D01*
X167297166Y-58077166D01*
X169437824Y-55936507D01*
X169680697Y-55936719D01*
X170168414Y-55735199D01*
X170541887Y-55362377D01*
X170744259Y-54875013D01*
X170744261Y-54872697D01*
X171393281Y-54872697D01*
X171594801Y-55360414D01*
X171967623Y-55733887D01*
X172454987Y-55936259D01*
X172982697Y-55936719D01*
X173470414Y-55735199D01*
X173843887Y-55362377D01*
X173968615Y-55062000D01*
X188726792Y-55062000D01*
X188908576Y-55501951D01*
X189351716Y-55945865D01*
X189931003Y-56186406D01*
X190558245Y-56186953D01*
X191137951Y-55947424D01*
X191581865Y-55504284D01*
X191822406Y-54924997D01*
X191822953Y-54297755D01*
X191583424Y-53718049D01*
X191140284Y-53274135D01*
X190560997Y-53033594D01*
X189933755Y-53033047D01*
X189354049Y-53272576D01*
X188910135Y-53715716D01*
X188726483Y-54158000D01*
X173968501Y-54158000D01*
X173845199Y-53859586D01*
X173472377Y-53486113D01*
X172985013Y-53283741D01*
X172457303Y-53283281D01*
X171969586Y-53484801D01*
X171596113Y-53857623D01*
X171393741Y-54344987D01*
X171393281Y-54872697D01*
X170744261Y-54872697D01*
X170744719Y-54347303D01*
X170543199Y-53859586D01*
X170170377Y-53486113D01*
X169683013Y-53283741D01*
X169155303Y-53283281D01*
X168667586Y-53484801D01*
X168294113Y-53857623D01*
X168091741Y-54344987D01*
X168091527Y-54590141D01*
X166229668Y-56452000D01*
X162244402Y-56452000D01*
X162022948Y-56304029D01*
X161567325Y-56213400D01*
X161520675Y-56213400D01*
X161065052Y-56304029D01*
X160678794Y-56562119D01*
X160420704Y-56948377D01*
X160330075Y-57404000D01*
X160217925Y-57404000D01*
X160127296Y-56948377D01*
X160115901Y-56931323D01*
X160593612Y-56453612D01*
X160691594Y-56306973D01*
X160692700Y-56301412D01*
X160726000Y-56134000D01*
X160726000Y-55737423D01*
X161065052Y-55963971D01*
X161520675Y-56054600D01*
X161567325Y-56054600D01*
X162022948Y-55963971D01*
X162409206Y-55705881D01*
X162667296Y-55319623D01*
X162757925Y-54864000D01*
X162667296Y-54408377D01*
X162425163Y-54046000D01*
X164084000Y-54046000D01*
X164256973Y-54011594D01*
X164403612Y-53913612D01*
X165673612Y-52643612D01*
X165771594Y-52496973D01*
X165773460Y-52487594D01*
X165806000Y-52324000D01*
X165806000Y-50127331D01*
X165832948Y-50121971D01*
X166219206Y-49863881D01*
X166477296Y-49477623D01*
X166567925Y-49022000D01*
X166680075Y-49022000D01*
X166770704Y-49477623D01*
X167028794Y-49863881D01*
X167415052Y-50121971D01*
X167870675Y-50212600D01*
X167917325Y-50212600D01*
X168372948Y-50121971D01*
X168759206Y-49863881D01*
X169017296Y-49477623D01*
X169107925Y-49022000D01*
X169220075Y-49022000D01*
X169310704Y-49477623D01*
X169568794Y-49863881D01*
X169955052Y-50121971D01*
X170410675Y-50212600D01*
X170457325Y-50212600D01*
X170912948Y-50121971D01*
X171299206Y-49863881D01*
X171557296Y-49477623D01*
X171647925Y-49022000D01*
X171760075Y-49022000D01*
X171850704Y-49477623D01*
X172108794Y-49863881D01*
X172495052Y-50121971D01*
X172950675Y-50212600D01*
X172997325Y-50212600D01*
X173452948Y-50121971D01*
X173839206Y-49863881D01*
X174097296Y-49477623D01*
X174187925Y-49022000D01*
X174300075Y-49022000D01*
X174390704Y-49477623D01*
X174648794Y-49863881D01*
X175035052Y-50121971D01*
X175490675Y-50212600D01*
X175537325Y-50212600D01*
X175992948Y-50121971D01*
X176379206Y-49863881D01*
X176637296Y-49477623D01*
X176727925Y-49022000D01*
X176840075Y-49022000D01*
X176930704Y-49477623D01*
X177188794Y-49863881D01*
X177575052Y-50121971D01*
X178030675Y-50212600D01*
X178077325Y-50212600D01*
X178532948Y-50121971D01*
X178919206Y-49863881D01*
X179177296Y-49477623D01*
X179267925Y-49022000D01*
X179380075Y-49022000D01*
X179470704Y-49477623D01*
X179728794Y-49863881D01*
X180115052Y-50121971D01*
X180570675Y-50212600D01*
X180617325Y-50212600D01*
X181072948Y-50121971D01*
X181459206Y-49863881D01*
X181717296Y-49477623D01*
X181807925Y-49022000D01*
X181920075Y-49022000D01*
X182010704Y-49477623D01*
X182268794Y-49863881D01*
X182655052Y-50121971D01*
X183110675Y-50212600D01*
X183157325Y-50212600D01*
X183612948Y-50121971D01*
X183999206Y-49863881D01*
X184257296Y-49477623D01*
X184347925Y-49022000D01*
X184460075Y-49022000D01*
X184550704Y-49477623D01*
X184808794Y-49863881D01*
X185195052Y-50121971D01*
X185650675Y-50212600D01*
X185697325Y-50212600D01*
X186152948Y-50121971D01*
X186539206Y-49863881D01*
X186797296Y-49477623D01*
X186887925Y-49022000D01*
X186797296Y-48566377D01*
X186539206Y-48180119D01*
X186152948Y-47922029D01*
X185697325Y-47831400D01*
X185650675Y-47831400D01*
X185195052Y-47922029D01*
X184808794Y-48180119D01*
X184550704Y-48566377D01*
X184460075Y-49022000D01*
X184347925Y-49022000D01*
X184257296Y-48566377D01*
X183999206Y-48180119D01*
X183612948Y-47922029D01*
X183157325Y-47831400D01*
X183110675Y-47831400D01*
X182655052Y-47922029D01*
X182268794Y-48180119D01*
X182010704Y-48566377D01*
X181920075Y-49022000D01*
X181807925Y-49022000D01*
X181717296Y-48566377D01*
X181459206Y-48180119D01*
X181072948Y-47922029D01*
X180617325Y-47831400D01*
X180570675Y-47831400D01*
X180115052Y-47922029D01*
X179728794Y-48180119D01*
X179470704Y-48566377D01*
X179380075Y-49022000D01*
X179267925Y-49022000D01*
X179177296Y-48566377D01*
X178919206Y-48180119D01*
X178532948Y-47922029D01*
X178077325Y-47831400D01*
X178030675Y-47831400D01*
X177575052Y-47922029D01*
X177188794Y-48180119D01*
X176930704Y-48566377D01*
X176840075Y-49022000D01*
X176727925Y-49022000D01*
X176637296Y-48566377D01*
X176379206Y-48180119D01*
X175992948Y-47922029D01*
X175537325Y-47831400D01*
X175490675Y-47831400D01*
X175035052Y-47922029D01*
X174648794Y-48180119D01*
X174390704Y-48566377D01*
X174300075Y-49022000D01*
X174187925Y-49022000D01*
X174097296Y-48566377D01*
X173839206Y-48180119D01*
X173452948Y-47922029D01*
X172997325Y-47831400D01*
X172950675Y-47831400D01*
X172495052Y-47922029D01*
X172108794Y-48180119D01*
X171850704Y-48566377D01*
X171760075Y-49022000D01*
X171647925Y-49022000D01*
X171557296Y-48566377D01*
X171299206Y-48180119D01*
X170912948Y-47922029D01*
X170457325Y-47831400D01*
X170410675Y-47831400D01*
X169955052Y-47922029D01*
X169568794Y-48180119D01*
X169310704Y-48566377D01*
X169220075Y-49022000D01*
X169107925Y-49022000D01*
X169017296Y-48566377D01*
X168759206Y-48180119D01*
X168372948Y-47922029D01*
X167917325Y-47831400D01*
X167870675Y-47831400D01*
X167415052Y-47922029D01*
X167028794Y-48180119D01*
X166770704Y-48566377D01*
X166680075Y-49022000D01*
X166567925Y-49022000D01*
X166477296Y-48566377D01*
X166219206Y-48180119D01*
X165832948Y-47922029D01*
X165377325Y-47831400D01*
X165330675Y-47831400D01*
X164875052Y-47922029D01*
X164536000Y-48148577D01*
X164536000Y-47939224D01*
X164890233Y-47584991D01*
X165330675Y-47672600D01*
X165377325Y-47672600D01*
X165832948Y-47581971D01*
X166219206Y-47323881D01*
X166477296Y-46937623D01*
X166567925Y-46482000D01*
X166680075Y-46482000D01*
X166770704Y-46937623D01*
X167028794Y-47323881D01*
X167415052Y-47581971D01*
X167870675Y-47672600D01*
X167917325Y-47672600D01*
X168372948Y-47581971D01*
X168759206Y-47323881D01*
X169017296Y-46937623D01*
X169107925Y-46482000D01*
X169220075Y-46482000D01*
X169310704Y-46937623D01*
X169568794Y-47323881D01*
X169955052Y-47581971D01*
X170410675Y-47672600D01*
X170457325Y-47672600D01*
X170912948Y-47581971D01*
X171299206Y-47323881D01*
X171557296Y-46937623D01*
X171647925Y-46482000D01*
X171760075Y-46482000D01*
X171850704Y-46937623D01*
X172108794Y-47323881D01*
X172495052Y-47581971D01*
X172950675Y-47672600D01*
X172997325Y-47672600D01*
X173452948Y-47581971D01*
X173839206Y-47323881D01*
X174097296Y-46937623D01*
X174187925Y-46482000D01*
X174300075Y-46482000D01*
X174390704Y-46937623D01*
X174648794Y-47323881D01*
X175035052Y-47581971D01*
X175490675Y-47672600D01*
X175537325Y-47672600D01*
X175992948Y-47581971D01*
X176379206Y-47323881D01*
X176637296Y-46937623D01*
X176727925Y-46482000D01*
X176840075Y-46482000D01*
X176930704Y-46937623D01*
X177188794Y-47323881D01*
X177575052Y-47581971D01*
X178030675Y-47672600D01*
X178077325Y-47672600D01*
X178532948Y-47581971D01*
X178919206Y-47323881D01*
X179177296Y-46937623D01*
X179267925Y-46482000D01*
X179380075Y-46482000D01*
X179470704Y-46937623D01*
X179728794Y-47323881D01*
X180115052Y-47581971D01*
X180570675Y-47672600D01*
X180617325Y-47672600D01*
X181072948Y-47581971D01*
X181459206Y-47323881D01*
X181717296Y-46937623D01*
X181807925Y-46482000D01*
X181920075Y-46482000D01*
X182010704Y-46937623D01*
X182268794Y-47323881D01*
X182655052Y-47581971D01*
X183110675Y-47672600D01*
X183157325Y-47672600D01*
X183612948Y-47581971D01*
X183999206Y-47323881D01*
X184257296Y-46937623D01*
X184347925Y-46482000D01*
X184460075Y-46482000D01*
X184550704Y-46937623D01*
X184808794Y-47323881D01*
X185195052Y-47581971D01*
X185650675Y-47672600D01*
X185697325Y-47672600D01*
X186152948Y-47581971D01*
X186539206Y-47323881D01*
X186797296Y-46937623D01*
X186887925Y-46482000D01*
X186797296Y-46026377D01*
X186539206Y-45640119D01*
X186152948Y-45382029D01*
X185697325Y-45291400D01*
X185650675Y-45291400D01*
X185195052Y-45382029D01*
X184808794Y-45640119D01*
X184550704Y-46026377D01*
X184460075Y-46482000D01*
X184347925Y-46482000D01*
X184257296Y-46026377D01*
X183999206Y-45640119D01*
X183612948Y-45382029D01*
X183157325Y-45291400D01*
X183110675Y-45291400D01*
X182655052Y-45382029D01*
X182268794Y-45640119D01*
X182010704Y-46026377D01*
X181920075Y-46482000D01*
X181807925Y-46482000D01*
X181717296Y-46026377D01*
X181459206Y-45640119D01*
X181072948Y-45382029D01*
X180617325Y-45291400D01*
X180570675Y-45291400D01*
X180115052Y-45382029D01*
X179728794Y-45640119D01*
X179470704Y-46026377D01*
X179380075Y-46482000D01*
X179267925Y-46482000D01*
X179177296Y-46026377D01*
X178919206Y-45640119D01*
X178532948Y-45382029D01*
X178077325Y-45291400D01*
X178030675Y-45291400D01*
X177575052Y-45382029D01*
X177188794Y-45640119D01*
X176930704Y-46026377D01*
X176840075Y-46482000D01*
X176727925Y-46482000D01*
X176637296Y-46026377D01*
X176379206Y-45640119D01*
X175992948Y-45382029D01*
X175537325Y-45291400D01*
X175490675Y-45291400D01*
X175035052Y-45382029D01*
X174648794Y-45640119D01*
X174390704Y-46026377D01*
X174300075Y-46482000D01*
X174187925Y-46482000D01*
X174097296Y-46026377D01*
X173839206Y-45640119D01*
X173452948Y-45382029D01*
X172997325Y-45291400D01*
X172950675Y-45291400D01*
X172495052Y-45382029D01*
X172108794Y-45640119D01*
X171850704Y-46026377D01*
X171760075Y-46482000D01*
X171647925Y-46482000D01*
X171557296Y-46026377D01*
X171299206Y-45640119D01*
X170912948Y-45382029D01*
X170457325Y-45291400D01*
X170410675Y-45291400D01*
X169955052Y-45382029D01*
X169568794Y-45640119D01*
X169310704Y-46026377D01*
X169220075Y-46482000D01*
X169107925Y-46482000D01*
X169017296Y-46026377D01*
X168759206Y-45640119D01*
X168372948Y-45382029D01*
X167917325Y-45291400D01*
X167870675Y-45291400D01*
X167415052Y-45382029D01*
X167028794Y-45640119D01*
X166770704Y-46026377D01*
X166680075Y-46482000D01*
X166567925Y-46482000D01*
X166477296Y-46026377D01*
X166219206Y-45640119D01*
X165832948Y-45382029D01*
X165377325Y-45291400D01*
X165330675Y-45291400D01*
X164875052Y-45382029D01*
X164488794Y-45640119D01*
X164230704Y-46026377D01*
X164140075Y-46482000D01*
X164230704Y-46937623D01*
X164242099Y-46954677D01*
X163764388Y-47432388D01*
X163666406Y-47579027D01*
X163632000Y-47752000D01*
X163632000Y-48148577D01*
X163292948Y-47922029D01*
X162837325Y-47831400D01*
X162790675Y-47831400D01*
X162335052Y-47922029D01*
X161996000Y-48148577D01*
X161996000Y-47939224D01*
X162350233Y-47584991D01*
X162790675Y-47672600D01*
X162837325Y-47672600D01*
X163292948Y-47581971D01*
X163679206Y-47323881D01*
X163937296Y-46937623D01*
X164027925Y-46482000D01*
X163937296Y-46026377D01*
X163679206Y-45640119D01*
X163292948Y-45382029D01*
X162837325Y-45291400D01*
X162790675Y-45291400D01*
X162335052Y-45382029D01*
X161948794Y-45640119D01*
X161690704Y-46026377D01*
X161600075Y-46482000D01*
X161690704Y-46937623D01*
X161702099Y-46954677D01*
X161224388Y-47432388D01*
X161126406Y-47579027D01*
X161092000Y-47752000D01*
X161092000Y-48148577D01*
X160752948Y-47922029D01*
X160297325Y-47831400D01*
X160250675Y-47831400D01*
X159795052Y-47922029D01*
X159408794Y-48180119D01*
X159150704Y-48566377D01*
X159060075Y-49022000D01*
X159150704Y-49477623D01*
X159408794Y-49863881D01*
X159795052Y-50121971D01*
X160250675Y-50212600D01*
X160297325Y-50212600D01*
X160752948Y-50121971D01*
X161092000Y-49895423D01*
X161092000Y-50612776D01*
X160086776Y-51618000D01*
X159258000Y-51618000D01*
X159085027Y-51652406D01*
X158938388Y-51750388D01*
X156927767Y-53761009D01*
X156487325Y-53673400D01*
X156440675Y-53673400D01*
X155985052Y-53764029D01*
X155598794Y-54022119D01*
X155340704Y-54408377D01*
X155250075Y-54864000D01*
X155137925Y-54864000D01*
X155047296Y-54408377D01*
X154805163Y-54046000D01*
X155194000Y-54046000D01*
X155366973Y-54011594D01*
X155513612Y-53913612D01*
X156783612Y-52643612D01*
X156881594Y-52496973D01*
X156883460Y-52487594D01*
X156916000Y-52324000D01*
X156916000Y-49895423D01*
X157255052Y-50121971D01*
X157710675Y-50212600D01*
X157757325Y-50212600D01*
X158212948Y-50121971D01*
X158599206Y-49863881D01*
X158857296Y-49477623D01*
X158947925Y-49022000D01*
X158857296Y-48566377D01*
X158599206Y-48180119D01*
X158212948Y-47922029D01*
X157757325Y-47831400D01*
X157710675Y-47831400D01*
X157255052Y-47922029D01*
X156916000Y-48148577D01*
X156916000Y-47752000D01*
X156881594Y-47579027D01*
X156783612Y-47432388D01*
X156305901Y-46954677D01*
X156317296Y-46937623D01*
X156407925Y-46482000D01*
X156520075Y-46482000D01*
X156610704Y-46937623D01*
X156868794Y-47323881D01*
X157255052Y-47581971D01*
X157710675Y-47672600D01*
X157757325Y-47672600D01*
X158212948Y-47581971D01*
X158599206Y-47323881D01*
X158857296Y-46937623D01*
X158947925Y-46482000D01*
X159060075Y-46482000D01*
X159150704Y-46937623D01*
X159408794Y-47323881D01*
X159795052Y-47581971D01*
X160250675Y-47672600D01*
X160297325Y-47672600D01*
X160752948Y-47581971D01*
X161139206Y-47323881D01*
X161397296Y-46937623D01*
X161487925Y-46482000D01*
X161397296Y-46026377D01*
X161139206Y-45640119D01*
X160752948Y-45382029D01*
X160297325Y-45291400D01*
X160250675Y-45291400D01*
X159795052Y-45382029D01*
X159408794Y-45640119D01*
X159150704Y-46026377D01*
X159060075Y-46482000D01*
X158947925Y-46482000D01*
X158857296Y-46026377D01*
X158599206Y-45640119D01*
X158212948Y-45382029D01*
X157757325Y-45291400D01*
X157710675Y-45291400D01*
X157255052Y-45382029D01*
X156868794Y-45640119D01*
X156610704Y-46026377D01*
X156520075Y-46482000D01*
X156407925Y-46482000D01*
X156317296Y-46026377D01*
X156059206Y-45640119D01*
X155672948Y-45382029D01*
X155217325Y-45291400D01*
X155170675Y-45291400D01*
X154715052Y-45382029D01*
X154328794Y-45640119D01*
X154070704Y-46026377D01*
X153980075Y-46482000D01*
X154070704Y-46937623D01*
X154328794Y-47323881D01*
X154715052Y-47581971D01*
X155170675Y-47672600D01*
X155217325Y-47672600D01*
X155657767Y-47584991D01*
X156012000Y-47939224D01*
X156012000Y-48148577D01*
X155672948Y-47922029D01*
X155217325Y-47831400D01*
X155170675Y-47831400D01*
X154715052Y-47922029D01*
X154328794Y-48180119D01*
X154070704Y-48566377D01*
X153980075Y-49022000D01*
X154070704Y-49477623D01*
X154328794Y-49863881D01*
X154715052Y-50121971D01*
X154742000Y-50127331D01*
X154742000Y-51628776D01*
X153736776Y-52634000D01*
X148082000Y-52634000D01*
X147909027Y-52668406D01*
X147762388Y-52766388D01*
X146767767Y-53761009D01*
X146327325Y-53673400D01*
X146280675Y-53673400D01*
X145825052Y-53764029D01*
X145438794Y-54022119D01*
X145180704Y-54408377D01*
X145180134Y-54411240D01*
X145046688Y-54089053D01*
X144652490Y-53657179D01*
X144123027Y-53409032D01*
X143891000Y-53529531D01*
X143891000Y-54737000D01*
X143911000Y-54737000D01*
X143911000Y-54991000D01*
X143891000Y-54991000D01*
X143891000Y-55011000D01*
X143637000Y-55011000D01*
X143637000Y-54991000D01*
X142430183Y-54991000D01*
X142309042Y-55223026D01*
X138696000Y-55223026D01*
X138696000Y-54504974D01*
X142309042Y-54504974D01*
X142430183Y-54737000D01*
X143637000Y-54737000D01*
X143637000Y-53529531D01*
X143404973Y-53409032D01*
X142875510Y-53657179D01*
X142481312Y-54089053D01*
X142309042Y-54504974D01*
X138696000Y-54504974D01*
X138696000Y-51681224D01*
X138871224Y-51506000D01*
X148082000Y-51506000D01*
X148254973Y-51471594D01*
X148401612Y-51373612D01*
X149650233Y-50124991D01*
X150090675Y-50212600D01*
X150137325Y-50212600D01*
X150592948Y-50121971D01*
X150979206Y-49863881D01*
X151237296Y-49477623D01*
X151327925Y-49022000D01*
X151440075Y-49022000D01*
X151530704Y-49477623D01*
X151788794Y-49863881D01*
X152175052Y-50121971D01*
X152630675Y-50212600D01*
X152677325Y-50212600D01*
X153132948Y-50121971D01*
X153519206Y-49863881D01*
X153777296Y-49477623D01*
X153867925Y-49022000D01*
X153777296Y-48566377D01*
X153519206Y-48180119D01*
X153132948Y-47922029D01*
X152677325Y-47831400D01*
X152630675Y-47831400D01*
X152175052Y-47922029D01*
X151788794Y-48180119D01*
X151530704Y-48566377D01*
X151440075Y-49022000D01*
X151327925Y-49022000D01*
X151237296Y-48566377D01*
X150979206Y-48180119D01*
X150592948Y-47922029D01*
X150137325Y-47831400D01*
X150090675Y-47831400D01*
X149635052Y-47922029D01*
X149248794Y-48180119D01*
X148990704Y-48566377D01*
X148900075Y-49022000D01*
X148990704Y-49477623D01*
X149002099Y-49494677D01*
X147894776Y-50602000D01*
X138684000Y-50602000D01*
X138511027Y-50636406D01*
X138364388Y-50734388D01*
X137924388Y-51174388D01*
X137826406Y-51321027D01*
X137792000Y-51494000D01*
X137792000Y-69802594D01*
X136994000Y-69802594D01*
X136872821Y-69825395D01*
X136761526Y-69897012D01*
X136686862Y-70006286D01*
X136660594Y-70136000D01*
X134409000Y-70136000D01*
X134409000Y-64688000D01*
X134401756Y-64651581D01*
X134401756Y-64614451D01*
X134325636Y-64231768D01*
X134269345Y-64095867D01*
X134269342Y-64095864D01*
X134052571Y-63771443D01*
X133948557Y-63667429D01*
X133624136Y-63450658D01*
X133624133Y-63450655D01*
X133553555Y-63421421D01*
X133488232Y-63394363D01*
X133488227Y-63394363D01*
X133105549Y-63318244D01*
X133068419Y-63318244D01*
X133032000Y-63311000D01*
X130069131Y-63311000D01*
X129796415Y-63256754D01*
X129596695Y-63123305D01*
X129463246Y-62923585D01*
X129409000Y-62650869D01*
X129409000Y-48580126D01*
X129794687Y-49513561D01*
X130701664Y-50422123D01*
X131887294Y-50914439D01*
X133171074Y-50915559D01*
X134357561Y-50425313D01*
X135266123Y-49518336D01*
X135758439Y-48332706D01*
X135759559Y-47048926D01*
X135673657Y-46841026D01*
X135959042Y-46841026D01*
X136131312Y-47256947D01*
X136525510Y-47688821D01*
X136992773Y-47907816D01*
X136740460Y-48012070D01*
X136405247Y-48346699D01*
X136223607Y-48784136D01*
X136223194Y-49257786D01*
X136404070Y-49695540D01*
X136738699Y-50030753D01*
X137176136Y-50212393D01*
X137649786Y-50212806D01*
X138087540Y-50031930D01*
X138422753Y-49697301D01*
X138604393Y-49259864D01*
X138604806Y-48786214D01*
X138423930Y-48348460D01*
X138089301Y-48013247D01*
X137835306Y-47907779D01*
X138302490Y-47688821D01*
X138684000Y-47270848D01*
X139065510Y-47688821D01*
X139532773Y-47907816D01*
X139280460Y-48012070D01*
X138945247Y-48346699D01*
X138763607Y-48784136D01*
X138763194Y-49257786D01*
X138944070Y-49695540D01*
X139278699Y-50030753D01*
X139716136Y-50212393D01*
X140189786Y-50212806D01*
X140627540Y-50031930D01*
X140962753Y-49697301D01*
X141144393Y-49259864D01*
X141144600Y-49022000D01*
X141280075Y-49022000D01*
X141370704Y-49477623D01*
X141628794Y-49863881D01*
X142015052Y-50121971D01*
X142470675Y-50212600D01*
X142517325Y-50212600D01*
X142972948Y-50121971D01*
X143359206Y-49863881D01*
X143617296Y-49477623D01*
X143707925Y-49022000D01*
X143820075Y-49022000D01*
X143910704Y-49477623D01*
X144168794Y-49863881D01*
X144555052Y-50121971D01*
X145010675Y-50212600D01*
X145057325Y-50212600D01*
X145512948Y-50121971D01*
X145899206Y-49863881D01*
X146157296Y-49477623D01*
X146247925Y-49022000D01*
X146360075Y-49022000D01*
X146450704Y-49477623D01*
X146708794Y-49863881D01*
X147095052Y-50121971D01*
X147550675Y-50212600D01*
X147597325Y-50212600D01*
X148052948Y-50121971D01*
X148439206Y-49863881D01*
X148697296Y-49477623D01*
X148787925Y-49022000D01*
X148697296Y-48566377D01*
X148439206Y-48180119D01*
X148052948Y-47922029D01*
X147597325Y-47831400D01*
X147550675Y-47831400D01*
X147095052Y-47922029D01*
X146708794Y-48180119D01*
X146450704Y-48566377D01*
X146360075Y-49022000D01*
X146247925Y-49022000D01*
X146157296Y-48566377D01*
X145899206Y-48180119D01*
X145512948Y-47922029D01*
X145057325Y-47831400D01*
X145010675Y-47831400D01*
X144555052Y-47922029D01*
X144168794Y-48180119D01*
X143910704Y-48566377D01*
X143820075Y-49022000D01*
X143707925Y-49022000D01*
X143617296Y-48566377D01*
X143359206Y-48180119D01*
X142972948Y-47922029D01*
X142517325Y-47831400D01*
X142470675Y-47831400D01*
X142015052Y-47922029D01*
X141628794Y-48180119D01*
X141370704Y-48566377D01*
X141280075Y-49022000D01*
X141144600Y-49022000D01*
X141144806Y-48786214D01*
X140963930Y-48348460D01*
X140629301Y-48013247D01*
X140375306Y-47907779D01*
X140842490Y-47688821D01*
X141236688Y-47256947D01*
X141370134Y-46934760D01*
X141370704Y-46937623D01*
X141628794Y-47323881D01*
X142015052Y-47581971D01*
X142470675Y-47672600D01*
X142517325Y-47672600D01*
X142972948Y-47581971D01*
X143359206Y-47323881D01*
X143617296Y-46937623D01*
X143707925Y-46482000D01*
X143820075Y-46482000D01*
X143910704Y-46937623D01*
X144168794Y-47323881D01*
X144555052Y-47581971D01*
X145010675Y-47672600D01*
X145057325Y-47672600D01*
X145512948Y-47581971D01*
X145899206Y-47323881D01*
X146157296Y-46937623D01*
X146247925Y-46482000D01*
X146360075Y-46482000D01*
X146450704Y-46937623D01*
X146708794Y-47323881D01*
X147095052Y-47581971D01*
X147550675Y-47672600D01*
X147597325Y-47672600D01*
X148052948Y-47581971D01*
X148439206Y-47323881D01*
X148697296Y-46937623D01*
X148787925Y-46482000D01*
X148900075Y-46482000D01*
X148990704Y-46937623D01*
X149248794Y-47323881D01*
X149635052Y-47581971D01*
X150090675Y-47672600D01*
X150137325Y-47672600D01*
X150592948Y-47581971D01*
X150979206Y-47323881D01*
X151237296Y-46937623D01*
X151327925Y-46482000D01*
X151440075Y-46482000D01*
X151530704Y-46937623D01*
X151788794Y-47323881D01*
X152175052Y-47581971D01*
X152630675Y-47672600D01*
X152677325Y-47672600D01*
X153132948Y-47581971D01*
X153519206Y-47323881D01*
X153777296Y-46937623D01*
X153867925Y-46482000D01*
X153777296Y-46026377D01*
X153519206Y-45640119D01*
X153132948Y-45382029D01*
X152677325Y-45291400D01*
X152630675Y-45291400D01*
X152175052Y-45382029D01*
X151788794Y-45640119D01*
X151530704Y-46026377D01*
X151440075Y-46482000D01*
X151327925Y-46482000D01*
X151237296Y-46026377D01*
X150979206Y-45640119D01*
X150592948Y-45382029D01*
X150137325Y-45291400D01*
X150090675Y-45291400D01*
X149635052Y-45382029D01*
X149248794Y-45640119D01*
X148990704Y-46026377D01*
X148900075Y-46482000D01*
X148787925Y-46482000D01*
X148697296Y-46026377D01*
X148439206Y-45640119D01*
X148052948Y-45382029D01*
X147597325Y-45291400D01*
X147550675Y-45291400D01*
X147095052Y-45382029D01*
X146708794Y-45640119D01*
X146450704Y-46026377D01*
X146360075Y-46482000D01*
X146247925Y-46482000D01*
X146157296Y-46026377D01*
X145899206Y-45640119D01*
X145512948Y-45382029D01*
X145057325Y-45291400D01*
X145010675Y-45291400D01*
X144555052Y-45382029D01*
X144168794Y-45640119D01*
X143910704Y-46026377D01*
X143820075Y-46482000D01*
X143707925Y-46482000D01*
X143617296Y-46026377D01*
X143359206Y-45640119D01*
X142972948Y-45382029D01*
X142517325Y-45291400D01*
X142470675Y-45291400D01*
X142015052Y-45382029D01*
X141628794Y-45640119D01*
X141370704Y-46026377D01*
X141370134Y-46029240D01*
X141236688Y-45707053D01*
X140842490Y-45275179D01*
X140313027Y-45027032D01*
X140081000Y-45147531D01*
X140081000Y-46355000D01*
X140101000Y-46355000D01*
X140101000Y-46609000D01*
X140081000Y-46609000D01*
X140081000Y-46629000D01*
X139827000Y-46629000D01*
X139827000Y-46609000D01*
X137541000Y-46609000D01*
X137541000Y-46629000D01*
X137287000Y-46629000D01*
X137287000Y-46609000D01*
X136080183Y-46609000D01*
X135959042Y-46841026D01*
X135673657Y-46841026D01*
X135376964Y-46122974D01*
X135959042Y-46122974D01*
X136080183Y-46355000D01*
X137287000Y-46355000D01*
X137287000Y-45147531D01*
X137541000Y-45147531D01*
X137541000Y-46355000D01*
X139827000Y-46355000D01*
X139827000Y-45147531D01*
X139594973Y-45027032D01*
X139065510Y-45275179D01*
X138684000Y-45693152D01*
X138302490Y-45275179D01*
X137773027Y-45027032D01*
X137541000Y-45147531D01*
X137287000Y-45147531D01*
X137054973Y-45027032D01*
X136525510Y-45275179D01*
X136131312Y-45707053D01*
X135959042Y-46122974D01*
X135376964Y-46122974D01*
X135269313Y-45862439D01*
X134362336Y-44953877D01*
X133425815Y-44565000D01*
X189639874Y-44565000D01*
X188706439Y-44950687D01*
M02*
