M48
;DRILL file {KiCad 4.0.5} date 2017 April 15, Saturday 18:49:06
;FORMAT={-:-/ absolute / inch / decimal}
FMAT,2
INCH,TZ
T1C0.024
T2C0.039
T3C0.039
T4C0.040
T5C0.047
T6C0.051
T7C0.059
T8C0.091
%
G90
G05
M72
T1
X5.57Y-2.55
X5.62Y-2.55
X5.67Y-2.55
T2
X5.315Y-3.4646
X5.5118Y-3.4646
X5.7087Y-3.4646
X5.9055Y-3.4646
T3
X5.81Y-2.55
X6.11Y-2.55
X6.29Y-3.4299
X6.39Y-3.4299
X6.47Y-3.4299
X6.57Y-3.4299
X6.67Y-2.15
X6.67Y-2.45
X6.8Y-2.15
X6.8Y-2.45
T4
X5.41Y-1.83
X5.41Y-1.93
X5.51Y-1.83
X5.51Y-1.93
X5.61Y-1.83
X5.61Y-1.93
X5.66Y-2.16
X5.66Y-2.26
X5.71Y-1.83
X5.71Y-1.93
X5.76Y-2.16
X5.76Y-2.26
X5.81Y-1.83
X5.81Y-1.93
X5.86Y-2.16
X5.86Y-2.26
X5.91Y-1.83
X5.91Y-1.93
X5.96Y-2.16
X5.96Y-2.26
X6.01Y-1.83
X6.01Y-1.93
X6.06Y-2.16
X6.06Y-2.26
X6.11Y-1.83
X6.11Y-1.93
X6.16Y-2.16
X6.16Y-2.26
X6.21Y-1.83
X6.21Y-1.93
X6.26Y-2.16
X6.26Y-2.26
X6.3Y-2.5
X6.31Y-1.83
X6.31Y-1.93
X6.36Y-2.16
X6.36Y-2.26
X6.4Y-2.5
X6.4Y-2.64
X6.41Y-1.83
X6.41Y-1.93
X6.5Y-2.5
X6.5Y-2.64
X6.51Y-1.83
X6.51Y-1.93
X6.61Y-1.83
X6.61Y-1.93
X6.71Y-1.83
X6.71Y-1.93
X6.81Y-1.83
X6.81Y-1.93
X6.91Y-1.83
X6.91Y-1.93
X7.01Y-1.83
X7.01Y-1.93
X7.11Y-1.83
X7.11Y-1.93
X7.21Y-1.83
X7.21Y-1.93
X7.31Y-1.83
X7.31Y-1.93
T5
X6.98Y-3.41
X7.08Y-3.41
X7.18Y-3.41
X7.34Y-3.41
X7.44Y-3.41
X7.54Y-3.41
T6
X6.9978Y-2.3469
X7.49Y-2.15
X7.49Y-2.5438
T7
X5.4427Y-2.8105
X5.4427Y-3.0388
X5.608Y-2.8105
X5.608Y-3.0388
X5.7734Y-2.8105
X5.7734Y-3.0388
X5.9387Y-2.8105
X5.9387Y-3.0388
X6.1041Y-2.8105
X6.1041Y-3.0388
X6.2694Y-2.8105
X6.2694Y-3.0388
X6.4348Y-2.8105
X6.4348Y-3.0388
X6.6002Y-2.8105
X6.6002Y-3.0388
X6.7655Y-2.8105
X6.7655Y-3.0388
X6.9309Y-2.8105
X6.9309Y-3.0388
X7.0962Y-2.8105
X7.0962Y-3.0388
X7.2616Y-2.8105
X7.2616Y-3.0388
T8
X6.15Y-3.5349
X6.69Y-3.5349
T0
M30
