G04 #@! TF.FileFunction,Soldermask,Bot*
%FSLAX46Y46*%
G04 Gerber Fmt 4.6, Leading zero omitted, Abs format (unit mm)*
G04 Created by KiCad (PCBNEW 4.0.5) date 2017 April 15, Saturday 18:49:04*
%MOMM*%
%LPD*%
G01*
G04 APERTURE LIST*
%ADD10C,0.100000*%
%ADD11C,6.200000*%
%ADD12R,1.727200X2.032000*%
%ADD13O,1.727200X2.032000*%
%ADD14C,1.727200*%
%ADD15O,1.727200X1.727200*%
%ADD16R,1.727200X1.727200*%
%ADD17O,0.899160X1.501140*%
%ADD18C,1.998980*%
%ADD19C,2.499360*%
%ADD20C,7.000240*%
%ADD21R,2.032000X2.032000*%
%ADD22O,2.032000X2.032000*%
%ADD23C,2.000000*%
%ADD24C,2.500000*%
%ADD25R,2.500000X2.500000*%
%ADD26R,2.000000X2.600000*%
%ADD27O,2.000000X2.600000*%
%ADD28C,1.501140*%
%ADD29C,2.999740*%
G04 APERTURE END LIST*
D10*
D11*
X132532000Y-47688000D03*
X190532000Y-47688000D03*
X190532000Y-96688000D03*
X132532000Y-96688000D03*
D12*
X165100000Y-63500000D03*
D13*
X162560000Y-63500000D03*
X160020000Y-63500000D03*
D14*
X137414000Y-49022000D03*
D15*
X137414000Y-46482000D03*
D14*
X139954000Y-49022000D03*
D15*
X139954000Y-46482000D03*
X142494000Y-49022000D03*
X142494000Y-46482000D03*
X145034000Y-49022000D03*
X145034000Y-46482000D03*
X147574000Y-49022000D03*
X147574000Y-46482000D03*
X150114000Y-49022000D03*
X150114000Y-46482000D03*
X152654000Y-49022000D03*
X152654000Y-46482000D03*
X155194000Y-49022000D03*
X155194000Y-46482000D03*
X157734000Y-49022000D03*
X157734000Y-46482000D03*
X160274000Y-49022000D03*
X160274000Y-46482000D03*
X162814000Y-49022000D03*
X162814000Y-46482000D03*
X165354000Y-49022000D03*
X165354000Y-46482000D03*
X167894000Y-49022000D03*
X167894000Y-46482000D03*
X170434000Y-49022000D03*
X170434000Y-46482000D03*
X172974000Y-49022000D03*
X172974000Y-46482000D03*
X175514000Y-49022000D03*
X175514000Y-46482000D03*
X178054000Y-49022000D03*
X178054000Y-46482000D03*
X180594000Y-49022000D03*
X180594000Y-46482000D03*
X183134000Y-49022000D03*
X183134000Y-46482000D03*
X185674000Y-49022000D03*
X185674000Y-46482000D03*
D16*
X143764000Y-57404000D03*
D15*
X143764000Y-54864000D03*
X146304000Y-57404000D03*
X146304000Y-54864000D03*
X148844000Y-57404000D03*
X148844000Y-54864000D03*
X151384000Y-57404000D03*
X151384000Y-54864000D03*
X153924000Y-57404000D03*
X153924000Y-54864000D03*
X156464000Y-57404000D03*
X156464000Y-54864000D03*
X159004000Y-57404000D03*
X159004000Y-54864000D03*
X161544000Y-57404000D03*
X161544000Y-54864000D03*
D17*
X142748000Y-64770000D03*
X141478000Y-64770000D03*
X144018000Y-64770000D03*
D18*
X169418000Y-54610000D03*
X169418000Y-62230000D03*
X147574000Y-64770000D03*
X155194000Y-64770000D03*
X172720000Y-54610000D03*
X172720000Y-62230000D03*
D19*
X177744120Y-59611260D03*
X190246000Y-54610000D03*
X190246000Y-64612520D03*
D20*
X182745380Y-59611260D03*
D21*
X165100000Y-67056000D03*
D22*
X162560000Y-67056000D03*
D23*
X140000000Y-88000000D03*
X135000000Y-88000000D03*
X150000000Y-88000000D03*
X145000000Y-88000000D03*
D24*
X138244000Y-77186000D03*
X142444000Y-77186000D03*
X146644000Y-77186000D03*
X150844000Y-77186000D03*
X155044000Y-77186000D03*
X159244000Y-77186000D03*
X163444000Y-77186000D03*
X167644000Y-77186000D03*
X171844000Y-77186000D03*
X176044000Y-77186000D03*
X180244000Y-77186000D03*
X184444000Y-77186000D03*
D25*
X138244000Y-71386000D03*
D24*
X142444000Y-71386000D03*
X146644000Y-71386000D03*
X150844000Y-71386000D03*
X155044000Y-71386000D03*
X159244000Y-71386000D03*
X163444000Y-71386000D03*
X167644000Y-71386000D03*
X171844000Y-71386000D03*
X176044000Y-71386000D03*
X180244000Y-71386000D03*
X184444000Y-71386000D03*
D26*
X177292000Y-86614000D03*
D27*
X179832000Y-86614000D03*
X182372000Y-86614000D03*
D26*
X186436000Y-86614000D03*
D27*
X188976000Y-86614000D03*
X191516000Y-86614000D03*
D28*
X166878860Y-87119880D03*
X164338860Y-87119880D03*
X162306860Y-87119880D03*
X159766860Y-87119880D03*
D29*
X169926860Y-89786880D03*
X156210860Y-89786880D03*
M02*
